<?xml version="1.0" encoding="utf-8"?>
<!-- Generator: Adobe Illustrator 19.0.0, SVG Export Plug-In . SVG Version: 6.00 Build 0)  -->
<svg version="1.1" id="图层_1" xmlns="http://www.w3.org/2000/svg" xmlns:xlink="http://www.w3.org/1999/xlink" x="0px" y="0px"
	 viewBox="-48 324 498.6 194.9" style="enable-background:new -48 324 498.6 194.9;" xml:space="preserve">
<style type="text/css">
	.st0{fill:#FFFFFF;stroke:#000000;stroke-width:6.2744;stroke-miterlimit:10;}
	.st1{fill:#444444;}
</style>
<g id="XMLID_7_">
	<polygon id="XMLID_1_" class="st0" points="420.6,510.6 -18.9,500.7 -31.9,373.6 434.5,332.3 	"/>
	<g>
		<path d="M23.2,422.1c2.5,3.9,6.6,6.6,12.3,7.8c-1,0.9-2.2,2.7-2.8,3.9c-5.5-1.5-9.3-4.4-12.1-8.6c-1.9,3.3-5.8,6.5-13.4,8.8
			c-0.5-0.9-1.8-2.6-2.9-3.5c8-2.3,11.4-5.3,12.6-8.3H5.3v-3.9h12.4v-0.3v-4.2H7.5v-3.9H13c-0.6-1.5-1.8-3.5-2.9-4.9l3.3-1.7
			c1.5,1.7,2.8,3.9,3.5,5.4l-2,1.1h8c1.2-1.9,2.5-4.6,3.3-6.6l4.3,1.4c-1,1.8-2.2,3.6-3.2,5.2h5.5v3.9H22.4v4.2v0.3h11.9v3.9H23.2z"
			/>
		<path d="M67.6,419.8H55.2v9.1c0,2.4-0.5,3.5-2.1,4.2c-1.6,0.7-4,0.8-7.2,0.8c-0.2-1.2-1-3-1.7-4.2c2.4,0.1,5,0.1,5.8,0.1
			c0.7,0,1-0.2,1-0.9v-9H38v-3.9h13v-6.8H40.3v-3.9h25.1v3.9H55.2v6.8h12.4V419.8z"/>
		<path d="M89.6,404.8c-0.3,0.4-0.7,0.8-1,1.2c3.4,2.9,8.6,5.9,13.1,7.5c-1,0.8-2.3,2.5-3,3.6c-4.2-1.9-9-5.1-12.7-8.5
			c-3.9,3.6-8.5,6.5-13.1,8.6c-0.6-1-1.7-2.5-2.8-3.5c5.8-2.3,12.3-6.2,15.8-10.8L89.6,404.8z M98.5,419.7c-2.5,2.6-5.7,5.9-8.7,8.8
			c1.3,0.8,2.5,1.6,3.4,2.3l-3,3.4c-2.4-2-7.7-5.3-11.4-7.4l2.7-3c1.4,0.8,3.1,1.7,4.9,2.6c1.6-1.5,3.2-3.1,4.6-4.6H74.6v-3.8h12
			c-1-1.4-2.9-3.2-4.4-4.6l2.8-2.3c1.6,1.4,3.8,3.3,4.8,4.6l-2.6,2.3h7.7l0.7-0.2L98.5,419.7z"/>
		<path d="M113.7,417.2c1.3,1.3,4.3,4.8,5,5.7l-2.2,3.3c-0.6-1.1-1.7-2.8-2.8-4.3V434h-4v-11.7c-1.3,3.1-2.9,5.9-4.6,7.9
			c-0.4-1.2-1.3-2.7-2-3.7c2.2-2.4,4.4-6.2,5.6-9.8h-4.9V413h5.9v-4.3c-1.6,0.3-3.2,0.5-4.7,0.7c-0.2-0.9-0.6-2.2-1.1-3.1
			c4.3-0.6,9.1-1.7,12.1-2.8l2.5,3.1c-1.5,0.5-3.2,1-4.9,1.4v5h4.8v3.6h-4.8V417.2z M132.5,406.3v25.9h-4.1v-2.4h-5.3v2.6h-3.9
			v-26.1H132.5z M128.5,426v-16h-5.3v16H128.5z"/>
		<path d="M146.9,404.5c-0.9,2.3-1.9,4.6-3.1,6.8v22.7H140v-16.9c-0.7,1-1.5,1.9-2.2,2.7c-0.4-1-1.5-3.1-2.1-4.1
			c3-3,5.8-7.7,7.5-12.3L146.9,404.5z M158.6,412.7v16.9c0,1.9-0.3,3-1.5,3.6c-1.2,0.6-2.7,0.8-4.9,0.8c-0.2-1.2-0.8-2.9-1.4-4
			c1.4,0,2.8,0,3.2,0c0.4,0,0.6-0.1,0.6-0.6v-16.8h-3.8c-0.9,1.9-2,3.7-3.1,5c-0.7-0.7-2.3-2-3.2-2.6c2.5-2.8,4.5-7.4,5.6-11.9
			l3.8,0.9c-0.4,1.7-1,3.3-1.6,4.9h11.4l0.6-0.1l2.8,0.5c-0.4,2.7-1,5.7-1.4,7.7l-3.3-0.6c0.2-1,0.4-2.4,0.5-3.9H158.6z
			 M153.1,418.7c-1,4.2-2.6,8.3-4.5,11c-0.8-0.6-2.4-1.6-3.4-2.1c1.9-2.3,3.3-6,4-9.7L153.1,418.7z M163.3,417.5
			c1.7,3.4,3.1,7.8,3.6,10.8l-3.8,1.3c-0.4-2.9-1.7-7.5-3.3-10.9L163.3,417.5z"/>
		<path d="M176.3,413c-0.7,3.9-1.8,8.5-3.4,11.4l-3.8-1.4c1.6-2.8,2.9-7,3.5-10.9L176.3,413z M189,429.7c1.7,0,1.9-1,2.2-5.6
			c1,0.7,2.7,1.4,3.9,1.7c-0.5,5.9-1.7,7.9-5.7,7.9h-5.8c-4.1,0-5.4-1.1-5.7-4.8c-1.9,1.3-4,2.5-6.1,3.5c-0.6-0.9-1.8-2.3-2.6-3.1
			c3.1-1.4,6-3.2,8.6-5.2v-13.5h4.2v10c5-4.7,8.9-10.2,11.5-15.4l4,1.6c-3.6,6.9-8.8,13.7-15.4,19.1v2c0,1.7,0.3,1.9,1.9,1.9H189z
			 M186.1,412c-1.9-1.6-5.3-4.2-7.9-5.9l2.5-2.9c2.7,1.7,6,4.2,7.9,5.6L186.1,412z M195.5,414.3c2.1,3.1,4.2,7.1,5,9.8l-3.8,1.9
			c-0.8-2.7-2.8-7-4.8-10.1L195.5,414.3z"/>
		<path d="M214.4,422.8c-2.2,4.3-5.6,7.8-9.5,10.1c-0.6-1-1.7-2.3-2.7-3.1c3.4-1.8,6.8-4.8,8.5-8.3L214.4,422.8z M213.8,414.1
			c-2.2,3.1-5.4,5.9-8.4,7.8c-0.6-0.8-1.7-2-2.7-2.8c2.6-1.5,5.9-4,7.6-6.5L213.8,414.1z M213.2,405.2c-2,2.9-4.9,5.6-7.7,7.4
			c-0.7-0.8-1.8-1.9-2.7-2.6c2.4-1.4,5.3-3.8,6.8-6.2L213.2,405.2z M225.3,421.7c0,4.2-2,9.2-10.4,12.4c-0.5-0.8-1.7-2.2-2.5-2.9
			c8.4-2.5,8.9-6.4,8.9-9.6v-6h4V421.7z M220.2,410.2c0.1-0.7,0.3-1.4,0.4-2.1h-7v-3.7h19.1v3.7H225c-0.3,0.8-0.5,1.5-0.8,2.1h7.2
			V426h-4.1v-12.2h-8.2v12.3h-3.9v-15.9H220.2z M225.7,426c2.5,1.4,6,3.5,7.7,5l-2,3.1c-1.6-1.6-5-3.9-7.6-5.4L225.7,426z"/>
		<path d="M259.5,424.1c-0.8,1.7-1.8,3-3,4.2c3.2,0.9,6.1,1.8,8.4,2.6l-3.1,3.1c-2.4-1-5.6-2-9.2-3c-3.6,1.8-8.5,2.6-14.9,3.2
			c-0.3-1.2-0.9-2.5-1.5-3.4c4.3-0.2,7.9-0.6,10.8-1.4c-2.3-0.6-4.6-1.1-7.1-1.6c0.9-1,1.9-2.2,2.9-3.6h-7.1v-3.4h9.3
			c0.4-0.6,0.7-1.2,1.1-1.8h-8.4v-9.2h7.2v-1.9h-8.7v-3.4h28.7v3.4h-8.9v1.9h7.9v9.2h-15.1l1.7,0.4c-0.2,0.5-0.5,1-0.8,1.5h16v3.4
			H259.5z M241.6,415.8h3.5v-3.1h-3.5V415.8z M247.6,424.1c-0.4,0.6-0.8,1.2-1.2,1.7c1.9,0.4,3.9,0.9,5.8,1.4c1.2-0.8,2.2-1.8,3-3
			H247.6z M248.7,409.6h3.7v-1.9h-3.7V409.6z M252.5,415.8v-3.1h-3.7v3.1H252.5z M256.2,412.7v3.1h4v-3.1H256.2z"/>
		<path d="M278.4,419.9c-0.1,0.5-0.1,0.9-0.2,1.4c1.7,1.7,5.3,5.8,6.2,6.9l-2.6,3.3c-1.1-1.7-3-4.2-4.6-6.2
			c-1.1,3.2-3.1,6.3-6.2,8.6c-0.5-0.8-2-2.4-2.8-3c4.3-3.1,5.8-7.2,6.3-11h-5.8v-3.7h6.1v-0.8V411h-1.3c-0.7,1.7-1.4,3.2-2.2,4.4
			c-0.7-0.7-2.3-1.8-3.2-2.3c1.8-2.4,3-6.2,3.7-9.9l3.8,0.8c-0.2,1.2-0.5,2.3-0.8,3.4h8.7v3.6h-4.7v4.5v0.8h5.4v3.7H278.4z
			 M297.6,406v26.5h-4v-1.9h-4.8v2.4H285v-27H297.6z M293.6,427v-17.3h-4.8V427H293.6z"/>
		<path d="M309.5,427.5c0.7,0.4,1.4,0.9,2.4,1.3c2.2,1.1,5.2,1.4,8.8,1.4c3.4,0,8.4-0.3,11.6-0.7c-0.4,1-1,2.7-1.1,3.8
			c-2.2,0.1-7.5,0.3-10.7,0.3c-4,0-6.8-0.4-9.3-1.6c-1.5-0.8-2.6-1.7-3.4-1.7c-1.2,0-2.8,1.9-4.3,3.8l-2.4-3.3
			c1.5-1.4,3.1-2.6,4.6-3.2v-9h-3.9V415h7.7V427.5z M306.4,412c-0.9-1.5-2.9-3.9-4.6-5.6l3-1.9c1.7,1.6,3.8,3.8,4.8,5.4L306.4,412z
			 M318.1,412.2c0.2-0.6,0.3-1.3,0.5-1.9h-7.9v-3.2h4.5c-0.4-0.9-1.1-1.9-1.7-2.8l3.3-1.4c0.8,1.1,1.8,2.5,2.2,3.5l-1.7,0.7h5.2
			c0.8-1.2,1.6-2.8,2.1-3.9l3.8,1.1c-0.7,1-1.4,2-2,2.9h5.3v3.2h-8.9c-0.3,0.7-0.7,1.4-1,1.9h7.5v15.9h-16.5v-15.9H318.1z
			 M325.4,415h-8.9v1.8h8.9V415z M325.4,419.3h-8.9v1.8h8.9V419.3z M325.4,423.6h-8.9v1.8h8.9V423.6z"/>
		<path d="M364.4,408.3c0,0,0,1.3,0,1.8c-0.4,14.8-0.8,20-2.1,21.8c-0.9,1.2-1.8,1.6-3.2,1.8c-1.3,0.2-3.2,0.1-5.2,0.1
			c-0.1-1.1-0.6-2.7-1.3-3.8c2.1,0.2,4.1,0.2,4.9,0.2c0.7,0,1-0.1,1.5-0.6c1-1.1,1.4-6,1.7-17.7h-7.1c-0.9,2-1.9,3.8-2.9,5.2
			c-0.5-0.5-1.7-1.3-2.5-1.8v15.4h-8.8v2.4h-3.6v-24.5h3.7c0.4-1.7,0.8-3.8,1-5.3l4.3,0.6c-0.6,1.6-1.2,3.3-1.7,4.7h5.1v5.3
			c1.9-2.8,3.5-6.8,4.5-10.6l3.7,0.9c-0.3,1.4-0.8,2.8-1.3,4.2H364.4z M344.6,411.9h-5.2v5.3h5.2V411.9z M344.6,427.1v-6.5h-5.2v6.5
			H344.6z M355.6,425.4c-0.9-2-3-5.2-4.6-7.6l3.1-1.7c1.7,2.3,3.8,5.4,4.9,7.3L355.6,425.4z"/>
		<path d="M398.1,424.8h-3.4v5.7h-4v-1.4h-5.9v1c0,1.9-0.5,2.7-1.7,3.3c-1.3,0.5-3,0.6-5.8,0.6c-0.2-0.9-0.8-2.3-1.3-3.1
			c1.6,0.1,3.5,0.1,4.1,0.1c0.6,0,0.8-0.2,0.8-0.8v-1h-10v-2.8h10v-1.6h-13.1v-3h13.1v-1.4h-9.8v-2.6h9.8v-1.5h-8.9v-6.5h8.9v-1.4
			h-12.3v-3.1h12.3v-2.1h4v2.1h12.6v3.1h-12.6v1.4h9.4v6.5h-9.4v1.5h9.9v4.1h3.4V424.8z M380.7,413.8v-1.6h-5.2v1.6H380.7z
			 M384.7,412.2v1.6h5.3v-1.6H384.7z M384.7,421.8h5.9v-1.4h-5.9V421.8z M390.6,424.8h-5.9v1.6h5.9V424.8z"/>
		<path class="st1" d="M148.2,474.2c1.4-1.3,2.9-3.5,3.7-5.5l1.7,0.4c-0.9,2.1-2.3,4.4-3.8,5.8L148.2,474.2z M169.5,467h-18v-8.5
			h7.9v-8.3h1.8v3h10.4v1.7h-10.4v3.6h8.3V467z M167.7,460.2h-14.4v5.1h14.4V460.2z M158,469.3c0.4,1.7,0.7,3.9,0.7,5.2l-1.8,0.2
			c0-1.3-0.2-3.6-0.6-5.3L158,469.3z M163.5,469.1c0.8,1.7,1.7,3.8,2,5.2l-1.7,0.4c-0.3-1.3-1.1-3.6-1.9-5.2L163.5,469.1z
			 M169,468.6c1.4,1.7,3,3.9,3.6,5.4l-1.7,0.7c-0.6-1.5-2.1-3.8-3.5-5.5L169,468.6z"/>
		<path class="st1" d="M188.7,471.7h6.6v-6.9h1.8V475h-1.8v-1.6h-17v-8.7h1.9v7h6.6v-9.1H176v-1.8h10.8v-4.4h-8.8v-1.8h8.8v-4.3h1.9
			v4.3h8.9v1.8h-8.9v4.4h10.8v1.8h-10.8V471.7z"/>
		<path class="st1" d="M217.7,455.4c2.4,2.6,6.2,4.8,9.7,6c-0.4,0.3-0.9,1-1.2,1.4c-3.8-1.4-8-4.2-10.5-7.4v5.8h-1.8v-5.8
			c-2.5,3.2-6.7,6.1-10.4,7.6c-0.3-0.4-0.8-1.1-1.2-1.5c3.4-1.2,7.1-3.5,9.5-6.2h-8.9v-1.6h11v-3.5h1.8v3.5h11.2v1.6H217.7z
			 M203.4,472.5h23.1v1.6h-23.1V472.5z M222.3,462v8.8h-14.9V462H222.3z M220.5,463.3h-11.3v2.4h11.3V463.3z M220.5,467h-11.3v2.4
			h11.3V467z"/>
		<path class="st1" d="M238.8,460.3c-0.4,0.7-0.8,1.4-1.2,2h13.7v12.8h-1.8V474h-12.2v1.1h-1.7v-10.3c-1.4,1.6-3,3-4.9,4.1
			c-0.2-0.4-0.8-1.1-1.1-1.4c3.1-1.8,5.4-4.4,7.2-7.3h-6.6v-1.5h7.4c0.4-0.7,0.7-1.4,1-2.1h-6.4v-1.5h6.9c0.2-0.7,0.4-1.4,0.6-2
			c-2.6,0.1-5.2,0.2-7.6,0.2c0-0.4-0.2-1-0.4-1.4c6.6-0.1,14.9-0.5,19.1-1.4l1.2,1.3c-2.7,0.6-6.4,0.9-10.4,1.2
			c-0.2,0.7-0.4,1.4-0.7,2.1h11.4v1.5h-11.9c-0.3,0.7-0.6,1.4-1,2.1H254v1.5H238.8z M249.5,463.7h-12.2v2h12.2V463.7z M249.5,467
			h-12.2v2h12.2V467z M249.5,472.5v-2.2h-12.2v2.2H249.5z"/>
	</g>
</g>
</svg>
