<?xml version="1.0" encoding="utf-8"?>
<!-- Generator: Adobe Illustrator 19.0.0, SVG Export Plug-In . SVG Version: 6.00 Build 0)  -->
<svg version="1.1" id="图层_1" xmlns="http://www.w3.org/2000/svg" xmlns:xlink="http://www.w3.org/1999/xlink" x="0px" y="0px"
	 viewBox="0 0 374.7 146.5" style="enable-background:new 0 0 374.7 146.5;" xml:space="preserve">
<style type="text/css">
	.st0{fill:#FFFFFF;stroke:#000000;stroke-width:6.2744;stroke-miterlimit:10;}
	.st1{fill:#444444;}
</style>
<g id="XMLID_983_">
	<polygon id="XMLID_155_" class="st0" points="351.7,128.3 9.2,133.4 44.2,29.3 342.6,10.1 	"/>
	<g id="XMLID_69_">
		<path id="XMLID_94_" d="M121.8,70.3l-15,0.9l0.6,9.4l-5.4,0.3l-0.6-9.4l-19.7,1.2l-0.3-5l6.9-0.4l-0.7-11.5l12.8-0.8l-0.3-5.3
			l-9.4,0.6c-1.6,3.2-3.5,6.2-5.5,8.3c-1.1-0.8-3.4-2.4-4.7-3.1c3.7-3.6,6.8-9.4,8.3-15.2l5.4,1c-0.3,1.3-0.7,2.5-1.2,3.7l24.8-1.5
			l0.3,5l-12.6,0.8l0.3,5.3l11.6-0.7l0.3,4.8l-11.6,0.7l0.4,6.7l15-0.9L121.8,70.3z M101.1,66.5l-0.4-6.7l-7.6,0.5l0.4,6.7
			L101.1,66.5z"/>
		<path id="XMLID_97_" d="M139.6,59.7c-0.3,1.1-0.6,2.2-0.9,3.4l21-1.3c0,0,0,1.5-0.1,2.2c-0.5,6.8-1.3,10.1-2.8,11.6
			c-1.2,1.3-2.7,1.7-4.7,2c-1.7,0.2-4.6,0.4-7.6,0.4c-0.2-1.5-1-3.5-2.1-4.8c2.9,0.1,6.2-0.1,7.5-0.1c1-0.1,1.5-0.1,2.1-0.5
			c0.7-0.7,1.3-2.4,1.7-5.6L134.6,68l0,0l-3.2,0.2c0.7-2.2,1.7-5.2,2.3-8.1l-8.2,0.5l-0.3-4.7l38.8-2.3l0.3,4.7L139.6,59.7z
			 M158.8,51.1l-28.6,1.7l-0.8-13.2l28.6-1.7L158.8,51.1z M152.8,42.8l-17.8,1.1l0.2,4.1l17.8-1.1L152.8,42.8z"/>
		<path id="XMLID_101_" d="M180,46.7c-1.1,6.8-3,15.1-6.5,20.3c-1.3-0.8-3.7-2-5.1-2.6c3.3-4.7,5.1-12.5,5.7-18.4L180,46.7z
			 M190.5,35l2,33.8c0.2,3.2-0.4,4.7-2.3,5.7c-2,1-4.9,1.3-9.2,1.6c-0.4-1.6-1.5-4-2.3-5.4c2.9,0,6-0.2,7-0.3c1-0.1,1.3-0.4,1.2-1.3
			l-2-33.7L190.5,35z M200.9,43.9c3.9,5.9,7.9,13.6,9.4,18.9l-5.5,2.7c-1.2-5.2-5-13.2-8.8-19.3L200.9,43.9z"/>
		<path id="XMLID_105_" d="M225.5,54.6c-0.1,0.6-0.1,1.2-0.2,1.8c2.4,2.1,7.5,7.3,8.8,8.7l-3.2,4.6c-1.6-2.2-4.3-5.3-6.6-7.9
			c-1.2,4.4-3.6,8.7-7.6,12c-0.8-1.1-2.8-3-4-3.7c5.5-4.4,7.1-10,7.5-15.1l-7.8,0.5l-0.3-4.9l8.1-0.5l-0.1-1.1l-0.4-5.9l-1.8,0.1
			c-0.7,2.3-1.6,4.4-2.6,6.1c-1-0.8-3.2-2.2-4.4-2.8c2.2-3.3,3.5-8.4,4.1-13.5l5.1,0.7c-0.2,1.6-0.5,3.1-0.8,4.6l11.6-0.7l0.3,4.8
			l-6.2,0.4l0.4,5.9l0.1,1.1l7.2-0.4l0.3,4.9L225.5,54.6z M249.8,34.6l2.1,35.2l-5.3,0.3l-0.1-2.5l-6.4,0.4l0.2,3.2l-5,0.3
			l-2.2-35.9L249.8,34.6z M246.2,62.8l-1.4-22.9l-6.4,0.4l1.4,22.9L246.2,62.8z"/>
		<path id="XMLID_109_" d="M270.8,55.9c0.5,1.5,1.6,3.5,2.3,4.4c-7.9,7.6-9.2,8.9-10,10c-0.6-1-2.4-2.5-3.3-3.2c1-1,2.5-3.2,2.3-5.9
			l-0.8-12.6l-5.1,0.3l-0.3-5l10.2-0.6l1,16L270.8,55.9z M264.5,40.9c-1.5-1.8-4.9-4.6-7.3-6.6l3.1-3.4c2.5,1.8,5.9,4.4,7.5,6.2
			L264.5,40.9z M281.9,57.3c-1.2,5-3.6,9.9-6.3,13c-1.1-0.8-3.4-2.1-4.8-2.7c2.7-2.8,4.7-7,5.7-11.2L281.9,57.3z M294.4,51.8
			l-20.9,1.3l-1.2-20.8l20.9-1.3L294.4,51.8z M288,36.3L277.8,37l0.7,10.8l10.2-0.6L288,36.3z M291.1,55.4c2.6,3.5,5.5,8.3,6.6,11.4
			l-5.1,2.3c-1-3.1-3.7-8.1-6.2-11.8L291.1,55.4z"/>
		<path id="XMLID_116_" class="st1" d="M139.3,117.9c1.4-1.3,2.6-3.6,3.4-5.7l1.7,0.3c-0.8,2.2-2,4.5-3.5,6L139.3,117.9z
			 M160.2,109.5l-17.9,1.1l-0.5-8.5l7.8-0.5l-0.5-8.3l1.8-0.1l0.2,3l10.3-0.6l0.1,1.7l-10.3,0.6l0.2,3.6l8.3-0.5L160.2,109.5z
			 M157.9,102.8l-14.4,0.9l0.3,5.1l14.4-0.9L157.9,102.8z M148.8,112.4c0.5,1.7,0.9,3.9,1,5.1l-1.8,0.4c-0.1-1.3-0.4-3.5-0.9-5.3
			L148.8,112.4z M154.3,111.9c0.9,1.6,1.9,3.7,2.3,5.1l-1.7,0.5c-0.4-1.3-1.3-3.5-2.2-5.1L154.3,111.9z M159.7,111.1
			c1.5,1.6,3.2,3.8,4,5.2l-1.7,0.8c-0.7-1.5-2.4-3.7-3.8-5.3L159.7,111.1z"/>
		<path id="XMLID_123_" class="st1" d="M179.6,113l6.6-0.4l-0.4-6.9l1.8-0.1l0.6,10.3l-1.8,0.1l-0.1-1.6l-17,1l-0.5-8.7l1.9-0.1
			l0.4,6.9l6.6-0.4l-0.5-9.1l-10.7,0.6l-0.1-1.8l10.7-0.6l-0.3-4.4l-8.7,0.5l-0.1-1.8l8.7-0.5l-0.3-4.3l1.9-0.1l0.3,4.3l8.8-0.5
			l0.1,1.8l-8.8,0.5l0.3,4.4l10.7-0.6l0.1,1.8l-10.7,0.6L179.6,113z"/>
		<path id="XMLID_125_" class="st1" d="M207.6,95c2.5,2.4,6.5,4.5,10,5.4c-0.4,0.3-0.9,1.1-1.1,1.5c-3.9-1.2-8.2-3.8-10.9-6.7
			l0.3,5.8l-1.8,0.1l-0.3-5.8c-2.3,3.4-6.3,6.5-9.9,8.2c-0.3-0.4-0.9-1.1-1.3-1.4c3.3-1.4,6.9-4,9.1-6.7l-8.9,0.5l-0.1-1.6l11-0.7
			l-0.2-3.5l1.8-0.1l0.2,3.5l11.2-0.7l0.1,1.6L207.6,95z M194.3,112.9l23-1.4l0.1,1.6l-23,1.4L194.3,112.9z M212.6,101.3l0.5,8.8
			l-14.9,0.9l-0.5-8.8L212.6,101.3z M210.8,102.7l-11.3,0.7l0.1,2.4l11.3-0.7L210.8,102.7z M211,106.4l-11.3,0.7l0.1,2.4l11.3-0.7
			L211,106.4z"/>
		<path id="XMLID_131_" class="st1" d="M228.9,98.6c-0.3,0.7-0.7,1.4-1.1,2.1l13.7-0.8l0.8,12.8l-1.8,0.1l-0.1-1.1l-12.1,0.7
			l0.1,1.1l-1.7,0.1l-0.6-10.3c-1.3,1.7-2.9,3.1-4.7,4.4c-0.3-0.4-0.9-1-1.2-1.3c3-2,5.2-4.7,6.7-7.7l-6.5,0.4l-0.1-1.5l7.4-0.4
			c0.3-0.7,0.6-1.5,0.8-2.2l-6.4,0.4l-0.1-1.5l6.9-0.4c0.2-0.7,0.3-1.4,0.5-2.1c-2.6,0.3-5.1,0.5-7.5,0.6c-0.1-0.4-0.3-1-0.5-1.4
			c6.6-0.4,14.8-1.4,19-2.5l1.2,1.3c-2.7,0.7-6.4,1.3-10.3,1.8c-0.1,0.7-0.3,1.5-0.5,2.2l11.3-0.7l0.1,1.5l-11.9,0.7
			c-0.2,0.7-0.5,1.5-0.8,2.2l14.4-0.9l0.1,1.5L228.9,98.6z M239.8,101.4l-12.1,0.7l0.1,2l12.1-0.7L239.8,101.4z M240,104.7
			l-12.1,0.7l0.1,2l12.1-0.7L240,104.7z M240.3,110.2l-0.1-2.2l-12.1,0.7l0.1,2.2L240.3,110.2z"/>
	</g>
</g>
</svg>
