<?xml version="1.0" encoding="utf-8"?>
<!-- Generator: Adobe Illustrator 19.0.0, SVG Export Plug-In . SVG Version: 6.00 Build 0)  -->
<svg version="1.1" id="图层_1" xmlns="http://www.w3.org/2000/svg" xmlns:xlink="http://www.w3.org/1999/xlink" x="0px" y="0px"
	 viewBox="-110 364.8 374.7 87" style="enable-background:new -110 364.8 374.7 87;" xml:space="preserve">
<style type="text/css">
	.st0{fill:#FFFFFF;}
	.st1{fill:none;stroke:#231815;stroke-width:3.4561;stroke-linejoin:round;stroke-miterlimit:10;}
	.st2{fill:none;stroke:#000000;stroke-miterlimit:10;}
	.st3{opacity:0.74;fill:none;stroke:#000000;stroke-width:2;stroke-miterlimit:10;}
</style>
<g id="XMLID_229_">
	<rect id="XMLID_277_" x="-16.4" y="416.1" class="st0" width="232.7" height="16.5"/>
	<g>
		<g>
			<path class="st0" d="M19.5,394.7c0.2,0.1,0.5,0.3,0.8,0.5c0.9,0.6,2.3,0.6,3.8,0.6c1.4,0,4-0.1,5.5-0.4c-0.2,0.6-0.6,1.6-0.6,2.2
				c-1.2,0.1-3.4,0.2-5,0.2c-1.8,0-3-0.2-4-0.7c-0.6-0.4-1.1-0.8-1.4-0.8c-0.4,0-1.1,0.9-1.7,1.8l-1.4-1.9c0.5-0.5,1.2-1,1.7-1.3
				V391h-1.5v-1.9h3.5V394.7z M18.5,388.2c-0.5-0.6-1.6-1.5-2.5-2.1l1.3-1.3c0.9,0.5,2.1,1.3,2.6,2L18.5,388.2z M24,391.5
				c0,0.6,0,1.4,0.1,1.9c-2.7,0.6-3.3,0.9-3.7,1.1c-0.1-0.4-0.6-1.2-0.9-1.5c0.4-0.2,0.9-0.8,0.9-1.6v-5.8c1-0.4,2-0.9,2.7-1.5
				l1.1,1.2v-0.5h5v7.4c0,0.8-0.1,1.3-0.6,1.6c-0.5,0.3-1.1,0.3-2,0.3c-0.1-0.4-0.2-1.1-0.5-1.5v2.8h-1.9v-9.6
				c-0.6,0.3-1.2,0.5-1.8,0.8v5.1L24,391.5z M26.1,386.7v5.8c0.4,0,0.8,0,0.9,0c0.2,0,0.2-0.1,0.2-0.2v-5.6H26.1z"/>
			<path class="st0" d="M45.4,393.3c-0.2,0.8-0.6,1.5-1,2c0.8,0.4,1.6,0.8,2.2,1.1l-1.3,1.6c-0.6-0.4-1.5-0.9-2.5-1.3
				c-1.1,0.6-2.7,1-4.7,1.3c-0.1-0.6-0.5-1.3-0.8-1.8c1.4-0.1,2.4-0.2,3.3-0.5c-0.9-0.4-1.7-0.7-2.5-0.9c0.3-0.4,0.7-1,1.1-1.5h-1.6
				v-1.1c-0.4,0.1-0.8,0.2-1.2,0.3v3.2c0,0.9-0.1,1.5-0.6,1.8c-0.5,0.3-1.2,0.4-2.1,0.4c0-0.5-0.3-1.4-0.5-2c0.5,0,1,0,1.1,0
				c0.2,0,0.2-0.1,0.2-0.2v-2.6l-1.2,0.3l-0.4-2c0.5-0.1,1-0.2,1.6-0.4v-2.3h-1.4v-1.9h1.4v-2.7h1.9v2.7h1.1v1.9h-1.1v1.8l0.9-0.2
				l0.2,1.7v-0.4h2.6c0.2-0.4,0.4-0.8,0.5-1.1h-2.9v-1.8h1.9c-0.1-0.4-0.3-0.9-0.6-1.3l0.8-0.3h-1.7v-1.8h3
				c-0.1-0.3-0.2-0.5-0.4-0.8l2-0.3c0.2,0.3,0.4,0.7,0.5,1h3.1v1.8h-2.2l1.1,0.3c-0.3,0.5-0.5,0.9-0.7,1.3h2.1v1.8h-5.1l1.2,0.2
				c-0.1,0.3-0.3,0.6-0.4,0.9H47v1.8H45.4z M41,387.1c0.2,0.4,0.5,0.9,0.6,1.3l-0.7,0.3h1.7c0.2-0.5,0.5-1.1,0.7-1.6H41z
				 M41.5,393.3c-0.1,0.2-0.3,0.5-0.4,0.7c0.5,0.2,1,0.4,1.5,0.6c0.3-0.4,0.5-0.8,0.7-1.2H41.5z"/>
			<path class="st0" d="M59.3,385c-0.1,0.2-0.3,0.3-0.4,0.5c1.5,1.1,3.7,2.3,5.7,3c-0.5,0.5-1.2,1.4-1.6,1.9
				c-1.8-0.8-3.8-2.1-5.4-3.5c-1.7,1.5-3.8,2.7-5.7,3.6c-0.3-0.6-1-1.4-1.5-1.9c2.6-1,5.5-2.6,7.1-4.6L59.3,385z M63.2,391.6
				c-1.1,1.2-2.4,2.5-3.8,3.8c0.5,0.3,1,0.6,1.4,0.9l-1.6,1.9c-1.1-0.9-3.6-2.3-5.3-3.2l1.5-1.6c0.6,0.3,1.3,0.7,2.1,1
				c0.5-0.5,1.1-1.1,1.6-1.6h-6.9v-2.1h5c-0.5-0.5-1.1-1.2-1.6-1.7l1.5-1.3c0.7,0.6,1.6,1.4,2.1,2l-1.1,1h3.2l0.4-0.1L63.2,391.6z"
				/>
			<path class="st0" d="M72.5,390.7c0.6,0.6,1.8,2,2.1,2.4l-1.2,1.8c-0.2-0.4-0.6-1-0.9-1.6v4.8h-2.1v-4.5c-0.5,1.1-1.1,2.2-1.7,2.9
				c-0.2-0.6-0.7-1.5-1.1-2c0.9-1,1.8-2.6,2.3-4h-2v-2h2.5v-1.6c-0.6,0.1-1.3,0.2-1.9,0.3c-0.1-0.5-0.4-1.2-0.6-1.7
				c1.9-0.3,3.9-0.7,5.3-1.3l1.4,1.7c-0.6,0.2-1.3,0.4-2.1,0.6v2h1.9v2h-1.9V390.7z M80.9,385.5v11.7h-2.2v-1h-1.8v1.1h-2.1v-11.8
				H80.9z M78.7,394.1v-6.6h-1.8v6.6H78.7z"/>
			<path class="st0" d="M90.6,393.9l0.2,1.8c-1.9,0.6-3.9,1.3-5.5,1.8l-0.5-2l0.5-0.1v-4.8H87v4.4l0.5-0.1v-5.2h-1.9v-5h5v5h-1.3
				v1.3h1.4v1.8h-1.4v1.5L90.6,393.9z M87.2,387.9h1.4v-1.4h-1.4V387.9z M99,386.6c-0.7,0.5-1.3,1-1.8,1.4c0.5,0.7,1.2,1.2,2,1.5
				c-0.4,0.4-1,1.2-1.3,1.7c-0.9-0.6-1.6-1.3-2.1-2.3v0.7c0,0.8-0.1,1.3-0.6,1.6c-0.5,0.3-1.1,0.3-2,0.3c-0.1-0.5-0.2-1.1-0.4-1.6
				c-0.4,0.6-0.9,1-1.4,1.4c-0.2-0.4-0.7-1.1-1.1-1.4c0.8-0.5,1.3-1.3,1.6-2.4h-1.1v-1.8h1.8l0.3,0l1,0.3v-1.9h1.9v1
				c0.1,0.5,0.3,1,0.5,1.4c0.4-0.4,0.8-0.9,1.1-1.3L99,386.6z M91.3,391.7h7.1v6.3h-2.1v-0.4h-3v0.5h-1.9V391.7z M93.8,387.2
				c-0.2,1-0.6,1.9-1,2.6c0.3,0,0.7,0,0.8,0c0.1,0,0.2,0,0.2-0.2V387.2z M93.2,393.4v0.5h3v-0.5H93.2z M96.2,395.9v-0.5h-3v0.5H96.2
				z"/>
			<path class="st0" d="M113.3,391.1c0.8,0.8,1.9,1.5,3,1.9c-0.5,0.4-1.1,1.2-1.5,1.8c-0.5-0.2-1-0.5-1.5-0.8v4.1h-2.3v-0.6h-3.9
				v0.6H105v-4.2c-0.4,0.3-0.8,0.6-1.3,0.8c-0.3-0.6-1-1.4-1.5-1.8c1-0.5,1.9-1.2,2.6-1.9h-2.3v-1.8h3.7c0.1-0.1,0.2-0.3,0.3-0.5
				h-2.7v-1.7h3.4c0-0.1,0.1-0.3,0.1-0.4h-4V385h4.4c0-0.3,0.1-0.6,0.1-0.9l2.3,0.2c0,0.2-0.1,0.4-0.1,0.6h5.1v1.8h-5.5l-0.1,0.4
				h5.2v1.7H109c-0.1,0.1-0.1,0.3-0.2,0.5h7.3v1.8H113.3z M111.1,393.2h-3.9v0.5h3.9V393.2z M111.1,395.7v-0.5h-3.9v0.5H111.1z
				 M107.7,391.1c-0.1,0.2-0.2,0.3-0.3,0.5h3.8c-0.1-0.1-0.2-0.3-0.3-0.5H107.7z"/>
			<path class="st0" d="M127.7,393.4c-0.4,2.7-1.3,4.1-7.2,4.7c-0.1-0.5-0.6-1.3-0.9-1.8c5.2-0.3,5.7-1.1,5.9-2.9H127.7z
				 M133.1,385.8v3.3h-2.2v-1.5h-8.8v1.5h-2.1v-3.3h1.9c-0.2-0.4-0.4-0.7-0.7-1l1.8-0.8c0.5,0.5,1,1.3,1.2,1.8h1v-1.9h2.2v1.9h1.3
				c0.3-0.6,0.7-1.3,0.9-1.9l2.3,0.6c-0.3,0.4-0.6,0.9-0.9,1.2H133.1z M129.9,395.5c1.2,0.4,2.4,0.8,3.1,1.2l-1.4,1.4
				c-1.1-0.6-3-1.3-4.9-1.8l1.1-1.3c0.5,0.1,1.1,0.3,1.6,0.5V393h-6v2.6h-2v-4.2h10.1v4.1H129.9z M130.7,388.1v3h-8.2v-3H130.7z
				 M128.5,389.3h-4.1v0.5h4.1V389.3z"/>
			<path class="st0" d="M142.8,389c-0.3,0.7-0.7,1.3-1.2,2v7.1h-2.2v-4.5c-0.2,0.2-0.5,0.5-0.7,0.7c-0.4-0.4-1.2-1.2-1.7-1.5
				c1.5-1,2.9-2.7,3.7-4.4L142.8,389z M140.5,387.3h-3.1v-2h3.1v-1.2h2.2v1.2h2.7v-1.2h2.2v1.2h3v2h-3v1h-2.2v-1h-2.7v1h-2.2V387.3z
				 M148.3,395.8c0.5,0,0.6-0.3,0.7-2.1c0.5,0.4,1.4,0.7,2,0.9c-0.2,2.5-0.8,3.3-2.5,3.3h-1.9c-2,0-2.5-0.7-2.5-2.8v-0.9
				c-0.5,0.2-1,0.4-1.5,0.6c-0.1-0.5-0.5-1.2-0.8-1.6c0.8-0.3,1.5-0.6,2.3-1v-3.4h2.2v2.2c1-0.6,1.9-1.1,2.7-1.7l1.5,1.7
				c-1.2,0.8-2.7,1.5-4.1,2.2v1.8c0,0.7,0.1,0.7,0.6,0.7H148.3z"/>
			<path class="st0" d="M163.2,385c-0.2,0.2-0.3,0.4-0.5,0.7c2,1.7,3.8,2.6,5.6,3.2c-0.5,0.5-1.2,1.3-1.5,2c-0.7-0.3-1.3-0.6-2-1v1
				h-7.3v-0.7c-0.6,0.4-1.2,0.7-1.8,1c-0.4-0.6-1-1.4-1.6-2c2.7-1,5.5-2.8,7.1-5.1L163.2,385z M156.5,391.8h9.7v6.2H164v-0.5h-5.3
				v0.5h-2.2V391.8z M158.7,393.6v1.9h5.3v-1.9H158.7z M163.4,388.8c-0.6-0.5-1.3-1-2-1.7c-0.6,0.6-1.3,1.2-1.9,1.7H163.4z"/>
			<path class="st0" d="M181.6,395c1.2,0.5,2.6,1,3.9,1.3c-0.4,0.4-1,1.2-1.3,1.7c-1.6-0.4-3.3-1.2-4.7-2.2v2.2h-2.1v-2.2
				c-1.4,0.9-3.2,1.7-4.8,2.1c-0.3-0.5-0.9-1.3-1.3-1.7c1.4-0.3,2.9-0.7,4.2-1.3h-3.6v-1.7h5.6v-0.6h2.1v0.6h5.6v1.7H181.6z
				 M173.4,388.9c-0.2,0.1-0.3,0.3-0.5,0.4c-0.3-0.5-1-1.1-1.5-1.4c1.6-1.1,2.8-2.6,3.5-3.8l2.2,0.4c-0.2,0.3-0.4,0.6-0.6,0.9h1.8
				c-0.1-0.3-0.2-0.6-0.3-0.9l1.9-0.5c0.2,0.4,0.5,1,0.6,1.4h4v1.6h-4.3v0.4h3.7v1.3h-3.7v0.4h3.7v1.3h-3.7v0.4h4.6v1.6h-9.3v0.4
				h-2.1V388.9z M178.2,387.1h-2.6v0.4h2.6V387.1z M178.2,388.8h-2.6v0.4h2.6V388.8z M178.2,390.6h-2.6v0.4h2.6V390.6z"/>
			<path class="st0" d="M5.4,424.2c-0.7-0.8-1.9-1.7-3.1-2.7c-1.2,1.1-2.6,2-4.2,2.7c1.1,0.4,2.5,0.5,4,0.5c1.6,0,4.3-0.2,6-0.5
				c-0.3,0.7-0.7,2-0.7,2.7c-1.2,0.1-3.7,0.2-5.4,0.2c-2.1,0-3.6-0.2-4.8-0.8c-0.8-0.4-1.4-0.9-1.8-0.9c-0.5,0-1.3,1.2-1.9,2.1
				l-1.7-2.5c0.7-0.7,1.5-1.3,2.2-1.6v-3.5h-1.8v-2.3h4.1v5.7c0.3,0.2,0.7,0.4,1.1,0.6c0.1,0.1,0.2,0.1,0.4,0.2
				c-0.3-0.6-0.9-1.5-1.3-2c1.6-0.5,2.9-1.2,3.9-2.1c-1.2-0.9-2.4-1.8-3.5-2.5l1.7-1.5c1,0.7,2.1,1.5,3.3,2.3
				c0.5-0.7,0.8-1.5,1.1-2.4h-6.6v-2.3h4.2c-0.2-0.6-0.5-1.2-0.7-1.7l2.4-0.7c0.4,0.8,0.9,1.8,1.1,2.5h4.3v2.3h-2
				c-0.5,1.4-1,2.7-1.7,3.8c1.4,1,2.6,2,3.5,2.8L5.4,424.2z M-6.1,412c0.8,0.8,1.9,1.9,2.4,2.6l-2.1,1.5c-0.4-0.8-1.5-2-2.3-2.8
				L-6.1,412z"/>
			<path class="st0" d="M12,418.7l0.9-0.1V413h2.3v5.4l0.7-0.1v-7h2.4v2.4H20v2.2h-1.8v2.3l2-0.2l0.1,2.2c-2.8,0.3-5.8,0.7-8,0.9
				L12,418.7z M12.2,424.7h15.6v2.5H12.2V424.7z M14.2,421.2h11.7v2.4H14.2V421.2z M23.3,420.6c-2.2,0-2.7-0.7-2.7-3.1v-6.2H23v2.8
				c1-0.4,2-0.8,2.7-1.1l1.8,2c-1.4,0.6-3,1-4.5,1.4v1.1c0,0.7,0.1,0.8,0.6,0.8H25c0.5,0,0.6-0.3,0.7-1.9c0.5,0.4,1.5,0.8,2.2,1
				c-0.3,2.5-0.9,3.3-2.7,3.3H23.3z"/>
			<path class="st0" d="M33,413.2h3v10.1H41v2.5H33V413.2z"/>
			<path class="st0" d="M45.2,421c0-3.2,2.3-5.1,4.7-5.1c2.4,0,4.7,1.9,4.7,5.1c0,3.2-2.3,5.1-4.7,5.1
				C47.5,426.1,45.2,424.2,45.2,421z M51.6,421c0-1.6-0.5-2.6-1.6-2.6c-1.1,0-1.6,1-1.6,2.6c0,1.6,0.5,2.6,1.6,2.6
				C51.1,423.6,51.6,422.6,51.6,421z"/>
			<path class="st0" d="M59.1,421c0-3.2,2.4-5.1,5.1-5.1c1.2,0,2.1,0.4,2.8,1l-1.4,1.9c-0.4-0.4-0.8-0.5-1.2-0.5
				c-1.3,0-2.2,1-2.2,2.6c0,1.6,0.9,2.6,2.1,2.6c0.6,0,1.2-0.3,1.7-0.7l1.2,2c-0.9,0.8-2.2,1.1-3.2,1.1
				C61.2,426.1,59.1,424.2,59.1,421z"/>
			<path class="st0" d="M71.2,423.1c0-2,1.6-3.1,5.4-3.5c-0.1-0.8-0.5-1.2-1.5-1.2c-0.8,0-1.6,0.3-2.5,0.8l-1.1-2
				c1.3-0.8,2.6-1.3,4.2-1.3c2.5,0,3.9,1.4,3.9,4.4v5.5h-2.5l-0.2-1h-0.1c-0.8,0.7-1.7,1.2-2.8,1.2
				C72.3,426.1,71.2,424.8,71.2,423.1z M76.6,423v-1.5c-1.9,0.3-2.5,0.8-2.5,1.5c0,0.6,0.4,0.8,1,0.8
				C75.7,423.7,76.1,423.4,76.6,423z"/>
			<path class="st0" d="M85,422.7v-10.4h3v10.5c0,0.6,0.3,0.8,0.5,0.8c0.1,0,0.2,0,0.3,0l0.4,2.2c-0.3,0.1-0.8,0.3-1.5,0.3
				C85.7,426.1,85,424.7,85,422.7z"/>
			<path class="st0" d="M96.2,419.9c-0.7-0.5-2.2-1.3-3.2-1.8l1.3-1.8c0.9,0.4,2.5,1.2,3.3,1.6L96.2,419.9z M93.2,425.6
				c0.9-1.3,2.2-3.3,3.2-5.3l1.8,1.6c-0.9,1.8-1.9,3.6-3,5.3L93.2,425.6z M96.9,415.2c-0.7-0.5-2.1-1.3-3.1-1.9l1.4-1.8
				c0.9,0.5,2.4,1.2,3.1,1.7L96.9,415.2z M104.9,418.6v1.8h3.4v7H106v-0.6h-4.6v0.7h-2.2v-7h3.4v-1.8h-4.3v-2.4h4.3v-1.6
				c-1,0.2-2.1,0.3-3.1,0.4c-0.1-0.6-0.4-1.6-0.7-2.1c2.9-0.3,5.9-0.8,7.8-1.6l1.9,1.9c-1.1,0.4-2.3,0.8-3.6,1v2h4.1v2.4H104.9z
				 M106,422.6h-4.6v1.9h4.6V422.6z"/>
			<path class="st0" d="M128.8,414.9c0,0,0,0.8,0,1.1c-0.2,6.8-0.3,9.4-0.9,10.2c-0.5,0.7-0.9,0.9-1.5,1c-0.6,0.1-1.4,0.1-2.2,0.1
				c-0.1-0.7-0.3-1.6-0.7-2.3c-0.4,0.9-1,1.7-1.7,2.5c-0.4-0.6-1.2-1.5-1.8-1.9c0.4-0.4,0.8-0.9,1.1-1.4l-1.5,0.5
				c0-0.2-0.1-0.4-0.1-0.6c-4,1.1-4.7,1.4-5.3,1.7v-0.1c0,0,0,0.1,0,0.1c-0.1-0.5-0.5-1.6-0.8-2.2c0.4-0.1,0.6-0.5,0.9-1.1
				c0.2-0.5,0.7-2.1,1.1-3.8h-2v-2.2h7.6v2.2h-3.1c-0.3,1.3-0.8,2.6-1.3,3.8l2.2-0.6c-0.2-0.6-0.4-1.3-0.7-1.8l2-0.5
				c0.5,1.1,1.1,2.6,1.4,3.7c0.8-1.7,1.1-3.7,1.2-6h-1.5v-2.4h1.6c0-1,0-2.1,0-3.3h2.4c0,1.1,0,2.2,0,3.3H128.8z M120.6,414.8h-6.7
				v-2.2h6.7V414.8z M125,417.3c-0.2,3-0.5,5.5-1.5,7.6c0.7,0.1,1.3,0.1,1.6,0.1c0.3,0,0.4-0.1,0.6-0.3c0.3-0.4,0.5-2.4,0.6-7.4H125
				z"/>
			<path class="st0" d="M142.6,412.2c1.6,0.9,4.3,1.8,6.7,2.2c-0.5,0.4-1.1,1.3-1.4,1.8c-0.9-0.2-1.9-0.5-2.8-0.8v0.4h-7.8v-0.5
				c-1,0.4-1.9,0.7-2.9,0.9c-0.3-0.5-0.9-1.4-1.3-1.7c3.1-0.7,6.2-1.9,7.8-3.4l1.9,0.9L142.6,412.2z M142.3,423.5h6.4v1.6h-6.4v0.2
				c0,1.1-0.3,1.5-1,1.8c-0.8,0.3-1.7,0.3-3,0.3c-0.1-0.6-0.5-1.4-0.8-1.9c0.7,0,1.7,0,2,0c0.3,0,0.4-0.1,0.4-0.3v-0.2h-6.4v-1.6
				h6.4v-0.4h-5.3v-1.6h5.3v-0.4c-1.5,0-3.1,0.1-4.5,0c0-0.4-0.2-1.1-0.4-1.4c3.4,0.1,7.4-0.1,9.9-0.4h-9.3v-3.2h11v3.2h-1l1.4,1.2
				c-1.3,0.2-2.9,0.4-4.6,0.5v0.5h5.4v1.6h-5.4V423.5z M144.1,417.5h-6.2v0.4h6.2V417.5z M142.8,414.3c-0.6-0.3-1.2-0.6-1.7-1
				c-0.5,0.3-1.1,0.7-1.7,1H142.8z"/>
			<path class="st0" d="M160.4,414.9c-0.2,3-0.7,5.4-1.6,7.3c0.7,0.7,1.4,1.3,1.8,1.9l-1.6,2.1c-0.4-0.5-0.9-1.1-1.5-1.8
				c-0.9,1.2-1.9,2.2-3.2,2.9c-0.3-0.6-1-1.5-1.5-2c1.2-0.6,2.2-1.5,3-2.7c-0.9-0.8-1.8-1.6-2.6-2.2c0.3-1,0.6-2.3,0.9-3.7h-1v-2.3
				h1.4c0.2-1.1,0.3-2.2,0.4-3.3l2.5,0.2c-0.1,1-0.3,2-0.5,3.1h1.5l0.4-0.1L160.4,414.9z M156.5,416.9c-0.2,1-0.4,2-0.7,2.9
				c0.4,0.3,0.7,0.6,1.1,0.8c0.4-1.1,0.7-2.3,1-3.7H156.5z M169.2,420.5H166v4.3c0,1.2-0.2,1.8-1,2.2c-0.8,0.4-1.8,0.4-3.2,0.4
				c-0.1-0.7-0.5-1.7-0.8-2.4c0.8,0,1.8,0,2.1,0c0.3,0,0.4-0.1,0.4-0.3v-4.3H160v-2.3h3.4v-1.4c0.7-0.6,1.3-1.5,1.9-2.3h-4.6v-2.2
				h6.2l0.6-0.1l1.6,1.2c-0.8,1.2-1.9,2.7-3.1,3.8v1.1h3.2V420.5z"/>
			<path class="st0" d="M183.8,416.9c1.7,1.3,4.3,3.3,5.6,4.7l-2.1,1.9c-1-1.2-3-3-4.7-4.4v8.3h-2.7v-7.7c-1.4,1.5-3.1,2.8-5,3.8
				c-0.4-0.7-1.2-1.7-1.7-2.3c3-1.4,5.5-3.8,7-6.3h-6.4v-2.5h14.9v2.5h-5.2c-0.3,0.5-0.6,1-0.9,1.4v1.6L183.8,416.9z"/>
			<path class="st0" d="M197.7,422.2c0.1,0.6,0.3,1.6,0.5,2.1c-2.3,2.1-2.8,2.5-3.1,3c-0.2-0.5-0.9-1.4-1.3-1.8c0.4-0.3,1-1.1,1-2
				v-4.7h-1.5v-2.4h3.6v6.4L197.7,422.2z M196.1,415.8c-0.5-0.8-1.5-2.2-2.4-3.1l1.6-1.3c0.8,0.9,2,2.1,2.5,2.9L196.1,415.8z
				 M209.3,417h-0.9v8c0,1-0.2,1.6-0.8,2c-0.6,0.4-1.4,0.4-2.6,0.4c-0.1-0.6-0.5-1.5-0.8-2.1c0.6,0,1.3,0,1.6,0
				c0.2,0,0.3-0.1,0.3-0.3v-3.2l-1.6,0.5c-0.1-1-0.5-2.5-0.9-3.7v6.6c0,0.9-0.2,1.4-0.7,1.8c-0.5,0.3-1.3,0.4-2.3,0.4
				c-0.1-0.5-0.3-1.4-0.6-1.9c-0.4,0.5-0.8,1-1.3,1.3c-0.3-0.4-1-1.2-1.4-1.6c1-0.8,1.9-1.9,2.5-3.1h-2.2v-2h0.7v-6.9h1.6
				c0.2-0.7,0.3-1.4,0.4-1.9l2.4,0.3c-0.2,0.5-0.5,1.1-0.7,1.6h1.6v5l1.6-0.5c0.4,0.8,0.7,1.9,0.9,2.8V417h-2.2v-2.3h2.2v-3.3h2.2
				v3.3h0.9V417z M201.6,423c-0.4,0.9-1,1.7-1.5,2.4c0.5,0,1.1,0,1.2,0c0.2,0,0.3-0.1,0.3-0.3V423z M201.6,415.6v-0.5h-1.3v0.5
				H201.6z M200.3,417.8h1.3v-0.5h-1.3V417.8z M200.3,420.1h1.3v-0.6h-1.3V420.1z"/>
		</g>
		<g>
			<path class="st1" d="M19.5,394.7c0.2,0.1,0.5,0.3,0.8,0.5c0.9,0.6,2.3,0.6,3.8,0.6c1.4,0,4-0.1,5.5-0.4c-0.2,0.6-0.6,1.6-0.6,2.2
				c-1.2,0.1-3.4,0.2-5,0.2c-1.8,0-3-0.2-4-0.7c-0.6-0.4-1.1-0.8-1.4-0.8c-0.4,0-1.1,0.9-1.7,1.8l-1.4-1.9c0.5-0.5,1.2-1,1.7-1.3
				V391h-1.5v-1.9h3.5V394.7z M18.5,388.2c-0.5-0.6-1.6-1.5-2.5-2.1l1.3-1.3c0.9,0.5,2.1,1.3,2.6,2L18.5,388.2z M24,391.5
				c0,0.6,0,1.4,0.1,1.9c-2.7,0.6-3.3,0.9-3.7,1.1c-0.1-0.4-0.6-1.2-0.9-1.5c0.4-0.2,0.9-0.8,0.9-1.6v-5.8c1-0.4,2-0.9,2.7-1.5
				l1.1,1.2v-0.5h5v7.4c0,0.8-0.1,1.3-0.6,1.6c-0.5,0.3-1.1,0.3-2,0.3c-0.1-0.4-0.2-1.1-0.5-1.5v2.8h-1.9v-9.6
				c-0.6,0.3-1.2,0.5-1.8,0.8v5.1L24,391.5z M26.1,386.7v5.8c0.4,0,0.8,0,0.9,0c0.2,0,0.2-0.1,0.2-0.2v-5.6H26.1z"/>
			<path class="st1" d="M45.4,393.3c-0.2,0.8-0.6,1.5-1,2c0.8,0.4,1.6,0.8,2.2,1.1l-1.3,1.6c-0.6-0.4-1.5-0.9-2.5-1.3
				c-1.1,0.6-2.7,1-4.7,1.3c-0.1-0.6-0.5-1.3-0.8-1.8c1.4-0.1,2.4-0.2,3.3-0.5c-0.9-0.4-1.7-0.7-2.5-0.9c0.3-0.4,0.7-1,1.1-1.5h-1.6
				v-1.1c-0.4,0.1-0.8,0.2-1.2,0.3v3.2c0,0.9-0.1,1.5-0.6,1.8c-0.5,0.3-1.2,0.4-2.1,0.4c0-0.5-0.3-1.4-0.5-2c0.5,0,1,0,1.1,0
				c0.2,0,0.2-0.1,0.2-0.2v-2.6l-1.2,0.3l-0.4-2c0.5-0.1,1-0.2,1.6-0.4v-2.3h-1.4v-1.9h1.4v-2.7h1.9v2.7h1.1v1.9h-1.1v1.8l0.9-0.2
				l0.2,1.7v-0.4h2.6c0.2-0.4,0.4-0.8,0.5-1.1h-2.9v-1.8h1.9c-0.1-0.4-0.3-0.9-0.6-1.3l0.8-0.3h-1.7v-1.8h3
				c-0.1-0.3-0.2-0.5-0.4-0.8l2-0.3c0.2,0.3,0.4,0.7,0.5,1h3.1v1.8h-2.2l1.1,0.3c-0.3,0.5-0.5,0.9-0.7,1.3h2.1v1.8h-5.1l1.2,0.2
				c-0.1,0.3-0.3,0.6-0.4,0.9H47v1.8H45.4z M41,387.1c0.2,0.4,0.5,0.9,0.6,1.3l-0.7,0.3h1.7c0.2-0.5,0.5-1.1,0.7-1.6H41z
				 M41.5,393.3c-0.1,0.2-0.3,0.5-0.4,0.7c0.5,0.2,1,0.4,1.5,0.6c0.3-0.4,0.5-0.8,0.7-1.2H41.5z"/>
			<path class="st1" d="M59.3,385c-0.1,0.2-0.3,0.3-0.4,0.5c1.5,1.1,3.7,2.3,5.7,3c-0.5,0.5-1.2,1.4-1.6,1.9
				c-1.8-0.8-3.8-2.1-5.4-3.5c-1.7,1.5-3.8,2.7-5.7,3.6c-0.3-0.6-1-1.4-1.5-1.9c2.6-1,5.5-2.6,7.1-4.6L59.3,385z M63.2,391.6
				c-1.1,1.2-2.4,2.5-3.8,3.8c0.5,0.3,1,0.6,1.4,0.9l-1.6,1.9c-1.1-0.9-3.6-2.3-5.3-3.2l1.5-1.6c0.6,0.3,1.3,0.7,2.1,1
				c0.5-0.5,1.1-1.1,1.6-1.6h-6.9v-2.1h5c-0.5-0.5-1.1-1.2-1.6-1.7l1.5-1.3c0.7,0.6,1.6,1.4,2.1,2l-1.1,1h3.2l0.4-0.1L63.2,391.6z"
				/>
			<path class="st1" d="M72.5,390.7c0.6,0.6,1.8,2,2.1,2.4l-1.2,1.8c-0.2-0.4-0.6-1-0.9-1.6v4.8h-2.1v-4.5c-0.5,1.1-1.1,2.2-1.7,2.9
				c-0.2-0.6-0.7-1.5-1.1-2c0.9-1,1.8-2.6,2.3-4h-2v-2h2.5v-1.6c-0.6,0.1-1.3,0.2-1.9,0.3c-0.1-0.5-0.4-1.2-0.6-1.7
				c1.9-0.3,3.9-0.7,5.3-1.3l1.4,1.7c-0.6,0.2-1.3,0.4-2.1,0.6v2h1.9v2h-1.9V390.7z M80.9,385.5v11.7h-2.2v-1h-1.8v1.1h-2.1v-11.8
				H80.9z M78.7,394.1v-6.6h-1.8v6.6H78.7z"/>
			<path class="st1" d="M90.6,393.9l0.2,1.8c-1.9,0.6-3.9,1.3-5.5,1.8l-0.5-2l0.5-0.1v-4.8H87v4.4l0.5-0.1v-5.2h-1.9v-5h5v5h-1.3
				v1.3h1.4v1.8h-1.4v1.5L90.6,393.9z M87.2,387.9h1.4v-1.4h-1.4V387.9z M99,386.6c-0.7,0.5-1.3,1-1.8,1.4c0.5,0.7,1.2,1.2,2,1.5
				c-0.4,0.4-1,1.2-1.3,1.7c-0.9-0.6-1.6-1.3-2.1-2.3v0.7c0,0.8-0.1,1.3-0.6,1.6c-0.5,0.3-1.1,0.3-2,0.3c-0.1-0.5-0.2-1.1-0.4-1.6
				c-0.4,0.6-0.9,1-1.4,1.4c-0.2-0.4-0.7-1.1-1.1-1.4c0.8-0.5,1.3-1.3,1.6-2.4h-1.1v-1.8h1.8l0.3,0l1,0.3v-1.9h1.9v1
				c0.1,0.5,0.3,1,0.5,1.4c0.4-0.4,0.8-0.9,1.1-1.3L99,386.6z M91.3,391.7h7.1v6.3h-2.1v-0.4h-3v0.5h-1.9V391.7z M93.8,387.2
				c-0.2,1-0.6,1.9-1,2.6c0.3,0,0.7,0,0.8,0c0.1,0,0.2,0,0.2-0.2V387.2z M93.2,393.4v0.5h3v-0.5H93.2z M96.2,395.9v-0.5h-3v0.5H96.2
				z"/>
			<path class="st1" d="M113.3,391.1c0.8,0.8,1.9,1.5,3,1.9c-0.5,0.4-1.1,1.2-1.5,1.8c-0.5-0.2-1-0.5-1.5-0.8v4.1h-2.3v-0.6h-3.9
				v0.6H105v-4.2c-0.4,0.3-0.8,0.6-1.3,0.8c-0.3-0.6-1-1.4-1.5-1.8c1-0.5,1.9-1.2,2.6-1.9h-2.3v-1.8h3.7c0.1-0.1,0.2-0.3,0.3-0.5
				h-2.7v-1.7h3.4c0-0.1,0.1-0.3,0.1-0.4h-4V385h4.4c0-0.3,0.1-0.6,0.1-0.9l2.3,0.2c0,0.2-0.1,0.4-0.1,0.6h5.1v1.8h-5.5l-0.1,0.4
				h5.2v1.7H109c-0.1,0.1-0.1,0.3-0.2,0.5h7.3v1.8H113.3z M111.1,393.2h-3.9v0.5h3.9V393.2z M111.1,395.7v-0.5h-3.9v0.5H111.1z
				 M107.7,391.1c-0.1,0.2-0.2,0.3-0.3,0.5h3.8c-0.1-0.1-0.2-0.3-0.3-0.5H107.7z"/>
			<path class="st1" d="M127.7,393.4c-0.4,2.7-1.3,4.1-7.2,4.7c-0.1-0.5-0.6-1.3-0.9-1.8c5.2-0.3,5.7-1.1,5.9-2.9H127.7z
				 M133.1,385.8v3.3h-2.2v-1.5h-8.8v1.5h-2.1v-3.3h1.9c-0.2-0.4-0.4-0.7-0.7-1l1.8-0.8c0.5,0.5,1,1.3,1.2,1.8h1v-1.9h2.2v1.9h1.3
				c0.3-0.6,0.7-1.3,0.9-1.9l2.3,0.6c-0.3,0.4-0.6,0.9-0.9,1.2H133.1z M129.9,395.5c1.2,0.4,2.4,0.8,3.1,1.2l-1.4,1.4
				c-1.1-0.6-3-1.3-4.9-1.8l1.1-1.3c0.5,0.1,1.1,0.3,1.6,0.5V393h-6v2.6h-2v-4.2h10.1v4.1H129.9z M130.7,388.1v3h-8.2v-3H130.7z
				 M128.5,389.3h-4.1v0.5h4.1V389.3z"/>
			<path class="st1" d="M142.8,389c-0.3,0.7-0.7,1.3-1.2,2v7.1h-2.2v-4.5c-0.2,0.2-0.5,0.5-0.7,0.7c-0.4-0.4-1.2-1.2-1.7-1.5
				c1.5-1,2.9-2.7,3.7-4.4L142.8,389z M140.5,387.3h-3.1v-2h3.1v-1.2h2.2v1.2h2.7v-1.2h2.2v1.2h3v2h-3v1h-2.2v-1h-2.7v1h-2.2V387.3z
				 M148.3,395.8c0.5,0,0.6-0.3,0.7-2.1c0.5,0.4,1.4,0.7,2,0.9c-0.2,2.5-0.8,3.3-2.5,3.3h-1.9c-2,0-2.5-0.7-2.5-2.8v-0.9
				c-0.5,0.2-1,0.4-1.5,0.6c-0.1-0.5-0.5-1.2-0.8-1.6c0.8-0.3,1.5-0.6,2.3-1v-3.4h2.2v2.2c1-0.6,1.9-1.1,2.7-1.7l1.5,1.7
				c-1.2,0.8-2.7,1.5-4.1,2.2v1.8c0,0.7,0.1,0.7,0.6,0.7H148.3z"/>
			<path class="st1" d="M163.2,385c-0.2,0.2-0.3,0.4-0.5,0.7c2,1.7,3.8,2.6,5.6,3.2c-0.5,0.5-1.2,1.3-1.5,2c-0.7-0.3-1.3-0.6-2-1v1
				h-7.3v-0.7c-0.6,0.4-1.2,0.7-1.8,1c-0.4-0.6-1-1.4-1.6-2c2.7-1,5.5-2.8,7.1-5.1L163.2,385z M156.5,391.8h9.7v6.2H164v-0.5h-5.3
				v0.5h-2.2V391.8z M158.7,393.6v1.9h5.3v-1.9H158.7z M163.4,388.8c-0.6-0.5-1.3-1-2-1.7c-0.6,0.6-1.3,1.2-1.9,1.7H163.4z"/>
			<path class="st1" d="M181.6,395c1.2,0.5,2.6,1,3.9,1.3c-0.4,0.4-1,1.2-1.3,1.7c-1.6-0.4-3.3-1.2-4.7-2.2v2.2h-2.1v-2.2
				c-1.4,0.9-3.2,1.7-4.8,2.1c-0.3-0.5-0.9-1.3-1.3-1.7c1.4-0.3,2.9-0.7,4.2-1.3h-3.6v-1.7h5.6v-0.6h2.1v0.6h5.6v1.7H181.6z
				 M173.4,388.9c-0.2,0.1-0.3,0.3-0.5,0.4c-0.3-0.5-1-1.1-1.5-1.4c1.6-1.1,2.8-2.6,3.5-3.8l2.2,0.4c-0.2,0.3-0.4,0.6-0.6,0.9h1.8
				c-0.1-0.3-0.2-0.6-0.3-0.9l1.9-0.5c0.2,0.4,0.5,1,0.6,1.4h4v1.6h-4.3v0.4h3.7v1.3h-3.7v0.4h3.7v1.3h-3.7v0.4h4.6v1.6h-9.3v0.4
				h-2.1V388.9z M178.2,387.1h-2.6v0.4h2.6V387.1z M178.2,388.8h-2.6v0.4h2.6V388.8z M178.2,390.6h-2.6v0.4h2.6V390.6z"/>
			<path class="st1" d="M5.4,424.2c-0.7-0.8-1.9-1.7-3.1-2.7c-1.2,1.1-2.6,2-4.2,2.7c1.1,0.4,2.5,0.5,4,0.5c1.6,0,4.3-0.2,6-0.5
				c-0.3,0.7-0.7,2-0.7,2.7c-1.2,0.1-3.7,0.2-5.4,0.2c-2.1,0-3.6-0.2-4.8-0.8c-0.8-0.4-1.4-0.9-1.8-0.9c-0.5,0-1.3,1.2-1.9,2.1
				l-1.7-2.5c0.7-0.7,1.5-1.3,2.2-1.6v-3.5h-1.8v-2.3h4.1v5.7c0.3,0.2,0.7,0.4,1.1,0.6c0.1,0.1,0.2,0.1,0.4,0.2
				c-0.3-0.6-0.9-1.5-1.3-2c1.6-0.5,2.9-1.2,3.9-2.1c-1.2-0.9-2.4-1.8-3.5-2.5l1.7-1.5c1,0.7,2.1,1.5,3.3,2.3
				c0.5-0.7,0.8-1.5,1.1-2.4h-6.6v-2.3h4.2c-0.2-0.6-0.5-1.2-0.7-1.7l2.4-0.7c0.4,0.8,0.9,1.8,1.1,2.5h4.3v2.3h-2
				c-0.5,1.4-1,2.7-1.7,3.8c1.4,1,2.6,2,3.5,2.8L5.4,424.2z M-6.1,412c0.8,0.8,1.9,1.9,2.4,2.6l-2.1,1.5c-0.4-0.8-1.5-2-2.3-2.8
				L-6.1,412z"/>
			<path class="st1" d="M12,418.7l0.9-0.1V413h2.3v5.4l0.7-0.1v-7h2.4v2.4H20v2.2h-1.8v2.3l2-0.2l0.1,2.2c-2.8,0.3-5.8,0.7-8,0.9
				L12,418.7z M12.2,424.7h15.6v2.5H12.2V424.7z M14.2,421.2h11.7v2.4H14.2V421.2z M23.3,420.6c-2.2,0-2.7-0.7-2.7-3.1v-6.2H23v2.8
				c1-0.4,2-0.8,2.7-1.1l1.8,2c-1.4,0.6-3,1-4.5,1.4v1.1c0,0.7,0.1,0.8,0.6,0.8H25c0.5,0,0.6-0.3,0.7-1.9c0.5,0.4,1.5,0.8,2.2,1
				c-0.3,2.5-0.9,3.3-2.7,3.3H23.3z"/>
			<path class="st1" d="M33,413.2h3v10.1H41v2.5H33V413.2z"/>
			<path class="st1" d="M45.2,421c0-3.2,2.3-5.1,4.7-5.1c2.4,0,4.7,1.9,4.7,5.1c0,3.2-2.3,5.1-4.7,5.1
				C47.5,426.1,45.2,424.2,45.2,421z M51.6,421c0-1.6-0.5-2.6-1.6-2.6c-1.1,0-1.6,1-1.6,2.6c0,1.6,0.5,2.6,1.6,2.6
				C51.1,423.6,51.6,422.6,51.6,421z"/>
			<path class="st1" d="M59.1,421c0-3.2,2.4-5.1,5.1-5.1c1.2,0,2.1,0.4,2.8,1l-1.4,1.9c-0.4-0.4-0.8-0.5-1.2-0.5
				c-1.3,0-2.2,1-2.2,2.6c0,1.6,0.9,2.6,2.1,2.6c0.6,0,1.2-0.3,1.7-0.7l1.2,2c-0.9,0.8-2.2,1.1-3.2,1.1
				C61.2,426.1,59.1,424.2,59.1,421z"/>
			<path class="st1" d="M71.2,423.1c0-2,1.6-3.1,5.4-3.5c-0.1-0.8-0.5-1.2-1.5-1.2c-0.8,0-1.6,0.3-2.5,0.8l-1.1-2
				c1.3-0.8,2.6-1.3,4.2-1.3c2.5,0,3.9,1.4,3.9,4.4v5.5h-2.5l-0.2-1h-0.1c-0.8,0.7-1.7,1.2-2.8,1.2
				C72.3,426.1,71.2,424.8,71.2,423.1z M76.6,423v-1.5c-1.9,0.3-2.5,0.8-2.5,1.5c0,0.6,0.4,0.8,1,0.8
				C75.7,423.7,76.1,423.4,76.6,423z"/>
			<path class="st1" d="M85,422.7v-10.4h3v10.5c0,0.6,0.3,0.8,0.5,0.8c0.1,0,0.2,0,0.3,0l0.4,2.2c-0.3,0.1-0.8,0.3-1.5,0.3
				C85.7,426.1,85,424.7,85,422.7z"/>
			<path class="st1" d="M96.2,419.9c-0.7-0.5-2.2-1.3-3.2-1.8l1.3-1.8c0.9,0.4,2.5,1.2,3.3,1.6L96.2,419.9z M93.2,425.6
				c0.9-1.3,2.2-3.3,3.2-5.3l1.8,1.6c-0.9,1.8-1.9,3.6-3,5.3L93.2,425.6z M96.9,415.2c-0.7-0.5-2.1-1.3-3.1-1.9l1.4-1.8
				c0.9,0.5,2.4,1.2,3.1,1.7L96.9,415.2z M104.9,418.6v1.8h3.4v7H106v-0.6h-4.6v0.7h-2.2v-7h3.4v-1.8h-4.3v-2.4h4.3v-1.6
				c-1,0.2-2.1,0.3-3.1,0.4c-0.1-0.6-0.4-1.6-0.7-2.1c2.9-0.3,5.9-0.8,7.8-1.6l1.9,1.9c-1.1,0.4-2.3,0.8-3.6,1v2h4.1v2.4H104.9z
				 M106,422.6h-4.6v1.9h4.6V422.6z"/>
			<path class="st1" d="M128.8,414.9c0,0,0,0.8,0,1.1c-0.2,6.8-0.3,9.4-0.9,10.2c-0.5,0.7-0.9,0.9-1.5,1c-0.6,0.1-1.4,0.1-2.2,0.1
				c-0.1-0.7-0.3-1.6-0.7-2.3c-0.4,0.9-1,1.7-1.7,2.5c-0.4-0.6-1.2-1.5-1.8-1.9c0.4-0.4,0.8-0.9,1.1-1.4l-1.5,0.5
				c0-0.2-0.1-0.4-0.1-0.6c-4,1.1-4.7,1.4-5.3,1.7v-0.1c0,0,0,0.1,0,0.1c-0.1-0.5-0.5-1.6-0.8-2.2c0.4-0.1,0.6-0.5,0.9-1.1
				c0.2-0.5,0.7-2.1,1.1-3.8h-2v-2.2h7.6v2.2h-3.1c-0.3,1.3-0.8,2.6-1.3,3.8l2.2-0.6c-0.2-0.6-0.4-1.3-0.7-1.8l2-0.5
				c0.5,1.1,1.1,2.6,1.4,3.7c0.8-1.7,1.1-3.7,1.2-6h-1.5v-2.4h1.6c0-1,0-2.1,0-3.3h2.4c0,1.1,0,2.2,0,3.3H128.8z M120.6,414.8h-6.7
				v-2.2h6.7V414.8z M125,417.3c-0.2,3-0.5,5.5-1.5,7.6c0.7,0.1,1.3,0.1,1.6,0.1c0.3,0,0.4-0.1,0.6-0.3c0.3-0.4,0.5-2.4,0.6-7.4H125
				z"/>
			<path class="st1" d="M142.6,412.2c1.6,0.9,4.3,1.8,6.7,2.2c-0.5,0.4-1.1,1.3-1.4,1.8c-0.9-0.2-1.9-0.5-2.8-0.8v0.4h-7.8v-0.5
				c-1,0.4-1.9,0.7-2.9,0.9c-0.3-0.5-0.9-1.4-1.3-1.7c3.1-0.7,6.2-1.9,7.8-3.4l1.9,0.9L142.6,412.2z M142.3,423.5h6.4v1.6h-6.4v0.2
				c0,1.1-0.3,1.5-1,1.8c-0.8,0.3-1.7,0.3-3,0.3c-0.1-0.6-0.5-1.4-0.8-1.9c0.7,0,1.7,0,2,0c0.3,0,0.4-0.1,0.4-0.3v-0.2h-6.4v-1.6
				h6.4v-0.4h-5.3v-1.6h5.3v-0.4c-1.5,0-3.1,0.1-4.5,0c0-0.4-0.2-1.1-0.4-1.4c3.4,0.1,7.4-0.1,9.9-0.4h-9.3v-3.2h11v3.2h-1l1.4,1.2
				c-1.3,0.2-2.9,0.4-4.6,0.5v0.5h5.4v1.6h-5.4V423.5z M144.1,417.5h-6.2v0.4h6.2V417.5z M142.8,414.3c-0.6-0.3-1.2-0.6-1.7-1
				c-0.5,0.3-1.1,0.7-1.7,1H142.8z"/>
			<path class="st1" d="M160.4,414.9c-0.2,3-0.7,5.4-1.6,7.3c0.7,0.7,1.4,1.3,1.8,1.9l-1.6,2.1c-0.4-0.5-0.9-1.1-1.5-1.8
				c-0.9,1.2-1.9,2.2-3.2,2.9c-0.3-0.6-1-1.5-1.5-2c1.2-0.6,2.2-1.5,3-2.7c-0.9-0.8-1.8-1.6-2.6-2.2c0.3-1,0.6-2.3,0.9-3.7h-1v-2.3
				h1.4c0.2-1.1,0.3-2.2,0.4-3.3l2.5,0.2c-0.1,1-0.3,2-0.5,3.1h1.5l0.4-0.1L160.4,414.9z M156.5,416.9c-0.2,1-0.4,2-0.7,2.9
				c0.4,0.3,0.7,0.6,1.1,0.8c0.4-1.1,0.7-2.3,1-3.7H156.5z M169.2,420.5H166v4.3c0,1.2-0.2,1.8-1,2.2c-0.8,0.4-1.8,0.4-3.2,0.4
				c-0.1-0.7-0.5-1.7-0.8-2.4c0.8,0,1.8,0,2.1,0c0.3,0,0.4-0.1,0.4-0.3v-4.3H160v-2.3h3.4v-1.4c0.7-0.6,1.3-1.5,1.9-2.3h-4.6v-2.2
				h6.2l0.6-0.1l1.6,1.2c-0.8,1.2-1.9,2.7-3.1,3.8v1.1h3.2V420.5z"/>
			<path class="st1" d="M183.8,416.9c1.7,1.3,4.3,3.3,5.6,4.7l-2.1,1.9c-1-1.2-3-3-4.7-4.4v8.3h-2.7v-7.7c-1.4,1.5-3.1,2.8-5,3.8
				c-0.4-0.7-1.2-1.7-1.7-2.3c3-1.4,5.5-3.8,7-6.3h-6.4v-2.5h14.9v2.5h-5.2c-0.3,0.5-0.6,1-0.9,1.4v1.6L183.8,416.9z"/>
			<path class="st1" d="M197.7,422.2c0.1,0.6,0.3,1.6,0.5,2.1c-2.3,2.1-2.8,2.5-3.1,3c-0.2-0.5-0.9-1.4-1.3-1.8c0.4-0.3,1-1.1,1-2
				v-4.7h-1.5v-2.4h3.6v6.4L197.7,422.2z M196.1,415.8c-0.5-0.8-1.5-2.2-2.4-3.1l1.6-1.3c0.8,0.9,2,2.1,2.5,2.9L196.1,415.8z
				 M209.3,417h-0.9v8c0,1-0.2,1.6-0.8,2c-0.6,0.4-1.4,0.4-2.6,0.4c-0.1-0.6-0.5-1.5-0.8-2.1c0.6,0,1.3,0,1.6,0
				c0.2,0,0.3-0.1,0.3-0.3v-3.2l-1.6,0.5c-0.1-1-0.5-2.5-0.9-3.7v6.6c0,0.9-0.2,1.4-0.7,1.8c-0.5,0.3-1.3,0.4-2.3,0.4
				c-0.1-0.5-0.3-1.4-0.6-1.9c-0.4,0.5-0.8,1-1.3,1.3c-0.3-0.4-1-1.2-1.4-1.6c1-0.8,1.9-1.9,2.5-3.1h-2.2v-2h0.7v-6.9h1.6
				c0.2-0.7,0.3-1.4,0.4-1.9l2.4,0.3c-0.2,0.5-0.5,1.1-0.7,1.6h1.6v5l1.6-0.5c0.4,0.8,0.7,1.9,0.9,2.8V417h-2.2v-2.3h2.2v-3.3h2.2
				v3.3h0.9V417z M201.6,423c-0.4,0.9-1,1.7-1.5,2.4c0.5,0,1.1,0,1.2,0c0.2,0,0.3-0.1,0.3-0.3V423z M201.6,415.6v-0.5h-1.3v0.5
				H201.6z M200.3,417.8h1.3v-0.5h-1.3V417.8z M200.3,420.1h1.3v-0.6h-1.3V420.1z"/>
		</g>
		<g>
			<path class="st0" d="M19.5,394.7c0.2,0.1,0.5,0.3,0.8,0.5c0.9,0.6,2.3,0.6,3.8,0.6c1.4,0,4-0.1,5.5-0.4c-0.2,0.6-0.6,1.6-0.6,2.2
				c-1.2,0.1-3.4,0.2-5,0.2c-1.8,0-3-0.2-4-0.7c-0.6-0.4-1.1-0.8-1.4-0.8c-0.4,0-1.1,0.9-1.7,1.8l-1.4-1.9c0.5-0.5,1.2-1,1.7-1.3
				V391h-1.5v-1.9h3.5V394.7z M18.5,388.2c-0.5-0.6-1.6-1.5-2.5-2.1l1.3-1.3c0.9,0.5,2.1,1.3,2.6,2L18.5,388.2z M24,391.5
				c0,0.6,0,1.4,0.1,1.9c-2.7,0.6-3.3,0.9-3.7,1.1c-0.1-0.4-0.6-1.2-0.9-1.5c0.4-0.2,0.9-0.8,0.9-1.6v-5.8c1-0.4,2-0.9,2.7-1.5
				l1.1,1.2v-0.5h5v7.4c0,0.8-0.1,1.3-0.6,1.6c-0.5,0.3-1.1,0.3-2,0.3c-0.1-0.4-0.2-1.1-0.5-1.5v2.8h-1.9v-9.6
				c-0.6,0.3-1.2,0.5-1.8,0.8v5.1L24,391.5z M26.1,386.7v5.8c0.4,0,0.8,0,0.9,0c0.2,0,0.2-0.1,0.2-0.2v-5.6H26.1z"/>
			<path class="st0" d="M45.4,393.3c-0.2,0.8-0.6,1.5-1,2c0.8,0.4,1.6,0.8,2.2,1.1l-1.3,1.6c-0.6-0.4-1.5-0.9-2.5-1.3
				c-1.1,0.6-2.7,1-4.7,1.3c-0.1-0.6-0.5-1.3-0.8-1.8c1.4-0.1,2.4-0.2,3.3-0.5c-0.9-0.4-1.7-0.7-2.5-0.9c0.3-0.4,0.7-1,1.1-1.5h-1.6
				v-1.1c-0.4,0.1-0.8,0.2-1.2,0.3v3.2c0,0.9-0.1,1.5-0.6,1.8c-0.5,0.3-1.2,0.4-2.1,0.4c0-0.5-0.3-1.4-0.5-2c0.5,0,1,0,1.1,0
				c0.2,0,0.2-0.1,0.2-0.2v-2.6l-1.2,0.3l-0.4-2c0.5-0.1,1-0.2,1.6-0.4v-2.3h-1.4v-1.9h1.4v-2.7h1.9v2.7h1.1v1.9h-1.1v1.8l0.9-0.2
				l0.2,1.7v-0.4h2.6c0.2-0.4,0.4-0.8,0.5-1.1h-2.9v-1.8h1.9c-0.1-0.4-0.3-0.9-0.6-1.3l0.8-0.3h-1.7v-1.8h3
				c-0.1-0.3-0.2-0.5-0.4-0.8l2-0.3c0.2,0.3,0.4,0.7,0.5,1h3.1v1.8h-2.2l1.1,0.3c-0.3,0.5-0.5,0.9-0.7,1.3h2.1v1.8h-5.1l1.2,0.2
				c-0.1,0.3-0.3,0.6-0.4,0.9H47v1.8H45.4z M41,387.1c0.2,0.4,0.5,0.9,0.6,1.3l-0.7,0.3h1.7c0.2-0.5,0.5-1.1,0.7-1.6H41z
				 M41.5,393.3c-0.1,0.2-0.3,0.5-0.4,0.7c0.5,0.2,1,0.4,1.5,0.6c0.3-0.4,0.5-0.8,0.7-1.2H41.5z"/>
			<path class="st0" d="M59.3,385c-0.1,0.2-0.3,0.3-0.4,0.5c1.5,1.1,3.7,2.3,5.7,3c-0.5,0.5-1.2,1.4-1.6,1.9
				c-1.8-0.8-3.8-2.1-5.4-3.5c-1.7,1.5-3.8,2.7-5.7,3.6c-0.3-0.6-1-1.4-1.5-1.9c2.6-1,5.5-2.6,7.1-4.6L59.3,385z M63.2,391.6
				c-1.1,1.2-2.4,2.5-3.8,3.8c0.5,0.3,1,0.6,1.4,0.9l-1.6,1.9c-1.1-0.9-3.6-2.3-5.3-3.2l1.5-1.6c0.6,0.3,1.3,0.7,2.1,1
				c0.5-0.5,1.1-1.1,1.6-1.6h-6.9v-2.1h5c-0.5-0.5-1.1-1.2-1.6-1.7l1.5-1.3c0.7,0.6,1.6,1.4,2.1,2l-1.1,1h3.2l0.4-0.1L63.2,391.6z"
				/>
			<path class="st0" d="M72.5,390.7c0.6,0.6,1.8,2,2.1,2.4l-1.2,1.8c-0.2-0.4-0.6-1-0.9-1.6v4.8h-2.1v-4.5c-0.5,1.1-1.1,2.2-1.7,2.9
				c-0.2-0.6-0.7-1.5-1.1-2c0.9-1,1.8-2.6,2.3-4h-2v-2h2.5v-1.6c-0.6,0.1-1.3,0.2-1.9,0.3c-0.1-0.5-0.4-1.2-0.6-1.7
				c1.9-0.3,3.9-0.7,5.3-1.3l1.4,1.7c-0.6,0.2-1.3,0.4-2.1,0.6v2h1.9v2h-1.9V390.7z M80.9,385.5v11.7h-2.2v-1h-1.8v1.1h-2.1v-11.8
				H80.9z M78.7,394.1v-6.6h-1.8v6.6H78.7z"/>
			<path class="st0" d="M90.6,393.9l0.2,1.8c-1.9,0.6-3.9,1.3-5.5,1.8l-0.5-2l0.5-0.1v-4.8H87v4.4l0.5-0.1v-5.2h-1.9v-5h5v5h-1.3
				v1.3h1.4v1.8h-1.4v1.5L90.6,393.9z M87.2,387.9h1.4v-1.4h-1.4V387.9z M99,386.6c-0.7,0.5-1.3,1-1.8,1.4c0.5,0.7,1.2,1.2,2,1.5
				c-0.4,0.4-1,1.2-1.3,1.7c-0.9-0.6-1.6-1.3-2.1-2.3v0.7c0,0.8-0.1,1.3-0.6,1.6c-0.5,0.3-1.1,0.3-2,0.3c-0.1-0.5-0.2-1.1-0.4-1.6
				c-0.4,0.6-0.9,1-1.4,1.4c-0.2-0.4-0.7-1.1-1.1-1.4c0.8-0.5,1.3-1.3,1.6-2.4h-1.1v-1.8h1.8l0.3,0l1,0.3v-1.9h1.9v1
				c0.1,0.5,0.3,1,0.5,1.4c0.4-0.4,0.8-0.9,1.1-1.3L99,386.6z M91.3,391.7h7.1v6.3h-2.1v-0.4h-3v0.5h-1.9V391.7z M93.8,387.2
				c-0.2,1-0.6,1.9-1,2.6c0.3,0,0.7,0,0.8,0c0.1,0,0.2,0,0.2-0.2V387.2z M93.2,393.4v0.5h3v-0.5H93.2z M96.2,395.9v-0.5h-3v0.5H96.2
				z"/>
			<path class="st0" d="M113.3,391.1c0.8,0.8,1.9,1.5,3,1.9c-0.5,0.4-1.1,1.2-1.5,1.8c-0.5-0.2-1-0.5-1.5-0.8v4.1h-2.3v-0.6h-3.9
				v0.6H105v-4.2c-0.4,0.3-0.8,0.6-1.3,0.8c-0.3-0.6-1-1.4-1.5-1.8c1-0.5,1.9-1.2,2.6-1.9h-2.3v-1.8h3.7c0.1-0.1,0.2-0.3,0.3-0.5
				h-2.7v-1.7h3.4c0-0.1,0.1-0.3,0.1-0.4h-4V385h4.4c0-0.3,0.1-0.6,0.1-0.9l2.3,0.2c0,0.2-0.1,0.4-0.1,0.6h5.1v1.8h-5.5l-0.1,0.4
				h5.2v1.7H109c-0.1,0.1-0.1,0.3-0.2,0.5h7.3v1.8H113.3z M111.1,393.2h-3.9v0.5h3.9V393.2z M111.1,395.7v-0.5h-3.9v0.5H111.1z
				 M107.7,391.1c-0.1,0.2-0.2,0.3-0.3,0.5h3.8c-0.1-0.1-0.2-0.3-0.3-0.5H107.7z"/>
			<path class="st0" d="M127.7,393.4c-0.4,2.7-1.3,4.1-7.2,4.7c-0.1-0.5-0.6-1.3-0.9-1.8c5.2-0.3,5.7-1.1,5.9-2.9H127.7z
				 M133.1,385.8v3.3h-2.2v-1.5h-8.8v1.5h-2.1v-3.3h1.9c-0.2-0.4-0.4-0.7-0.7-1l1.8-0.8c0.5,0.5,1,1.3,1.2,1.8h1v-1.9h2.2v1.9h1.3
				c0.3-0.6,0.7-1.3,0.9-1.9l2.3,0.6c-0.3,0.4-0.6,0.9-0.9,1.2H133.1z M129.9,395.5c1.2,0.4,2.4,0.8,3.1,1.2l-1.4,1.4
				c-1.1-0.6-3-1.3-4.9-1.8l1.1-1.3c0.5,0.1,1.1,0.3,1.6,0.5V393h-6v2.6h-2v-4.2h10.1v4.1H129.9z M130.7,388.1v3h-8.2v-3H130.7z
				 M128.5,389.3h-4.1v0.5h4.1V389.3z"/>
			<path class="st0" d="M142.8,389c-0.3,0.7-0.7,1.3-1.2,2v7.1h-2.2v-4.5c-0.2,0.2-0.5,0.5-0.7,0.7c-0.4-0.4-1.2-1.2-1.7-1.5
				c1.5-1,2.9-2.7,3.7-4.4L142.8,389z M140.5,387.3h-3.1v-2h3.1v-1.2h2.2v1.2h2.7v-1.2h2.2v1.2h3v2h-3v1h-2.2v-1h-2.7v1h-2.2V387.3z
				 M148.3,395.8c0.5,0,0.6-0.3,0.7-2.1c0.5,0.4,1.4,0.7,2,0.9c-0.2,2.5-0.8,3.3-2.5,3.3h-1.9c-2,0-2.5-0.7-2.5-2.8v-0.9
				c-0.5,0.2-1,0.4-1.5,0.6c-0.1-0.5-0.5-1.2-0.8-1.6c0.8-0.3,1.5-0.6,2.3-1v-3.4h2.2v2.2c1-0.6,1.9-1.1,2.7-1.7l1.5,1.7
				c-1.2,0.8-2.7,1.5-4.1,2.2v1.8c0,0.7,0.1,0.7,0.6,0.7H148.3z"/>
			<path class="st0" d="M163.2,385c-0.2,0.2-0.3,0.4-0.5,0.7c2,1.7,3.8,2.6,5.6,3.2c-0.5,0.5-1.2,1.3-1.5,2c-0.7-0.3-1.3-0.6-2-1v1
				h-7.3v-0.7c-0.6,0.4-1.2,0.7-1.8,1c-0.4-0.6-1-1.4-1.6-2c2.7-1,5.5-2.8,7.1-5.1L163.2,385z M156.5,391.8h9.7v6.2H164v-0.5h-5.3
				v0.5h-2.2V391.8z M158.7,393.6v1.9h5.3v-1.9H158.7z M163.4,388.8c-0.6-0.5-1.3-1-2-1.7c-0.6,0.6-1.3,1.2-1.9,1.7H163.4z"/>
			<path class="st0" d="M181.6,395c1.2,0.5,2.6,1,3.9,1.3c-0.4,0.4-1,1.2-1.3,1.7c-1.6-0.4-3.3-1.2-4.7-2.2v2.2h-2.1v-2.2
				c-1.4,0.9-3.2,1.7-4.8,2.1c-0.3-0.5-0.9-1.3-1.3-1.7c1.4-0.3,2.9-0.7,4.2-1.3h-3.6v-1.7h5.6v-0.6h2.1v0.6h5.6v1.7H181.6z
				 M173.4,388.9c-0.2,0.1-0.3,0.3-0.5,0.4c-0.3-0.5-1-1.1-1.5-1.4c1.6-1.1,2.8-2.6,3.5-3.8l2.2,0.4c-0.2,0.3-0.4,0.6-0.6,0.9h1.8
				c-0.1-0.3-0.2-0.6-0.3-0.9l1.9-0.5c0.2,0.4,0.5,1,0.6,1.4h4v1.6h-4.3v0.4h3.7v1.3h-3.7v0.4h3.7v1.3h-3.7v0.4h4.6v1.6h-9.3v0.4
				h-2.1V388.9z M178.2,387.1h-2.6v0.4h2.6V387.1z M178.2,388.8h-2.6v0.4h2.6V388.8z M178.2,390.6h-2.6v0.4h2.6V390.6z"/>
			<path class="st0" d="M5.4,424.2c-0.7-0.8-1.9-1.7-3.1-2.7c-1.2,1.1-2.6,2-4.2,2.7c1.1,0.4,2.5,0.5,4,0.5c1.6,0,4.3-0.2,6-0.5
				c-0.3,0.7-0.7,2-0.7,2.7c-1.2,0.1-3.7,0.2-5.4,0.2c-2.1,0-3.6-0.2-4.8-0.8c-0.8-0.4-1.4-0.9-1.8-0.9c-0.5,0-1.3,1.2-1.9,2.1
				l-1.7-2.5c0.7-0.7,1.5-1.3,2.2-1.6v-3.5h-1.8v-2.3h4.1v5.7c0.3,0.2,0.7,0.4,1.1,0.6c0.1,0.1,0.2,0.1,0.4,0.2
				c-0.3-0.6-0.9-1.5-1.3-2c1.6-0.5,2.9-1.2,3.9-2.1c-1.2-0.9-2.4-1.8-3.5-2.5l1.7-1.5c1,0.7,2.1,1.5,3.3,2.3
				c0.5-0.7,0.8-1.5,1.1-2.4h-6.6v-2.3h4.2c-0.2-0.6-0.5-1.2-0.7-1.7l2.4-0.7c0.4,0.8,0.9,1.8,1.1,2.5h4.3v2.3h-2
				c-0.5,1.4-1,2.7-1.7,3.8c1.4,1,2.6,2,3.5,2.8L5.4,424.2z M-6.1,412c0.8,0.8,1.9,1.9,2.4,2.6l-2.1,1.5c-0.4-0.8-1.5-2-2.3-2.8
				L-6.1,412z"/>
			<path class="st0" d="M12,418.7l0.9-0.1V413h2.3v5.4l0.7-0.1v-7h2.4v2.4H20v2.2h-1.8v2.3l2-0.2l0.1,2.2c-2.8,0.3-5.8,0.7-8,0.9
				L12,418.7z M12.2,424.7h15.6v2.5H12.2V424.7z M14.2,421.2h11.7v2.4H14.2V421.2z M23.3,420.6c-2.2,0-2.7-0.7-2.7-3.1v-6.2H23v2.8
				c1-0.4,2-0.8,2.7-1.1l1.8,2c-1.4,0.6-3,1-4.5,1.4v1.1c0,0.7,0.1,0.8,0.6,0.8H25c0.5,0,0.6-0.3,0.7-1.9c0.5,0.4,1.5,0.8,2.2,1
				c-0.3,2.5-0.9,3.3-2.7,3.3H23.3z"/>
			<path class="st0" d="M33,413.2h3v10.1H41v2.5H33V413.2z"/>
			<path class="st0" d="M45.2,421c0-3.2,2.3-5.1,4.7-5.1c2.4,0,4.7,1.9,4.7,5.1c0,3.2-2.3,5.1-4.7,5.1
				C47.5,426.1,45.2,424.2,45.2,421z M51.6,421c0-1.6-0.5-2.6-1.6-2.6c-1.1,0-1.6,1-1.6,2.6c0,1.6,0.5,2.6,1.6,2.6
				C51.1,423.6,51.6,422.6,51.6,421z"/>
			<path class="st0" d="M59.1,421c0-3.2,2.4-5.1,5.1-5.1c1.2,0,2.1,0.4,2.8,1l-1.4,1.9c-0.4-0.4-0.8-0.5-1.2-0.5
				c-1.3,0-2.2,1-2.2,2.6c0,1.6,0.9,2.6,2.1,2.6c0.6,0,1.2-0.3,1.7-0.7l1.2,2c-0.9,0.8-2.2,1.1-3.2,1.1
				C61.2,426.1,59.1,424.2,59.1,421z"/>
			<path class="st0" d="M71.2,423.1c0-2,1.6-3.1,5.4-3.5c-0.1-0.8-0.5-1.2-1.5-1.2c-0.8,0-1.6,0.3-2.5,0.8l-1.1-2
				c1.3-0.8,2.6-1.3,4.2-1.3c2.5,0,3.9,1.4,3.9,4.4v5.5h-2.5l-0.2-1h-0.1c-0.8,0.7-1.7,1.2-2.8,1.2
				C72.3,426.1,71.2,424.8,71.2,423.1z M76.6,423v-1.5c-1.9,0.3-2.5,0.8-2.5,1.5c0,0.6,0.4,0.8,1,0.8
				C75.7,423.7,76.1,423.4,76.6,423z"/>
			<path class="st0" d="M85,422.7v-10.4h3v10.5c0,0.6,0.3,0.8,0.5,0.8c0.1,0,0.2,0,0.3,0l0.4,2.2c-0.3,0.1-0.8,0.3-1.5,0.3
				C85.7,426.1,85,424.7,85,422.7z"/>
			<path class="st0" d="M96.2,419.9c-0.7-0.5-2.2-1.3-3.2-1.8l1.3-1.8c0.9,0.4,2.5,1.2,3.3,1.6L96.2,419.9z M93.2,425.6
				c0.9-1.3,2.2-3.3,3.2-5.3l1.8,1.6c-0.9,1.8-1.9,3.6-3,5.3L93.2,425.6z M96.9,415.2c-0.7-0.5-2.1-1.3-3.1-1.9l1.4-1.8
				c0.9,0.5,2.4,1.2,3.1,1.7L96.9,415.2z M104.9,418.6v1.8h3.4v7H106v-0.6h-4.6v0.7h-2.2v-7h3.4v-1.8h-4.3v-2.4h4.3v-1.6
				c-1,0.2-2.1,0.3-3.1,0.4c-0.1-0.6-0.4-1.6-0.7-2.1c2.9-0.3,5.9-0.8,7.8-1.6l1.9,1.9c-1.1,0.4-2.3,0.8-3.6,1v2h4.1v2.4H104.9z
				 M106,422.6h-4.6v1.9h4.6V422.6z"/>
			<path class="st0" d="M128.8,414.9c0,0,0,0.8,0,1.1c-0.2,6.8-0.3,9.4-0.9,10.2c-0.5,0.7-0.9,0.9-1.5,1c-0.6,0.1-1.4,0.1-2.2,0.1
				c-0.1-0.7-0.3-1.6-0.7-2.3c-0.4,0.9-1,1.7-1.7,2.5c-0.4-0.6-1.2-1.5-1.8-1.9c0.4-0.4,0.8-0.9,1.1-1.4l-1.5,0.5
				c0-0.2-0.1-0.4-0.1-0.6c-4,1.1-4.7,1.4-5.3,1.7v-0.1c0,0,0,0.1,0,0.1c-0.1-0.5-0.5-1.6-0.8-2.2c0.4-0.1,0.6-0.5,0.9-1.1
				c0.2-0.5,0.7-2.1,1.1-3.8h-2v-2.2h7.6v2.2h-3.1c-0.3,1.3-0.8,2.6-1.3,3.8l2.2-0.6c-0.2-0.6-0.4-1.3-0.7-1.8l2-0.5
				c0.5,1.1,1.1,2.6,1.4,3.7c0.8-1.7,1.1-3.7,1.2-6h-1.5v-2.4h1.6c0-1,0-2.1,0-3.3h2.4c0,1.1,0,2.2,0,3.3H128.8z M120.6,414.8h-6.7
				v-2.2h6.7V414.8z M125,417.3c-0.2,3-0.5,5.5-1.5,7.6c0.7,0.1,1.3,0.1,1.6,0.1c0.3,0,0.4-0.1,0.6-0.3c0.3-0.4,0.5-2.4,0.6-7.4H125
				z"/>
			<path class="st0" d="M142.6,412.2c1.6,0.9,4.3,1.8,6.7,2.2c-0.5,0.4-1.1,1.3-1.4,1.8c-0.9-0.2-1.9-0.5-2.8-0.8v0.4h-7.8v-0.5
				c-1,0.4-1.9,0.7-2.9,0.9c-0.3-0.5-0.9-1.4-1.3-1.7c3.1-0.7,6.2-1.9,7.8-3.4l1.9,0.9L142.6,412.2z M142.3,423.5h6.4v1.6h-6.4v0.2
				c0,1.1-0.3,1.5-1,1.8c-0.8,0.3-1.7,0.3-3,0.3c-0.1-0.6-0.5-1.4-0.8-1.9c0.7,0,1.7,0,2,0c0.3,0,0.4-0.1,0.4-0.3v-0.2h-6.4v-1.6
				h6.4v-0.4h-5.3v-1.6h5.3v-0.4c-1.5,0-3.1,0.1-4.5,0c0-0.4-0.2-1.1-0.4-1.4c3.4,0.1,7.4-0.1,9.9-0.4h-9.3v-3.2h11v3.2h-1l1.4,1.2
				c-1.3,0.2-2.9,0.4-4.6,0.5v0.5h5.4v1.6h-5.4V423.5z M144.1,417.5h-6.2v0.4h6.2V417.5z M142.8,414.3c-0.6-0.3-1.2-0.6-1.7-1
				c-0.5,0.3-1.1,0.7-1.7,1H142.8z"/>
			<path class="st0" d="M160.4,414.9c-0.2,3-0.7,5.4-1.6,7.3c0.7,0.7,1.4,1.3,1.8,1.9l-1.6,2.1c-0.4-0.5-0.9-1.1-1.5-1.8
				c-0.9,1.2-1.9,2.2-3.2,2.9c-0.3-0.6-1-1.5-1.5-2c1.2-0.6,2.2-1.5,3-2.7c-0.9-0.8-1.8-1.6-2.6-2.2c0.3-1,0.6-2.3,0.9-3.7h-1v-2.3
				h1.4c0.2-1.1,0.3-2.2,0.4-3.3l2.5,0.2c-0.1,1-0.3,2-0.5,3.1h1.5l0.4-0.1L160.4,414.9z M156.5,416.9c-0.2,1-0.4,2-0.7,2.9
				c0.4,0.3,0.7,0.6,1.1,0.8c0.4-1.1,0.7-2.3,1-3.7H156.5z M169.2,420.5H166v4.3c0,1.2-0.2,1.8-1,2.2c-0.8,0.4-1.8,0.4-3.2,0.4
				c-0.1-0.7-0.5-1.7-0.8-2.4c0.8,0,1.8,0,2.1,0c0.3,0,0.4-0.1,0.4-0.3v-4.3H160v-2.3h3.4v-1.4c0.7-0.6,1.3-1.5,1.9-2.3h-4.6v-2.2
				h6.2l0.6-0.1l1.6,1.2c-0.8,1.2-1.9,2.7-3.1,3.8v1.1h3.2V420.5z"/>
			<path class="st0" d="M183.8,416.9c1.7,1.3,4.3,3.3,5.6,4.7l-2.1,1.9c-1-1.2-3-3-4.7-4.4v8.3h-2.7v-7.7c-1.4,1.5-3.1,2.8-5,3.8
				c-0.4-0.7-1.2-1.7-1.7-2.3c3-1.4,5.5-3.8,7-6.3h-6.4v-2.5h14.9v2.5h-5.2c-0.3,0.5-0.6,1-0.9,1.4v1.6L183.8,416.9z"/>
			<path class="st0" d="M197.7,422.2c0.1,0.6,0.3,1.6,0.5,2.1c-2.3,2.1-2.8,2.5-3.1,3c-0.2-0.5-0.9-1.4-1.3-1.8c0.4-0.3,1-1.1,1-2
				v-4.7h-1.5v-2.4h3.6v6.4L197.7,422.2z M196.1,415.8c-0.5-0.8-1.5-2.2-2.4-3.1l1.6-1.3c0.8,0.9,2,2.1,2.5,2.9L196.1,415.8z
				 M209.3,417h-0.9v8c0,1-0.2,1.6-0.8,2c-0.6,0.4-1.4,0.4-2.6,0.4c-0.1-0.6-0.5-1.5-0.8-2.1c0.6,0,1.3,0,1.6,0
				c0.2,0,0.3-0.1,0.3-0.3v-3.2l-1.6,0.5c-0.1-1-0.5-2.5-0.9-3.7v6.6c0,0.9-0.2,1.4-0.7,1.8c-0.5,0.3-1.3,0.4-2.3,0.4
				c-0.1-0.5-0.3-1.4-0.6-1.9c-0.4,0.5-0.8,1-1.3,1.3c-0.3-0.4-1-1.2-1.4-1.6c1-0.8,1.9-1.9,2.5-3.1h-2.2v-2h0.7v-6.9h1.6
				c0.2-0.7,0.3-1.4,0.4-1.9l2.4,0.3c-0.2,0.5-0.5,1.1-0.7,1.6h1.6v5l1.6-0.5c0.4,0.8,0.7,1.9,0.9,2.8V417h-2.2v-2.3h2.2v-3.3h2.2
				v3.3h0.9V417z M201.6,423c-0.4,0.9-1,1.7-1.5,2.4c0.5,0,1.1,0,1.2,0c0.2,0,0.3-0.1,0.3-0.3V423z M201.6,415.6v-0.5h-1.3v0.5
				H201.6z M200.3,417.8h1.3v-0.5h-1.3V417.8z M200.3,420.1h1.3v-0.6h-1.3V420.1z"/>
		</g>
	</g>
	<line id="XMLID_233_" class="st2" x1="-62" y1="408.4" x2="-15" y2="408.4"/>
	<line id="XMLID_232_" class="st3" x1="-50" y1="398.9" x2="5" y2="398.9"/>
	<line id="XMLID_231_" class="st2" x1="-37" y1="387.4" x2="-1" y2="387.4"/>
</g>
</svg>
