<?xml version="1.0" encoding="utf-8"?>
<!-- Generator: Adobe Illustrator 19.0.0, SVG Export Plug-In . SVG Version: 6.00 Build 0)  -->
<svg version="1.1" id="图层_1" xmlns="http://www.w3.org/2000/svg" xmlns:xlink="http://www.w3.org/1999/xlink" x="0px" y="0px"
	 viewBox="-110 364.8 374.7 87" style="enable-background:new -110 364.8 374.7 87;" xml:space="preserve">
<style type="text/css">
	.st0{fill:#FFFFFF;}
	.st1{fill:none;stroke:#231815;stroke-width:4.2032;stroke-linejoin:round;stroke-miterlimit:10;}
	.st2{fill:none;stroke:#000000;stroke-miterlimit:10;}
	.st3{opacity:0.74;fill:none;stroke:#000000;stroke-width:2;stroke-miterlimit:10;}
</style>
<g id="XMLID_229_">
	<rect id="XMLID_277_" x="-31.4" y="420.3" class="st0" width="239.4" height="20.1"/>
	<g>
		<g>
			<path class="st0" d="M41.8,395.7c0.5,0,0.6-0.3,0.7-2.1c0.5,0.4,1.6,0.8,2.3,1c-0.3,2.7-0.9,3.4-2.7,3.4h-2c-2.3,0-2.9-0.8-2.9-3
				v-2.9h-2c-0.2,3.3-1,5.2-5.9,6.1c-0.2-0.7-0.8-1.7-1.3-2.2c4-0.6,4.4-1.6,4.6-3.9h-4.2v-2.4h16.1v2.4h-4.6v2.9
				c0,0.6,0.1,0.7,0.6,0.7H41.8z M31.2,387.8h-2.6v-4.7H35c-0.1-0.4-0.3-0.8-0.5-1.2l2.7-0.8c0.3,0.6,0.6,1.3,0.9,1.9h6.1v4.7h-2.7
				v-2.3H31.2V387.8z M31.8,388.9v-2.4h9v2.4H31.8z"/>
			<path class="st0" d="M60.3,394.2c1.2,1,3.1,1.6,5.9,1.7c-0.6,0.6-1.2,1.7-1.6,2.4c-3.6-0.4-5.7-1.5-7.1-3.6c-1,1.7-3,2.9-7.3,3.6
				c-0.2-0.7-0.8-1.8-1.3-2.3c3-0.4,4.6-0.9,5.5-1.7H50v-2.3h5.7c0-0.2,0.1-0.4,0.1-0.7h-6.4V389h6.7v-0.6H51v-2.2h5.2v-0.6h-5.9
				v-2.3h2.9c-0.2-0.4-0.5-0.9-0.8-1.3l2.3-0.9c0.5,0.6,1,1.4,1.2,2l-0.5,0.2h3.5c0.4-0.7,0.9-1.5,1.1-2.2l2.8,0.7
				c-0.4,0.6-0.7,1.1-1.1,1.5h3v2.3h-6v0.6h5.4v2.2h-5.4v0.6h7v2.2h-7.3c0,0.2-0.1,0.4-0.1,0.7h6.9v2.3H60.3z"/>
			<path class="st0" d="M74,393.9c0.4,0.2,0.9,0.5,1.7,0.7c1.3,0.5,3.1,0.6,5,0.6c1.7,0,4.6-0.2,6.4-0.5c-0.3,0.7-0.7,2-0.8,2.7
				c-1.1,0.1-3.9,0.2-5.7,0.2c-2.2,0-3.9-0.2-5.4-0.8c-0.9-0.4-1.6-0.8-2.1-0.8c-0.5,0-1.1,1.2-1.5,2l-1.6-2.6
				c0.5-0.5,1.1-0.9,1.6-1.2v-3.7h-1.5v-2.3H74v3.1c0.9-2,1-4.5,1-6.3V382h5.2v5.5H77c0,0.4-0.1,0.7-0.1,1.1h3.4v5.9h-4.4v-2.1
				c-0.2,0.5-0.5,1-0.8,1.4c-0.2-0.3-0.7-0.8-1.2-1.2V393.9z M72.3,386.7c-0.4-1-1.4-2.5-2.3-3.5l2.1-1.2c0.9,1,2,2.4,2.4,3.4
				L72.3,386.7z M77.2,383.9v1.2v0.5H78v-1.7H77.2z M77.6,392.6h0.8v-2.3h-0.8V392.6z M82.6,389.6h-2.1v-2h1.1
				c-0.1-0.6-0.3-1.4-0.5-2l1.4-0.4h-1.9v-2h1.9c-0.1-0.5-0.3-0.9-0.5-1.4l2-0.6c0.3,0.6,0.6,1.3,0.8,1.9h1.8v2h-1.9l1.7,0.4
				c-0.3,0.7-0.6,1.4-0.9,1.9h1.2v2h-1.9v0.9h1.8v2h-1.8v2.3h-2.3v-2.3h-1.9v-2h1.9V389.6z M83,385.3c0.2,0.6,0.5,1.4,0.5,1.9
				l-1.6,0.4h1.9c0.3-0.7,0.6-1.6,0.7-2.3H83z"/>
			<path class="st0" d="M107.8,391.2h-3.5v7.1h-2.7v-7.1h-3.7c-0.4,2.6-1.4,5.3-4.4,7.2c-0.5-0.6-1.5-1.5-2.1-1.9
				c2.4-1.4,3.4-3.3,3.8-5.2h-3.7v-2.5h3.9v-0.4v-3.6H92v-2.4h15.3v2.4h-3v4h3.5V391.2z M101.6,388.7v-4H98v3.6v0.4H101.6z"/>
			<path class="st0" d="M121.9,381.3c0,0.8-0.1,1.8-0.1,3c0.3,2.5,1.4,8.8,7.6,11.6c-0.8,0.6-1.5,1.5-1.9,2.2
				c-3.7-1.8-5.7-4.9-6.8-7.8c-1,2.9-2.9,5.9-6.3,8c-0.5-0.7-1.3-1.5-2.2-2.1c7.2-4,6.7-11.6,6.8-14.8H121.9z"/>
			<path class="st0" d="M136.6,390.3c-0.7-0.6-2.2-1.4-3.4-1.9l1.3-2c1.1,0.4,2.7,1.1,3.5,1.7L136.6,390.3z M138.8,392.5
				c-0.9,1.9-2,3.8-3.1,5.6l-2.2-1.7c0.9-1.3,2.3-3.5,3.4-5.6L138.8,392.5z M137.3,385.4c-0.7-0.6-2.2-1.5-3.3-2l1.4-1.9
				c1.1,0.4,2.7,1.2,3.4,1.8l0,0.1h4.3c-0.1-0.5-0.3-1.1-0.5-1.5l2.4-0.6c0.3,0.6,0.6,1.5,0.8,2.1h4v2.3h-2c0.9,1.1,1.9,2.3,2.5,3.2
				l-2.1,1.3c-0.2-0.3-0.4-0.7-0.6-1.1c-6.4,0.4-7.4,0.5-8.2,0.8c-0.1-0.6-0.4-1.8-0.6-2.4c0.4-0.1,1.1-0.3,1.6-0.6
				c0.2-0.2,0.7-0.7,1.1-1.3h-2.8v-2.2L137.3,385.4z M139.8,390.3h2.3v1.6c0,1.9-0.3,4.5-2.7,6.2c-0.4-0.5-1.2-1.3-1.8-1.7
				c2-1.4,2.2-3.2,2.2-4.6V390.3z M142.8,390.3h2.2v7.2h-2.2V390.3z M146,387.1c-0.2-0.3-0.4-0.6-0.6-0.8l1.1-0.6h-2.1
				c-0.4,0.5-0.8,1.1-1.2,1.6L146,387.1z M148.3,395.9c0.1,0,0.1,0,0.1-0.1c0.1-0.1,0.1-0.2,0.1-0.4c0-0.3,0-0.9,0.1-1.7
				c0.4,0.4,1.2,0.7,1.7,0.9c0,0.8-0.1,1.7-0.2,2.1c-0.1,0.4-0.3,0.7-0.7,0.9c-0.3,0.2-0.7,0.3-1.1,0.3h-1c-0.5,0-1-0.2-1.3-0.5
				c-0.3-0.4-0.5-0.8-0.5-2.1v-5.1h2.4v5.1c0,0.2,0,0.4,0,0.4c0,0.1,0.1,0.1,0.1,0.1H148.3z"/>
			<path class="st0" d="M-9.1,428.6c-1.7,2-4.1,4.1-6.3,5.5c-0.6-0.6-1.8-1.6-2.5-2.1c2.1-1.2,4.4-3.1,5.6-4.6L-9.1,428.6z
				 M-1,415.9v10.2h-14.9v-10.2H-1z M-12.8,423.3h8.6v-4.5h-8.6V423.3z M-4.5,427.3c1.8,1.4,4.3,3.5,5.5,4.9l-2.9,1.8
				c-1.1-1.4-3.4-3.6-5.2-5.1L-4.5,427.3z"/>
			<path class="st0" d="M14.2,419.6c-0.2,0.4-0.4,0.8-0.6,1.2H23v10.1c0,1.4-0.2,2.2-1.2,2.6c-0.9,0.5-2.1,0.5-3.7,0.5
				c-0.1-0.8-0.5-2.1-0.9-2.9c0.9,0.1,2.1,0.1,2.4,0.1s0.5-0.1,0.5-0.4v-0.7h-6.8v3.9h-3v-8.5c-0.7,0.7-1.5,1.4-2.3,2
				c-0.5-0.7-1.4-1.8-2-2.3c2.1-1.3,3.7-3.3,4.9-5.6H6.6v-2.8H12c0.3-0.8,0.5-1.6,0.7-2.4l3.1,0.7c-0.2,0.6-0.4,1.1-0.6,1.7h9.9v2.8
				H14.2z M20,423.4h-6.8v0.9H20V423.4z M20,427.7v-0.9h-6.8v0.9H20z"/>
			<path class="st0" d="M37.1,426c-0.6,0.1-1.2,0.3-1.8,0.5v4.2c0,1.3-0.2,2.1-0.9,2.6s-1.7,0.6-3.1,0.6c-0.1-0.8-0.4-2-0.8-2.9
				c0.6,0,1.3,0,1.6,0c0.2,0,0.3-0.1,0.3-0.3v-3.6l-1.6,0.4l-0.6-2.9c0.6-0.1,1.4-0.2,2.2-0.4V421h-1.9v-2.8h1.9v-3.8h2.8v3.8h1.5
				v2.8h-1.5v2.6l1.4-0.3L37.1,426z M49.7,418.2h-3.2l1.4,0.3c-0.3,0.6-0.5,1.1-0.8,1.5h2.3v11.1c0,1.2-0.2,1.9-1,2.4
				c-0.8,0.4-1.8,0.5-3.1,0.5c-0.1-0.7-0.5-1.9-0.8-2.6c0.7,0,1.5,0,1.8,0c0.3,0,0.4-0.1,0.4-0.4v-8.7h-2v1.2h1.8v2h-1.8v1h1.3v4.3
				h-3.1v0.7h-2v-4.9h1.4v-1h-1.7v-2h1.7v-1.2h-2.1V434h-2.8v-14h2.1c-0.1-0.5-0.3-1.1-0.4-1.5l1.2-0.3h-3v-2.4h4.8
				c-0.1-0.3-0.2-0.7-0.4-1l2.6-0.8c0.3,0.5,0.6,1.2,0.7,1.7h4.7V418.2z M44.5,420c0.2-0.6,0.5-1.3,0.6-1.8h-3.2
				c0.2,0.5,0.4,1.1,0.5,1.5l-1.2,0.3H44.5z M43.8,428.3h-1v0.7h1V428.3z"/>
			<path class="st0" d="M74,431.2h-7.9v2.8h-3v-2.8h-7.7v-2.7h7.7v-0.8h-5.8v-8.3h14.8v8.3h-6v0.8H74V431.2z M59.6,418h-4.1v-2.6
				h4.1v-1h2.9v1h4.3v-1h2.9v1H74v2.6h-4.2v1.1h-2.9V418h-4.3v1.1h-2.9V418z M60.2,422.5H69v-0.8h-8.9V422.5z M60.2,425.5H69v-0.8
				h-8.9V425.5z"/>
			<path class="st0" d="M91.5,418.8V418h-4.8v0.8h-1.1l-0.2,0.4h12.7v2.3h-14c-0.1,0.2-0.2,0.4-0.4,0.5h12.6c0,0,0,0.8,0,1.1
				c0,0.8-0.1,1.6-0.1,2.3h2.3v2.3h-2.4c0,0.5-0.1,1-0.1,1.5h1.9v2.1h-2.2c-0.1,0.7-0.3,1.1-0.5,1.4c-0.5,0.7-1.1,0.9-1.8,1
				c-0.6,0.1-1.6,0.1-2.6,0.1c0-0.6-0.3-1.6-0.7-2.2c0.8,0.1,1.5,0.1,1.9,0.1c0.3,0,0.5-0.1,0.7-0.3l0,0H82c0.1-1,0.3-2.3,0.4-3.6
				h-2.8v-2.3h3c0.1-0.8,0.1-1.5,0.1-2.3c-0.4,0.5-0.9,1-1.4,1.4c-0.5-0.6-1.5-1.5-2.1-1.9c1.8-1.3,2.9-3,3.6-4.5l1.1,0.2V418h-4.2
				v-2.5h4.2v-1.1h2.9v1.1h4.8v-1.1h2.9v1.1h4.1v2.5h-4.1v0.8H91.5z M85.3,427.9c-0.1,0.5-0.1,1-0.1,1.5h3.7c-0.5-0.4-1.1-0.7-1.6-1
				l0.5-0.5H85.3z M85.6,424.2l-0.1,1.3h3.3c-0.4-0.3-0.9-0.6-1.3-0.8l0.5-0.5H85.6z M93.2,429.3c0-0.4,0.1-0.9,0.1-1.5h-2.7
				c0.3,0.2,0.6,0.5,0.9,0.7l-0.8,0.8H93.2z M93.4,425.5l0.1-1.3h-2.9c0.4,0.2,0.7,0.5,1,0.7l-0.6,0.6H93.4z"/>
			<path class="st0" d="M122.7,421.5h-4.2v8.7c0,1.8-0.4,2.6-1.4,3.1c-1.1,0.5-2.6,0.6-4.6,0.6c-0.1-0.9-0.6-2.3-1-3.2
				c1.2,0.1,2.7,0.1,3.1,0.1c0.4,0,0.6-0.1,0.6-0.5v-7.8c-2.2,3.8-5.5,7.4-9.1,9.6c-0.6-0.9-1.6-2-2.4-2.7c3.3-1.6,6.3-4.6,8.4-7.8
				h-7.6v-3.1h10.8v-4h3.3v4h4.2V421.5z"/>
			<path class="st0" d="M139.6,430.9c0.4,0,0.8,0,1.2,0c1.3,0,5.1,0,6.9-0.1c-0.4,0.7-0.8,2-1,2.9h-6.1c-3.6,0-6.1-0.5-7.9-2.7
				c-0.7,1.2-1.7,2.2-2.7,3c-0.5-0.6-1.6-1.7-2.3-2.1c2.1-1.2,3.3-3.3,3.7-6l3,0.4c-0.1,0.6-0.3,1.2-0.5,1.8
				c0.6,1.1,1.4,1.8,2.5,2.2v-4.7h-7.9v-2.6h18.3v2.6h-7.4v1.1h6.1v2.6h-6.1V430.9z M145.2,422.4h-14.7V415h14.7V422.4z
				 M142.2,417.1h-8.8v0.7h8.8V417.1z M142.2,419.7h-8.8v0.7h8.8V419.7z"/>
			<path class="st0" d="M171.8,430.4v2.9h-19.1v-2.9h2.4v-8.9h3.1v8.9h3.1v-11.8h-7.9v-2.9h17.9v2.9h-6.7v4h5.5v2.9h-5.5v4.9H171.8z
				"/>
			<path class="st0" d="M196.3,428.3h-2.2v3.6h-3.1v-0.8h-3v0.2c0,1.4-0.3,1.9-1.2,2.4c-0.9,0.4-2,0.4-3.8,0.4
				c-0.1-0.7-0.6-1.7-1-2.3c0.8,0,2.1,0,2.4,0c0.4,0,0.5-0.1,0.5-0.5v-0.2H179V429h6.1v-0.6H177v-2.3h8.1v-0.6h-5.9v-2h5.9v-0.6
				h-5.5v-4.4h5.5v-0.6h-7.5v-2.3h7.5v-1.2h3.1v1.2h7.7v2.3h-7.7v0.6h5.7v4.4h-5.7v0.6h6.1v2.5h2.2V428.3z M185,421.1v-0.7h-2.6v0.7
				H185z M188.1,420.4v0.7h2.6v-0.7H188.1z M188.1,426.1h3v-0.6h-3V426.1z M191.1,428.3h-3v0.6h3V428.3z"/>
		</g>
		<g>
			<path class="st1" d="M41.8,395.7c0.5,0,0.6-0.3,0.7-2.1c0.5,0.4,1.6,0.8,2.3,1c-0.3,2.7-0.9,3.4-2.7,3.4h-2c-2.3,0-2.9-0.8-2.9-3
				v-2.9h-2c-0.2,3.3-1,5.2-5.9,6.1c-0.2-0.7-0.8-1.7-1.3-2.2c4-0.6,4.4-1.6,4.6-3.9h-4.2v-2.4h16.1v2.4h-4.6v2.9
				c0,0.6,0.1,0.7,0.6,0.7H41.8z M31.2,387.8h-2.6v-4.7H35c-0.1-0.4-0.3-0.8-0.5-1.2l2.7-0.8c0.3,0.6,0.6,1.3,0.9,1.9h6.1v4.7h-2.7
				v-2.3H31.2V387.8z M31.8,388.9v-2.4h9v2.4H31.8z"/>
			<path class="st1" d="M60.3,394.2c1.2,1,3.1,1.6,5.9,1.7c-0.6,0.6-1.2,1.7-1.6,2.4c-3.6-0.4-5.7-1.5-7.1-3.6c-1,1.7-3,2.9-7.3,3.6
				c-0.2-0.7-0.8-1.8-1.3-2.3c3-0.4,4.6-0.9,5.5-1.7H50v-2.3h5.7c0-0.2,0.1-0.4,0.1-0.7h-6.4V389h6.7v-0.6H51v-2.2h5.2v-0.6h-5.9
				v-2.3h2.9c-0.2-0.4-0.5-0.9-0.8-1.3l2.3-0.9c0.5,0.6,1,1.4,1.2,2l-0.5,0.2h3.5c0.4-0.7,0.9-1.5,1.1-2.2l2.8,0.7
				c-0.4,0.6-0.7,1.1-1.1,1.5h3v2.3h-6v0.6h5.4v2.2h-5.4v0.6h7v2.2h-7.3c0,0.2-0.1,0.4-0.1,0.7h6.9v2.3H60.3z"/>
			<path class="st1" d="M74,393.9c0.4,0.2,0.9,0.5,1.7,0.7c1.3,0.5,3.1,0.6,5,0.6c1.7,0,4.6-0.2,6.4-0.5c-0.3,0.7-0.7,2-0.8,2.7
				c-1.1,0.1-3.9,0.2-5.7,0.2c-2.2,0-3.9-0.2-5.4-0.8c-0.9-0.4-1.6-0.8-2.1-0.8c-0.5,0-1.1,1.2-1.5,2l-1.6-2.6
				c0.5-0.5,1.1-0.9,1.6-1.2v-3.7h-1.5v-2.3H74v3.1c0.9-2,1-4.5,1-6.3V382h5.2v5.5H77c0,0.4-0.1,0.7-0.1,1.1h3.4v5.9h-4.4v-2.1
				c-0.2,0.5-0.5,1-0.8,1.4c-0.2-0.3-0.7-0.8-1.2-1.2V393.9z M72.3,386.7c-0.4-1-1.4-2.5-2.3-3.5l2.1-1.2c0.9,1,2,2.4,2.4,3.4
				L72.3,386.7z M77.2,383.9v1.2v0.5H78v-1.7H77.2z M77.6,392.6h0.8v-2.3h-0.8V392.6z M82.6,389.6h-2.1v-2h1.1
				c-0.1-0.6-0.3-1.4-0.5-2l1.4-0.4h-1.9v-2h1.9c-0.1-0.5-0.3-0.9-0.5-1.4l2-0.6c0.3,0.6,0.6,1.3,0.8,1.9h1.8v2h-1.9l1.7,0.4
				c-0.3,0.7-0.6,1.4-0.9,1.9h1.2v2h-1.9v0.9h1.8v2h-1.8v2.3h-2.3v-2.3h-1.9v-2h1.9V389.6z M83,385.3c0.2,0.6,0.5,1.4,0.5,1.9
				l-1.6,0.4h1.9c0.3-0.7,0.6-1.6,0.7-2.3H83z"/>
			<path class="st1" d="M107.8,391.2h-3.5v7.1h-2.7v-7.1h-3.7c-0.4,2.6-1.4,5.3-4.4,7.2c-0.5-0.6-1.5-1.5-2.1-1.9
				c2.4-1.4,3.4-3.3,3.8-5.2h-3.7v-2.5h3.9v-0.4v-3.6H92v-2.4h15.3v2.4h-3v4h3.5V391.2z M101.6,388.7v-4H98v3.6v0.4H101.6z"/>
			<path class="st1" d="M121.9,381.3c0,0.8-0.1,1.8-0.1,3c0.3,2.5,1.4,8.8,7.6,11.6c-0.8,0.6-1.5,1.5-1.9,2.2
				c-3.7-1.8-5.7-4.9-6.8-7.8c-1,2.9-2.9,5.9-6.3,8c-0.5-0.7-1.3-1.5-2.2-2.1c7.2-4,6.7-11.6,6.8-14.8H121.9z"/>
			<path class="st1" d="M136.6,390.3c-0.7-0.6-2.2-1.4-3.4-1.9l1.3-2c1.1,0.4,2.7,1.1,3.5,1.7L136.6,390.3z M138.8,392.5
				c-0.9,1.9-2,3.8-3.1,5.6l-2.2-1.7c0.9-1.3,2.3-3.5,3.4-5.6L138.8,392.5z M137.3,385.4c-0.7-0.6-2.2-1.5-3.3-2l1.4-1.9
				c1.1,0.4,2.7,1.2,3.4,1.8l0,0.1h4.3c-0.1-0.5-0.3-1.1-0.5-1.5l2.4-0.6c0.3,0.6,0.6,1.5,0.8,2.1h4v2.3h-2c0.9,1.1,1.9,2.3,2.5,3.2
				l-2.1,1.3c-0.2-0.3-0.4-0.7-0.6-1.1c-6.4,0.4-7.4,0.5-8.2,0.8c-0.1-0.6-0.4-1.8-0.6-2.4c0.4-0.1,1.1-0.3,1.6-0.6
				c0.2-0.2,0.7-0.7,1.1-1.3h-2.8v-2.2L137.3,385.4z M139.8,390.3h2.3v1.6c0,1.9-0.3,4.5-2.7,6.2c-0.4-0.5-1.2-1.3-1.8-1.7
				c2-1.4,2.2-3.2,2.2-4.6V390.3z M142.8,390.3h2.2v7.2h-2.2V390.3z M146,387.1c-0.2-0.3-0.4-0.6-0.6-0.8l1.1-0.6h-2.1
				c-0.4,0.5-0.8,1.1-1.2,1.6L146,387.1z M148.3,395.9c0.1,0,0.1,0,0.1-0.1c0.1-0.1,0.1-0.2,0.1-0.4c0-0.3,0-0.9,0.1-1.7
				c0.4,0.4,1.2,0.7,1.7,0.9c0,0.8-0.1,1.7-0.2,2.1c-0.1,0.4-0.3,0.7-0.7,0.9c-0.3,0.2-0.7,0.3-1.1,0.3h-1c-0.5,0-1-0.2-1.3-0.5
				c-0.3-0.4-0.5-0.8-0.5-2.1v-5.1h2.4v5.1c0,0.2,0,0.4,0,0.4c0,0.1,0.1,0.1,0.1,0.1H148.3z"/>
			<path class="st1" d="M-9.1,428.6c-1.7,2-4.1,4.1-6.3,5.5c-0.6-0.6-1.8-1.6-2.5-2.1c2.1-1.2,4.4-3.1,5.6-4.6L-9.1,428.6z
				 M-1,415.9v10.2h-14.9v-10.2H-1z M-12.8,423.3h8.6v-4.5h-8.6V423.3z M-4.5,427.3c1.8,1.4,4.3,3.5,5.5,4.9l-2.9,1.8
				c-1.1-1.4-3.4-3.6-5.2-5.1L-4.5,427.3z"/>
			<path class="st1" d="M14.2,419.6c-0.2,0.4-0.4,0.8-0.6,1.2H23v10.1c0,1.4-0.2,2.2-1.2,2.6c-0.9,0.5-2.1,0.5-3.7,0.5
				c-0.1-0.8-0.5-2.1-0.9-2.9c0.9,0.1,2.1,0.1,2.4,0.1s0.5-0.1,0.5-0.4v-0.7h-6.8v3.9h-3v-8.5c-0.7,0.7-1.5,1.4-2.3,2
				c-0.5-0.7-1.4-1.8-2-2.3c2.1-1.3,3.7-3.3,4.9-5.6H6.6v-2.8H12c0.3-0.8,0.5-1.6,0.7-2.4l3.1,0.7c-0.2,0.6-0.4,1.1-0.6,1.7h9.9v2.8
				H14.2z M20,423.4h-6.8v0.9H20V423.4z M20,427.7v-0.9h-6.8v0.9H20z"/>
			<path class="st1" d="M37.1,426c-0.6,0.1-1.2,0.3-1.8,0.5v4.2c0,1.3-0.2,2.1-0.9,2.6s-1.7,0.6-3.1,0.6c-0.1-0.8-0.4-2-0.8-2.9
				c0.6,0,1.3,0,1.6,0c0.2,0,0.3-0.1,0.3-0.3v-3.6l-1.6,0.4l-0.6-2.9c0.6-0.1,1.4-0.2,2.2-0.4V421h-1.9v-2.8h1.9v-3.8h2.8v3.8h1.5
				v2.8h-1.5v2.6l1.4-0.3L37.1,426z M49.7,418.2h-3.2l1.4,0.3c-0.3,0.6-0.5,1.1-0.8,1.5h2.3v11.1c0,1.2-0.2,1.9-1,2.4
				c-0.8,0.4-1.8,0.5-3.1,0.5c-0.1-0.7-0.5-1.9-0.8-2.6c0.7,0,1.5,0,1.8,0c0.3,0,0.4-0.1,0.4-0.4v-8.7h-2v1.2h1.8v2h-1.8v1h1.3v4.3
				h-3.1v0.7h-2v-4.9h1.4v-1h-1.7v-2h1.7v-1.2h-2.1V434h-2.8v-14h2.1c-0.1-0.5-0.3-1.1-0.4-1.5l1.2-0.3h-3v-2.4h4.8
				c-0.1-0.3-0.2-0.7-0.4-1l2.6-0.8c0.3,0.5,0.6,1.2,0.7,1.7h4.7V418.2z M44.5,420c0.2-0.6,0.5-1.3,0.6-1.8h-3.2
				c0.2,0.5,0.4,1.1,0.5,1.5l-1.2,0.3H44.5z M43.8,428.3h-1v0.7h1V428.3z"/>
			<path class="st1" d="M74,431.2h-7.9v2.8h-3v-2.8h-7.7v-2.7h7.7v-0.8h-5.8v-8.3h14.8v8.3h-6v0.8H74V431.2z M59.6,418h-4.1v-2.6
				h4.1v-1h2.9v1h4.3v-1h2.9v1H74v2.6h-4.2v1.1h-2.9V418h-4.3v1.1h-2.9V418z M60.2,422.5H69v-0.8h-8.9V422.5z M60.2,425.5H69v-0.8
				h-8.9V425.5z"/>
			<path class="st1" d="M91.5,418.8V418h-4.8v0.8h-1.1l-0.2,0.4h12.7v2.3h-14c-0.1,0.2-0.2,0.4-0.4,0.5h12.6c0,0,0,0.8,0,1.1
				c0,0.8-0.1,1.6-0.1,2.3h2.3v2.3h-2.4c0,0.5-0.1,1-0.1,1.5h1.9v2.1h-2.2c-0.1,0.7-0.3,1.1-0.5,1.4c-0.5,0.7-1.1,0.9-1.8,1
				c-0.6,0.1-1.6,0.1-2.6,0.1c0-0.6-0.3-1.6-0.7-2.2c0.8,0.1,1.5,0.1,1.9,0.1c0.3,0,0.5-0.1,0.7-0.3l0,0H82c0.1-1,0.3-2.3,0.4-3.6
				h-2.8v-2.3h3c0.1-0.8,0.1-1.5,0.1-2.3c-0.4,0.5-0.9,1-1.4,1.4c-0.5-0.6-1.5-1.5-2.1-1.9c1.8-1.3,2.9-3,3.6-4.5l1.1,0.2V418h-4.2
				v-2.5h4.2v-1.1h2.9v1.1h4.8v-1.1h2.9v1.1h4.1v2.5h-4.1v0.8H91.5z M85.3,427.9c-0.1,0.5-0.1,1-0.1,1.5h3.7c-0.5-0.4-1.1-0.7-1.6-1
				l0.5-0.5H85.3z M85.6,424.2l-0.1,1.3h3.3c-0.4-0.3-0.9-0.6-1.3-0.8l0.5-0.5H85.6z M93.2,429.3c0-0.4,0.1-0.9,0.1-1.5h-2.7
				c0.3,0.2,0.6,0.5,0.9,0.7l-0.8,0.8H93.2z M93.4,425.5l0.1-1.3h-2.9c0.4,0.2,0.7,0.5,1,0.7l-0.6,0.6H93.4z"/>
			<path class="st1" d="M122.7,421.5h-4.2v8.7c0,1.8-0.4,2.6-1.4,3.1c-1.1,0.5-2.6,0.6-4.6,0.6c-0.1-0.9-0.6-2.3-1-3.2
				c1.2,0.1,2.7,0.1,3.1,0.1c0.4,0,0.6-0.1,0.6-0.5v-7.8c-2.2,3.8-5.5,7.4-9.1,9.6c-0.6-0.9-1.6-2-2.4-2.7c3.3-1.6,6.3-4.6,8.4-7.8
				h-7.6v-3.1h10.8v-4h3.3v4h4.2V421.5z"/>
			<path class="st1" d="M139.6,430.9c0.4,0,0.8,0,1.2,0c1.3,0,5.1,0,6.9-0.1c-0.4,0.7-0.8,2-1,2.9h-6.1c-3.6,0-6.1-0.5-7.9-2.7
				c-0.7,1.2-1.7,2.2-2.7,3c-0.5-0.6-1.6-1.7-2.3-2.1c2.1-1.2,3.3-3.3,3.7-6l3,0.4c-0.1,0.6-0.3,1.2-0.5,1.8
				c0.6,1.1,1.4,1.8,2.5,2.2v-4.7h-7.9v-2.6h18.3v2.6h-7.4v1.1h6.1v2.6h-6.1V430.9z M145.2,422.4h-14.7V415h14.7V422.4z
				 M142.2,417.1h-8.8v0.7h8.8V417.1z M142.2,419.7h-8.8v0.7h8.8V419.7z"/>
			<path class="st1" d="M171.8,430.4v2.9h-19.1v-2.9h2.4v-8.9h3.1v8.9h3.1v-11.8h-7.9v-2.9h17.9v2.9h-6.7v4h5.5v2.9h-5.5v4.9H171.8z
				"/>
			<path class="st1" d="M196.3,428.3h-2.2v3.6h-3.1v-0.8h-3v0.2c0,1.4-0.3,1.9-1.2,2.4c-0.9,0.4-2,0.4-3.8,0.4
				c-0.1-0.7-0.6-1.7-1-2.3c0.8,0,2.1,0,2.4,0c0.4,0,0.5-0.1,0.5-0.5v-0.2H179V429h6.1v-0.6H177v-2.3h8.1v-0.6h-5.9v-2h5.9v-0.6
				h-5.5v-4.4h5.5v-0.6h-7.5v-2.3h7.5v-1.2h3.1v1.2h7.7v2.3h-7.7v0.6h5.7v4.4h-5.7v0.6h6.1v2.5h2.2V428.3z M185,421.1v-0.7h-2.6v0.7
				H185z M188.1,420.4v0.7h2.6v-0.7H188.1z M188.1,426.1h3v-0.6h-3V426.1z M191.1,428.3h-3v0.6h3V428.3z"/>
		</g>
		<g>
			<path class="st0" d="M41.8,395.7c0.5,0,0.6-0.3,0.7-2.1c0.5,0.4,1.6,0.8,2.3,1c-0.3,2.7-0.9,3.4-2.7,3.4h-2c-2.3,0-2.9-0.8-2.9-3
				v-2.9h-2c-0.2,3.3-1,5.2-5.9,6.1c-0.2-0.7-0.8-1.7-1.3-2.2c4-0.6,4.4-1.6,4.6-3.9h-4.2v-2.4h16.1v2.4h-4.6v2.9
				c0,0.6,0.1,0.7,0.6,0.7H41.8z M31.2,387.8h-2.6v-4.7H35c-0.1-0.4-0.3-0.8-0.5-1.2l2.7-0.8c0.3,0.6,0.6,1.3,0.9,1.9h6.1v4.7h-2.7
				v-2.3H31.2V387.8z M31.8,388.9v-2.4h9v2.4H31.8z"/>
			<path class="st0" d="M60.3,394.2c1.2,1,3.1,1.6,5.9,1.7c-0.6,0.6-1.2,1.7-1.6,2.4c-3.6-0.4-5.7-1.5-7.1-3.6c-1,1.7-3,2.9-7.3,3.6
				c-0.2-0.7-0.8-1.8-1.3-2.3c3-0.4,4.6-0.9,5.5-1.7H50v-2.3h5.7c0-0.2,0.1-0.4,0.1-0.7h-6.4V389h6.7v-0.6H51v-2.2h5.2v-0.6h-5.9
				v-2.3h2.9c-0.2-0.4-0.5-0.9-0.8-1.3l2.3-0.9c0.5,0.6,1,1.4,1.2,2l-0.5,0.2h3.5c0.4-0.7,0.9-1.5,1.1-2.2l2.8,0.7
				c-0.4,0.6-0.7,1.1-1.1,1.5h3v2.3h-6v0.6h5.4v2.2h-5.4v0.6h7v2.2h-7.3c0,0.2-0.1,0.4-0.1,0.7h6.9v2.3H60.3z"/>
			<path class="st0" d="M74,393.9c0.4,0.2,0.9,0.5,1.7,0.7c1.3,0.5,3.1,0.6,5,0.6c1.7,0,4.6-0.2,6.4-0.5c-0.3,0.7-0.7,2-0.8,2.7
				c-1.1,0.1-3.9,0.2-5.7,0.2c-2.2,0-3.9-0.2-5.4-0.8c-0.9-0.4-1.6-0.8-2.1-0.8c-0.5,0-1.1,1.2-1.5,2l-1.6-2.6
				c0.5-0.5,1.1-0.9,1.6-1.2v-3.7h-1.5v-2.3H74v3.1c0.9-2,1-4.5,1-6.3V382h5.2v5.5H77c0,0.4-0.1,0.7-0.1,1.1h3.4v5.9h-4.4v-2.1
				c-0.2,0.5-0.5,1-0.8,1.4c-0.2-0.3-0.7-0.8-1.2-1.2V393.9z M72.3,386.7c-0.4-1-1.4-2.5-2.3-3.5l2.1-1.2c0.9,1,2,2.4,2.4,3.4
				L72.3,386.7z M77.2,383.9v1.2v0.5H78v-1.7H77.2z M77.6,392.6h0.8v-2.3h-0.8V392.6z M82.6,389.6h-2.1v-2h1.1
				c-0.1-0.6-0.3-1.4-0.5-2l1.4-0.4h-1.9v-2h1.9c-0.1-0.5-0.3-0.9-0.5-1.4l2-0.6c0.3,0.6,0.6,1.3,0.8,1.9h1.8v2h-1.9l1.7,0.4
				c-0.3,0.7-0.6,1.4-0.9,1.9h1.2v2h-1.9v0.9h1.8v2h-1.8v2.3h-2.3v-2.3h-1.9v-2h1.9V389.6z M83,385.3c0.2,0.6,0.5,1.4,0.5,1.9
				l-1.6,0.4h1.9c0.3-0.7,0.6-1.6,0.7-2.3H83z"/>
			<path class="st0" d="M107.8,391.2h-3.5v7.1h-2.7v-7.1h-3.7c-0.4,2.6-1.4,5.3-4.4,7.2c-0.5-0.6-1.5-1.5-2.1-1.9
				c2.4-1.4,3.4-3.3,3.8-5.2h-3.7v-2.5h3.9v-0.4v-3.6H92v-2.4h15.3v2.4h-3v4h3.5V391.2z M101.6,388.7v-4H98v3.6v0.4H101.6z"/>
			<path class="st0" d="M121.9,381.3c0,0.8-0.1,1.8-0.1,3c0.3,2.5,1.4,8.8,7.6,11.6c-0.8,0.6-1.5,1.5-1.9,2.2
				c-3.7-1.8-5.7-4.9-6.8-7.8c-1,2.9-2.9,5.9-6.3,8c-0.5-0.7-1.3-1.5-2.2-2.1c7.2-4,6.7-11.6,6.8-14.8H121.9z"/>
			<path class="st0" d="M136.6,390.3c-0.7-0.6-2.2-1.4-3.4-1.9l1.3-2c1.1,0.4,2.7,1.1,3.5,1.7L136.6,390.3z M138.8,392.5
				c-0.9,1.9-2,3.8-3.1,5.6l-2.2-1.7c0.9-1.3,2.3-3.5,3.4-5.6L138.8,392.5z M137.3,385.4c-0.7-0.6-2.2-1.5-3.3-2l1.4-1.9
				c1.1,0.4,2.7,1.2,3.4,1.8l0,0.1h4.3c-0.1-0.5-0.3-1.1-0.5-1.5l2.4-0.6c0.3,0.6,0.6,1.5,0.8,2.1h4v2.3h-2c0.9,1.1,1.9,2.3,2.5,3.2
				l-2.1,1.3c-0.2-0.3-0.4-0.7-0.6-1.1c-6.4,0.4-7.4,0.5-8.2,0.8c-0.1-0.6-0.4-1.8-0.6-2.4c0.4-0.1,1.1-0.3,1.6-0.6
				c0.2-0.2,0.7-0.7,1.1-1.3h-2.8v-2.2L137.3,385.4z M139.8,390.3h2.3v1.6c0,1.9-0.3,4.5-2.7,6.2c-0.4-0.5-1.2-1.3-1.8-1.7
				c2-1.4,2.2-3.2,2.2-4.6V390.3z M142.8,390.3h2.2v7.2h-2.2V390.3z M146,387.1c-0.2-0.3-0.4-0.6-0.6-0.8l1.1-0.6h-2.1
				c-0.4,0.5-0.8,1.1-1.2,1.6L146,387.1z M148.3,395.9c0.1,0,0.1,0,0.1-0.1c0.1-0.1,0.1-0.2,0.1-0.4c0-0.3,0-0.9,0.1-1.7
				c0.4,0.4,1.2,0.7,1.7,0.9c0,0.8-0.1,1.7-0.2,2.1c-0.1,0.4-0.3,0.7-0.7,0.9c-0.3,0.2-0.7,0.3-1.1,0.3h-1c-0.5,0-1-0.2-1.3-0.5
				c-0.3-0.4-0.5-0.8-0.5-2.1v-5.1h2.4v5.1c0,0.2,0,0.4,0,0.4c0,0.1,0.1,0.1,0.1,0.1H148.3z"/>
			<path class="st0" d="M-9.1,428.6c-1.7,2-4.1,4.1-6.3,5.5c-0.6-0.6-1.8-1.6-2.5-2.1c2.1-1.2,4.4-3.1,5.6-4.6L-9.1,428.6z
				 M-1,415.9v10.2h-14.9v-10.2H-1z M-12.8,423.3h8.6v-4.5h-8.6V423.3z M-4.5,427.3c1.8,1.4,4.3,3.5,5.5,4.9l-2.9,1.8
				c-1.1-1.4-3.4-3.6-5.2-5.1L-4.5,427.3z"/>
			<path class="st0" d="M14.2,419.6c-0.2,0.4-0.4,0.8-0.6,1.2H23v10.1c0,1.4-0.2,2.2-1.2,2.6c-0.9,0.5-2.1,0.5-3.7,0.5
				c-0.1-0.8-0.5-2.1-0.9-2.9c0.9,0.1,2.1,0.1,2.4,0.1s0.5-0.1,0.5-0.4v-0.7h-6.8v3.9h-3v-8.5c-0.7,0.7-1.5,1.4-2.3,2
				c-0.5-0.7-1.4-1.8-2-2.3c2.1-1.3,3.7-3.3,4.9-5.6H6.6v-2.8H12c0.3-0.8,0.5-1.6,0.7-2.4l3.1,0.7c-0.2,0.6-0.4,1.1-0.6,1.7h9.9v2.8
				H14.2z M20,423.4h-6.8v0.9H20V423.4z M20,427.7v-0.9h-6.8v0.9H20z"/>
			<path class="st0" d="M37.1,426c-0.6,0.1-1.2,0.3-1.8,0.5v4.2c0,1.3-0.2,2.1-0.9,2.6s-1.7,0.6-3.1,0.6c-0.1-0.8-0.4-2-0.8-2.9
				c0.6,0,1.3,0,1.6,0c0.2,0,0.3-0.1,0.3-0.3v-3.6l-1.6,0.4l-0.6-2.9c0.6-0.1,1.4-0.2,2.2-0.4V421h-1.9v-2.8h1.9v-3.8h2.8v3.8h1.5
				v2.8h-1.5v2.6l1.4-0.3L37.1,426z M49.7,418.2h-3.2l1.4,0.3c-0.3,0.6-0.5,1.1-0.8,1.5h2.3v11.1c0,1.2-0.2,1.9-1,2.4
				c-0.8,0.4-1.8,0.5-3.1,0.5c-0.1-0.7-0.5-1.9-0.8-2.6c0.7,0,1.5,0,1.8,0c0.3,0,0.4-0.1,0.4-0.4v-8.7h-2v1.2h1.8v2h-1.8v1h1.3v4.3
				h-3.1v0.7h-2v-4.9h1.4v-1h-1.7v-2h1.7v-1.2h-2.1V434h-2.8v-14h2.1c-0.1-0.5-0.3-1.1-0.4-1.5l1.2-0.3h-3v-2.4h4.8
				c-0.1-0.3-0.2-0.7-0.4-1l2.6-0.8c0.3,0.5,0.6,1.2,0.7,1.7h4.7V418.2z M44.5,420c0.2-0.6,0.5-1.3,0.6-1.8h-3.2
				c0.2,0.5,0.4,1.1,0.5,1.5l-1.2,0.3H44.5z M43.8,428.3h-1v0.7h1V428.3z"/>
			<path class="st0" d="M74,431.2h-7.9v2.8h-3v-2.8h-7.7v-2.7h7.7v-0.8h-5.8v-8.3h14.8v8.3h-6v0.8H74V431.2z M59.6,418h-4.1v-2.6
				h4.1v-1h2.9v1h4.3v-1h2.9v1H74v2.6h-4.2v1.1h-2.9V418h-4.3v1.1h-2.9V418z M60.2,422.5H69v-0.8h-8.9V422.5z M60.2,425.5H69v-0.8
				h-8.9V425.5z"/>
			<path class="st0" d="M91.5,418.8V418h-4.8v0.8h-1.1l-0.2,0.4h12.7v2.3h-14c-0.1,0.2-0.2,0.4-0.4,0.5h12.6c0,0,0,0.8,0,1.1
				c0,0.8-0.1,1.6-0.1,2.3h2.3v2.3h-2.4c0,0.5-0.1,1-0.1,1.5h1.9v2.1h-2.2c-0.1,0.7-0.3,1.1-0.5,1.4c-0.5,0.7-1.1,0.9-1.8,1
				c-0.6,0.1-1.6,0.1-2.6,0.1c0-0.6-0.3-1.6-0.7-2.2c0.8,0.1,1.5,0.1,1.9,0.1c0.3,0,0.5-0.1,0.7-0.3l0,0H82c0.1-1,0.3-2.3,0.4-3.6
				h-2.8v-2.3h3c0.1-0.8,0.1-1.5,0.1-2.3c-0.4,0.5-0.9,1-1.4,1.4c-0.5-0.6-1.5-1.5-2.1-1.9c1.8-1.3,2.9-3,3.6-4.5l1.1,0.2V418h-4.2
				v-2.5h4.2v-1.1h2.9v1.1h4.8v-1.1h2.9v1.1h4.1v2.5h-4.1v0.8H91.5z M85.3,427.9c-0.1,0.5-0.1,1-0.1,1.5h3.7c-0.5-0.4-1.1-0.7-1.6-1
				l0.5-0.5H85.3z M85.6,424.2l-0.1,1.3h3.3c-0.4-0.3-0.9-0.6-1.3-0.8l0.5-0.5H85.6z M93.2,429.3c0-0.4,0.1-0.9,0.1-1.5h-2.7
				c0.3,0.2,0.6,0.5,0.9,0.7l-0.8,0.8H93.2z M93.4,425.5l0.1-1.3h-2.9c0.4,0.2,0.7,0.5,1,0.7l-0.6,0.6H93.4z"/>
			<path class="st0" d="M122.7,421.5h-4.2v8.7c0,1.8-0.4,2.6-1.4,3.1c-1.1,0.5-2.6,0.6-4.6,0.6c-0.1-0.9-0.6-2.3-1-3.2
				c1.2,0.1,2.7,0.1,3.1,0.1c0.4,0,0.6-0.1,0.6-0.5v-7.8c-2.2,3.8-5.5,7.4-9.1,9.6c-0.6-0.9-1.6-2-2.4-2.7c3.3-1.6,6.3-4.6,8.4-7.8
				h-7.6v-3.1h10.8v-4h3.3v4h4.2V421.5z"/>
			<path class="st0" d="M139.6,430.9c0.4,0,0.8,0,1.2,0c1.3,0,5.1,0,6.9-0.1c-0.4,0.7-0.8,2-1,2.9h-6.1c-3.6,0-6.1-0.5-7.9-2.7
				c-0.7,1.2-1.7,2.2-2.7,3c-0.5-0.6-1.6-1.7-2.3-2.1c2.1-1.2,3.3-3.3,3.7-6l3,0.4c-0.1,0.6-0.3,1.2-0.5,1.8
				c0.6,1.1,1.4,1.8,2.5,2.2v-4.7h-7.9v-2.6h18.3v2.6h-7.4v1.1h6.1v2.6h-6.1V430.9z M145.2,422.4h-14.7V415h14.7V422.4z
				 M142.2,417.1h-8.8v0.7h8.8V417.1z M142.2,419.7h-8.8v0.7h8.8V419.7z"/>
			<path class="st0" d="M171.8,430.4v2.9h-19.1v-2.9h2.4v-8.9h3.1v8.9h3.1v-11.8h-7.9v-2.9h17.9v2.9h-6.7v4h5.5v2.9h-5.5v4.9H171.8z
				"/>
			<path class="st0" d="M196.3,428.3h-2.2v3.6h-3.1v-0.8h-3v0.2c0,1.4-0.3,1.9-1.2,2.4c-0.9,0.4-2,0.4-3.8,0.4
				c-0.1-0.7-0.6-1.7-1-2.3c0.8,0,2.1,0,2.4,0c0.4,0,0.5-0.1,0.5-0.5v-0.2H179V429h6.1v-0.6H177v-2.3h8.1v-0.6h-5.9v-2h5.9v-0.6
				h-5.5v-4.4h5.5v-0.6h-7.5v-2.3h7.5v-1.2h3.1v1.2h7.7v2.3h-7.7v0.6h5.7v4.4h-5.7v0.6h6.1v2.5h2.2V428.3z M185,421.1v-0.7h-2.6v0.7
				H185z M188.1,420.4v0.7h2.6v-0.7H188.1z M188.1,426.1h3v-0.6h-3V426.1z M191.1,428.3h-3v0.6h3V428.3z"/>
		</g>
	</g>
	<line id="XMLID_233_" class="st2" x1="-74" y1="408.4" x2="-17" y2="408.4"/>
	<line id="XMLID_232_" class="st3" x1="-61" y1="395.9" x2="9" y2="395.9"/>
	<line id="XMLID_231_" class="st2" x1="-44" y1="383.4" x2="0" y2="383.4"/>
</g>
</svg>
