<?xml version="1.0" encoding="utf-8"?>
<!-- Generator: Adobe Illustrator 19.0.0, SVG Export Plug-In . SVG Version: 6.00 Build 0)  -->
<svg version="1.1" id="图层_1" xmlns="http://www.w3.org/2000/svg" xmlns:xlink="http://www.w3.org/1999/xlink" x="0px" y="0px"
	 viewBox="-110 347.4 374.7 146.5" style="enable-background:new -110 347.4 374.7 146.5;" xml:space="preserve">
<style type="text/css">
	.st0{fill:#FFFFFF;}
	.st1{fill:none;stroke:#231815;stroke-width:4.0622;stroke-miterlimit:10;}
	.st2{fill:#FFF1B6;}
	.st3{opacity:0.6;}
	.st4{fill:none;stroke:#000000;stroke-miterlimit:10;}
	.st5{opacity:0.74;fill:none;stroke:#000000;stroke-width:2;stroke-miterlimit:10;}
</style>
<g id="XMLID_73_">
	<rect id="XMLID_6_" x="19.8" y="398.7" class="st0" width="145.9" height="19.4"/>
	<g>
		<g>
			<path class="st0" d="M6.6,355.4c-0.1,1.9-0.2,3.8-0.4,5.5c0.6,2.8,1.8,6.2,4.1,7.8c-0.6,0.5-1.5,1.6-1.9,2.3
				c-1.4-1.3-2.5-3.2-3.2-5.2c-0.7,2.2-1.6,4.1-2.9,5.5c-0.4-0.4-1.8-1.4-2.5-1.8c1.2-1.1,2.1-2.6,2.7-4.4l-1.8,1.8
				c-0.3-0.7-1-1.7-1.7-2.7c-0.6,2.9-1.5,5.3-2.9,7c-0.4-0.4-1.8-1.4-2.5-1.8c2.7-2.8,3.4-8.1,3.5-14.3l2.8,0.1
				c-0.1,2.1-0.2,4-0.4,5.8c1.2,1.2,2.4,2.8,3,3.9c0.9-2.7,1.2-6,1.3-9.8L6.6,355.4z"/>
			<path class="st0" d="M24.6,356.2c-0.2,0.2-0.3,0.4-0.5,0.6c1.7,1.3,4.4,2.7,6.7,3.5c-0.6,0.5-1.5,1.6-1.9,2.3
				c-2.1-1-4.5-2.5-6.4-4.2c-2.1,1.8-4.4,3.2-6.7,4.3c-0.4-0.7-1.1-1.6-1.8-2.2c3.1-1.1,6.5-3.1,8.4-5.5L24.6,356.2z M29.2,364
				c-1.3,1.4-2.9,3-4.4,4.5c0.6,0.4,1.2,0.7,1.7,1l-1.9,2.2c-1.3-1.1-4.2-2.7-6.2-3.8l1.8-1.9c0.7,0.3,1.6,0.8,2.5,1.2
				c0.6-0.6,1.3-1.2,1.9-1.8h-8.1V363h5.9c-0.5-0.6-1.3-1.4-1.9-2l1.8-1.5c0.8,0.7,1.9,1.7,2.4,2.3l-1.3,1.2h3.8l0.4-0.1L29.2,364z"
				/>
			<path class="st0" d="M40.1,362.8c0.7,0.7,2.2,2.3,2.5,2.8l-1.4,2.1c-0.3-0.5-0.7-1.2-1.1-1.8v5.7h-2.5v-5.2
				c-0.6,1.3-1.3,2.6-2,3.4c-0.2-0.7-0.8-1.7-1.2-2.4c1.1-1.2,2.1-3,2.7-4.7h-2.3v-2.3h2.9v-1.9c-0.8,0.1-1.5,0.2-2.2,0.3
				c-0.1-0.6-0.4-1.4-0.7-1.9c2.2-0.3,4.6-0.9,6.3-1.5l1.6,2c-0.7,0.3-1.6,0.5-2.4,0.7v2.4h2.2v2.3h-2.2V362.8z M50,356.8v13.8h-2.6
				v-1.2h-2.2v1.3h-2.4v-13.9H50z M47.4,366.9v-7.7h-2.2v7.7H47.4z"/>
			<path class="st0" d="M70.9,364.7h-3.4v6.9h-2.6v-6.9h-3.6c-0.3,2.6-1.4,5.1-4.3,6.9c-0.4-0.6-1.4-1.5-2.1-1.9
				c2.3-1.4,3.3-3.2,3.7-5.1h-3.6v-2.4h3.8v-0.4v-3.4h-3.2v-2.4h14.8v2.4h-2.9v3.8h3.4V364.7z M64.9,362.3v-3.8h-3.5v3.5v0.4H64.9z"
				/>
			<path class="st0" d="M81.5,358.7c-0.1,3.1-0.5,5.6-1.1,7.6c0.6,0.6,1,1.1,1.4,1.6l-1.5,2.1c-0.2-0.4-0.6-0.8-0.9-1.3
				c-0.7,1.2-1.6,2.2-2.8,2.9c-0.3-0.6-1-1.5-1.4-2c1.1-0.6,1.9-1.5,2.5-2.8c-0.8-0.8-1.6-1.6-2.3-2.2c0.3-1,0.6-2.3,0.8-3.7h-0.9
				v-2.3h1.3c0.2-1.1,0.3-2.2,0.3-3.2l2.4,0.1c-0.1,1-0.2,2.1-0.4,3.1h0.8l0.4,0L81.5,358.7z M78.5,360.8c-0.2,1.1-0.4,2.1-0.6,3
				c0.2,0.2,0.5,0.4,0.7,0.6c0.3-1.1,0.5-2.3,0.6-3.6H78.5z M89.7,363.7c-0.1-0.3-0.2-0.7-0.4-1.1c-5.4,0.5-6.4,0.6-7.1,0.9
				c-0.1-0.5-0.5-1.7-0.8-2.3c0.4-0.1,0.7-0.5,1.1-1.1c0.4-0.6,1.5-2.8,2.2-4.9l2.6,0.7c-0.6,1.7-1.5,3.3-2.4,4.7l3.3-0.2
				c-0.4-0.6-0.8-1.3-1.2-1.8l2-1c1.2,1.5,2.3,3.5,2.8,4.9L89.7,363.7z M82.3,364.2h8.3v7.4h-2.4v-0.7h-3.7v0.7h-2.3V364.2z
				 M84.6,366.4v2.3h3.7v-2.3H84.6z"/>
			<path class="st0" d="M111.5,357.8c0,0,0,0.8,0,1.1c-0.2,7.7-0.4,10.5-1.1,11.4c-0.5,0.8-1.1,1-1.8,1.1c-0.7,0.1-1.8,0.1-2.8,0.1
				c0-0.7-0.4-1.7-0.8-2.4c1.1,0.1,2.1,0.1,2.6,0.1c0.3,0,0.5-0.1,0.8-0.3c0.5-0.5,0.7-3.1,0.8-8.8h-3.3c-0.5,1-1,1.9-1.5,2.6
				c-0.3-0.3-0.9-0.7-1.4-1.1v8.2h-4.5v1.2h-2.3v-13h2c0.2-0.9,0.3-2,0.4-2.8l2.7,0.4c-0.3,0.8-0.6,1.7-0.9,2.4h2.6v2.3
				c0.9-1.4,1.6-3.3,2.1-5.1l2.4,0.6c-0.2,0.7-0.4,1.3-0.7,2H111.5z M100.7,360.2h-2.3v2.3h2.3V360.2z M100.7,367.6v-3h-2.3v3H100.7
				z M106.4,367.1c-0.4-1.1-1.5-2.7-2.3-4l2-1.1c0.8,1.2,1.9,2.8,2.4,3.8L106.4,367.1z"/>
			<path class="st0" d="M129.2,368.8c0.6,0,0.9-0.2,1-2.3c0.7,0.4,1.5,0.7,2.2,0.8c-0.3,3.3-1.2,4-3.3,4H126c-2.6,0-3.7-1.1-3.7-2.6
				c0-1,0.2-2,3.8-5.1h-2.6v-1.9c-0.1,0.1-0.2,0.3-0.3,0.4c-0.3-0.3-0.8-0.7-1.3-1.1v6.2h-3.2v1.4h-2.3v-11.9h5.4v3.1
				c1.1-1.2,1.9-2.8,2.4-4.5l2.5,0.6c-0.2,0.6-0.4,1.1-0.7,1.7h5.7v2.3h-6.9c-0.3,0.5-0.7,1-1,1.4h5.4l0.6-0.1l1.7,0.9
				c-0.1,0.1-0.2,0.3-0.3,0.4c-5.9,4.3-6.3,5.1-6.3,5.7c0,0.4,0.4,0.6,1.1,0.6H129.2z M119.6,359h-0.9v5.7h0.9V359z"/>
			<path class="st0" d="M139.3,359.4c-0.4,0.3-0.8,0.6-1.3,0.8c-0.4-0.5-1.2-1.4-1.8-1.8c1.7-0.8,3.5-2.1,4.5-3.4l2.3,0.8
				c-0.4,0.5-0.8,1-1.2,1.4v4.8h-2.5V359.4z M145.8,366.6c0,1.7-1.2,3.7-7.5,4.9c-0.3-0.6-1.1-1.5-1.7-2c5.9-0.8,6.5-2.1,6.5-3v-1.3
				h2.7V366.6z M148,367.8v-3h-7v3.2h-2.6v-5.5h12.3v5.3H148z M147.3,361.9c-2.2,0-2.9-0.6-3-2.2c-0.5,0.1-1.1,0.2-1.6,0.3
				c-0.1-0.5-0.4-1.3-0.7-1.8c0.8-0.1,1.5-0.3,2.3-0.5v-2.4h2.5v1.7c1.5-0.5,2.8-1,3.9-1.5l1.5,1.8c-1.6,0.7-3.4,1.3-5.4,1.8v0
				c0,0.6,0.1,0.7,0.9,0.7h1.9c0.6,0,0.7-0.2,0.8-1.5c0.5,0.3,1.5,0.7,2.2,0.8c-0.3,2.1-0.9,2.7-2.8,2.7H147.3z M146.3,367.5
				c1.8,0.5,4.6,1.4,6,2.1l-1.4,2c-1.3-0.7-4-1.8-5.9-2.3L146.3,367.5z"/>
			<path class="st0" d="M172.1,359.4c-2.2,3.3-5.6,6.6-9.1,8.9c1.1,0.5,2.4,0.6,4,0.6c1.6,0,4.3-0.2,5.9-0.4c-0.3,0.7-0.7,2-0.7,2.7
				c-1.2,0.1-3.6,0.2-5.3,0.2c-2.2,0-3.5-0.3-4.7-0.9c-0.8-0.5-1.4-1-1.7-1c-0.5,0-1.3,1.2-1.9,2.3l-1.8-2.4
				c1.3-1.4,2.8-2.3,3.8-2.3h0c2.7-1.6,5.4-4.1,7.2-6.3h-10.1v-2.4h6.5c-0.4-0.7-1-1.5-1.4-2.1l2.3-1.2c0.6,0.8,1.6,2,2,2.8l-1,0.6
				h3.7l0.5-0.1L172.1,359.4z"/>
			<path class="st0" d="M193.2,364.1c-0.6,0.6-1.4,1.3-2,1.8c0.5,1.4,1.1,2.5,2.1,3.2c-0.6,0.5-1.3,1.4-1.7,2.1
				c-2.1-1.8-2.9-4.8-3.3-8.6c-0.3,0.1-0.6,0.2-0.9,0.2v5.1l1.9-0.7c0,0.7,0.1,1.7,0.3,2.3c-3.1,1.3-3.8,1.5-4.2,1.8
				c-0.2-0.5-0.9-1.4-1.2-1.7c0.4-0.4,0.9-1.1,0.9-2v-6c-0.5-0.4-1.3-1-1.7-1.3c0.1-0.1,0.2-0.2,0.3-0.3h-2.7v1.4h3.1
				c0,0,0,0.6,0,0.9c-0.1,5.4-0.3,7.5-0.7,8.2c-0.4,0.5-0.7,0.7-1.2,0.8c-0.4,0.1-1.1,0.1-1.8,0.1c0-0.6-0.2-1.4-0.5-2
				c-0.3,0.8-0.7,1.5-1.2,2.2c-0.4-0.4-1.2-1-1.8-1.4c1.7-2.7,2-5.7,2-7.9v-2.2h-1.5v-2.3h2.8c-0.1-0.6-0.4-1.4-0.7-2l2.2-0.7
				c0.4,0.7,0.7,1.7,0.8,2.3l-1,0.3h2.7v1.8c0.9-1.2,1.5-2.7,1.8-4.4l2.4,0.5c-0.1,0.5-0.3,1-0.4,1.5h5.2v2.3h-6.1
				c-0.3,0.6-0.7,1.2-1.1,1.7c1.9-0.4,3.8-1.1,5.1-1.7l1.9,1.7c-0.8,0.3-1.6,0.6-2.5,0.9c0.1,0.5,0.1,1,0.2,1.5
				c0.3-0.4,0.6-0.7,0.9-1.1L193.2,364.1z M180.8,363.7c-0.1,1.8-0.4,3.7-1.1,5.6c0.4,0,0.8,0.1,1,0.1c0.2,0,0.3-0.1,0.5-0.3
				c0.2-0.3,0.3-1.7,0.4-5.4H180.8z"/>
			<path class="st0" d="M58.6,395.5v3.5H35.3v-3.5H38c-0.9-0.6-2.3-1.4-3.1-1.8c1.9-1.7,3.5-4.5,4.4-7.3l3.8,0.9
				c-0.3,0.8-0.6,1.5-0.9,2.3h3.5v-3.2h4.1v3.2h7.5v3.5h-7.5v2.4H58.6z M38.2,400.5h18.2v10.8h-4.1v-1.1H42.1v1.2h-3.9V400.5z
				 M40.3,393.1c-0.6,0.9-1.2,1.7-1.7,2.4h7.1v-2.4H40.3z M42.1,404v2.7h10.1V404H42.1z"/>
			<path class="st0" d="M78.8,398.8c0,0,0,0.9-0.1,1.4c-0.2,6-0.4,8.6-1.1,9.5c-0.6,0.8-1.2,1.1-2,1.2c-0.7,0.1-1.8,0.2-2.9,0.2
				c-0.1-1.1-0.4-2.6-1-3.6c0.8,0.1,1.5,0.1,1.9,0.1c0.3,0,0.6-0.1,0.8-0.3c0.3-0.4,0.5-1.8,0.6-5h-1.9c-0.5,4-1.8,7.2-5.6,9.3
				c-0.4-0.9-1.4-2.2-2.2-2.9c2.8-1.5,3.9-3.6,4.3-6.4h-3.3v-3.4h3.5l0.1-1.3h3.6l-0.1,1.3H78.8z M78,397H66.8v-9.5H78V397z
				 M74.4,390.9h-4.1v2.8h4.1V390.9z M83.9,404.7h-3.7v-15h3.7V404.7z M89.5,387v20c0,2-0.3,3-1.5,3.7c-1.2,0.6-2.8,0.8-5,0.8
				c-0.1-1.1-0.7-2.9-1.2-4c1.4,0.1,2.8,0.1,3.3,0.1c0.5,0,0.6-0.1,0.6-0.6v-20H89.5z"/>
			<path class="st0" d="M117.4,401.7c1.2,2.1,2.8,4.1,4.4,5.5c-0.9,0.7-2.2,2.1-2.8,3c-1.2-1.2-2.2-2.9-3.2-4.8v5.9h-3.7v-6.1
				c-1,2.1-2.2,4-3.5,5.3c-0.6-0.9-1.9-2.3-2.7-3l0.1-0.1c-2.9,1.1-6.1,2.2-8.6,3.1l-0.8-3.5l0.5-0.2v-9h2.8v8.1l0.6-0.2v-9.7h-3.2
				v-8.8h8.6v8.8h-2.3v3h2.2v3.2h-2.2v2.5l2-0.7l0.6,3.1c1.5-1.4,3-3.5,4.1-5.5H107v-3.5h5.2v-2.3h0.4c-0.3-1.2-0.8-2.8-1.3-4.1
				l2.8-0.8c-2.3,0.2-4.7,0.3-6.9,0.4c-0.1-0.9-0.5-2.3-0.9-3.1c4.6-0.3,9.7-0.8,13.4-1.6l1.7,3.3c-2.1,0.4-4.5,0.7-7,0.9
				c0.6,1.3,1.2,2.9,1.5,4l-2.8,0.9h2.9v2.3h4.9v3.5H117.4z M100.1,393.1h2.8v-2.7h-2.8V393.1z M108.5,397.4c-0.4-1.3-1.3-3.3-2-4.9
				l2.9-1.1c0.8,1.5,1.7,3.4,2.2,4.7L108.5,397.4z M121.1,391.5c-0.8,1.9-1.9,4.2-2.7,5.6c-0.7-0.5-2.1-1.2-2.9-1.5
				c0.9-1.3,1.8-3.4,2.5-5.1L121.1,391.5z"/>
			<path class="st0" d="M151.9,390.7v6.2h-3.5v-3.3h-6.6v6.5h-3.7v-6.5h-6.5v3.3h-3.4v-6.2h9.9v-0.6h-7.9v-2.9h19.7v2.9h-8v0.6
				H151.9z M130.7,400.4h18.9v10.7h-3.8v-0.5h-11.4v0.7h-3.7V400.4z M131.6,397.2h5.9v2.4h-5.9V397.2z M137.6,394.2v2.4h-5.3v-2.4
				H137.6z M134.3,403.3v0.9h3.8v-0.9H134.3z M138.1,407.8v-0.9h-3.8v0.9H138.1z M145.7,403.3h-3.9v0.9h3.9V403.3z M145.7,407.8
				v-0.9h-3.9v0.9H145.7z M147.8,394.2v2.4h-5.3v-2.4H147.8z M142.4,397.2h5.9v2.4h-5.9V397.2z"/>
		</g>
		<g>
			<path class="st1" d="M6.6,355.4c-0.1,1.9-0.2,3.8-0.4,5.5c0.6,2.8,1.8,6.2,4.1,7.8c-0.6,0.5-1.5,1.6-1.9,2.3
				c-1.4-1.3-2.5-3.2-3.2-5.2c-0.7,2.2-1.6,4.1-2.9,5.5c-0.4-0.4-1.8-1.4-2.5-1.8c1.2-1.1,2.1-2.6,2.7-4.4l-1.8,1.8
				c-0.3-0.7-1-1.7-1.7-2.7c-0.6,2.9-1.5,5.3-2.9,7c-0.4-0.4-1.8-1.4-2.5-1.8c2.7-2.8,3.4-8.1,3.5-14.3l2.8,0.1
				c-0.1,2.1-0.2,4-0.4,5.8c1.2,1.2,2.4,2.8,3,3.9c0.9-2.7,1.2-6,1.3-9.8L6.6,355.4z"/>
			<path class="st1" d="M24.6,356.2c-0.2,0.2-0.3,0.4-0.5,0.6c1.7,1.3,4.4,2.7,6.7,3.5c-0.6,0.5-1.5,1.6-1.9,2.3
				c-2.1-1-4.5-2.5-6.4-4.2c-2.1,1.8-4.4,3.2-6.7,4.3c-0.4-0.7-1.1-1.6-1.8-2.2c3.1-1.1,6.5-3.1,8.4-5.5L24.6,356.2z M29.2,364
				c-1.3,1.4-2.9,3-4.4,4.5c0.6,0.4,1.2,0.7,1.7,1l-1.9,2.2c-1.3-1.1-4.2-2.7-6.2-3.8l1.8-1.9c0.7,0.3,1.6,0.8,2.5,1.2
				c0.6-0.6,1.3-1.2,1.9-1.8h-8.1V363h5.9c-0.5-0.6-1.3-1.4-1.9-2l1.8-1.5c0.8,0.7,1.9,1.7,2.4,2.3l-1.3,1.2h3.8l0.4-0.1L29.2,364z"
				/>
			<path class="st1" d="M40.1,362.8c0.7,0.7,2.2,2.3,2.5,2.8l-1.4,2.1c-0.3-0.5-0.7-1.2-1.1-1.8v5.7h-2.5v-5.2
				c-0.6,1.3-1.3,2.6-2,3.4c-0.2-0.7-0.8-1.7-1.2-2.4c1.1-1.2,2.1-3,2.7-4.7h-2.3v-2.3h2.9v-1.9c-0.8,0.1-1.5,0.2-2.2,0.3
				c-0.1-0.6-0.4-1.4-0.7-1.9c2.2-0.3,4.6-0.9,6.3-1.5l1.6,2c-0.7,0.3-1.6,0.5-2.4,0.7v2.4h2.2v2.3h-2.2V362.8z M50,356.8v13.8h-2.6
				v-1.2h-2.2v1.3h-2.4v-13.9H50z M47.4,366.9v-7.7h-2.2v7.7H47.4z"/>
			<path class="st1" d="M70.9,364.7h-3.4v6.9h-2.6v-6.9h-3.6c-0.3,2.6-1.4,5.1-4.3,6.9c-0.4-0.6-1.4-1.5-2.1-1.9
				c2.3-1.4,3.3-3.2,3.7-5.1h-3.6v-2.4h3.8v-0.4v-3.4h-3.2v-2.4h14.8v2.4h-2.9v3.8h3.4V364.7z M64.9,362.3v-3.8h-3.5v3.5v0.4H64.9z"
				/>
			<path class="st1" d="M81.5,358.7c-0.1,3.1-0.5,5.6-1.1,7.6c0.6,0.6,1,1.1,1.4,1.6l-1.5,2.1c-0.2-0.4-0.6-0.8-0.9-1.3
				c-0.7,1.2-1.6,2.2-2.8,2.9c-0.3-0.6-1-1.5-1.4-2c1.1-0.6,1.9-1.5,2.5-2.8c-0.8-0.8-1.6-1.6-2.3-2.2c0.3-1,0.6-2.3,0.8-3.7h-0.9
				v-2.3h1.3c0.2-1.1,0.3-2.2,0.3-3.2l2.4,0.1c-0.1,1-0.2,2.1-0.4,3.1h0.8l0.4,0L81.5,358.7z M78.5,360.8c-0.2,1.1-0.4,2.1-0.6,3
				c0.2,0.2,0.5,0.4,0.7,0.6c0.3-1.1,0.5-2.3,0.6-3.6H78.5z M89.7,363.7c-0.1-0.3-0.2-0.7-0.4-1.1c-5.4,0.5-6.4,0.6-7.1,0.9
				c-0.1-0.5-0.5-1.7-0.8-2.3c0.4-0.1,0.7-0.5,1.1-1.1c0.4-0.6,1.5-2.8,2.2-4.9l2.6,0.7c-0.6,1.7-1.5,3.3-2.4,4.7l3.3-0.2
				c-0.4-0.6-0.8-1.3-1.2-1.8l2-1c1.2,1.5,2.3,3.5,2.8,4.9L89.7,363.7z M82.3,364.2h8.3v7.4h-2.4v-0.7h-3.7v0.7h-2.3V364.2z
				 M84.6,366.4v2.3h3.7v-2.3H84.6z"/>
			<path class="st1" d="M111.5,357.8c0,0,0,0.8,0,1.1c-0.2,7.7-0.4,10.5-1.1,11.4c-0.5,0.8-1.1,1-1.8,1.1c-0.7,0.1-1.8,0.1-2.8,0.1
				c0-0.7-0.4-1.7-0.8-2.4c1.1,0.1,2.1,0.1,2.6,0.1c0.3,0,0.5-0.1,0.8-0.3c0.5-0.5,0.7-3.1,0.8-8.8h-3.3c-0.5,1-1,1.9-1.5,2.6
				c-0.3-0.3-0.9-0.7-1.4-1.1v8.2h-4.5v1.2h-2.3v-13h2c0.2-0.9,0.3-2,0.4-2.8l2.7,0.4c-0.3,0.8-0.6,1.7-0.9,2.4h2.6v2.3
				c0.9-1.4,1.6-3.3,2.1-5.1l2.4,0.6c-0.2,0.7-0.4,1.3-0.7,2H111.5z M100.7,360.2h-2.3v2.3h2.3V360.2z M100.7,367.6v-3h-2.3v3H100.7
				z M106.4,367.1c-0.4-1.1-1.5-2.7-2.3-4l2-1.1c0.8,1.2,1.9,2.8,2.4,3.8L106.4,367.1z"/>
			<path class="st1" d="M129.2,368.8c0.6,0,0.9-0.2,1-2.3c0.7,0.4,1.5,0.7,2.2,0.8c-0.3,3.3-1.2,4-3.3,4H126c-2.6,0-3.7-1.1-3.7-2.6
				c0-1,0.2-2,3.8-5.1h-2.6v-1.9c-0.1,0.1-0.2,0.3-0.3,0.4c-0.3-0.3-0.8-0.7-1.3-1.1v6.2h-3.2v1.4h-2.3v-11.9h5.4v3.1
				c1.1-1.2,1.9-2.8,2.4-4.5l2.5,0.6c-0.2,0.6-0.4,1.1-0.7,1.7h5.7v2.3h-6.9c-0.3,0.5-0.7,1-1,1.4h5.4l0.6-0.1l1.7,0.9
				c-0.1,0.1-0.2,0.3-0.3,0.4c-5.9,4.3-6.3,5.1-6.3,5.7c0,0.4,0.4,0.6,1.1,0.6H129.2z M119.6,359h-0.9v5.7h0.9V359z"/>
			<path class="st1" d="M139.3,359.4c-0.4,0.3-0.8,0.6-1.3,0.8c-0.4-0.5-1.2-1.4-1.8-1.8c1.7-0.8,3.5-2.1,4.5-3.4l2.3,0.8
				c-0.4,0.5-0.8,1-1.2,1.4v4.8h-2.5V359.4z M145.8,366.6c0,1.7-1.2,3.7-7.5,4.9c-0.3-0.6-1.1-1.5-1.7-2c5.9-0.8,6.5-2.1,6.5-3v-1.3
				h2.7V366.6z M148,367.8v-3h-7v3.2h-2.6v-5.5h12.3v5.3H148z M147.3,361.9c-2.2,0-2.9-0.6-3-2.2c-0.5,0.1-1.1,0.2-1.6,0.3
				c-0.1-0.5-0.4-1.3-0.7-1.8c0.8-0.1,1.5-0.3,2.3-0.5v-2.4h2.5v1.7c1.5-0.5,2.8-1,3.9-1.5l1.5,1.8c-1.6,0.7-3.4,1.3-5.4,1.8v0
				c0,0.6,0.1,0.7,0.9,0.7h1.9c0.6,0,0.7-0.2,0.8-1.5c0.5,0.3,1.5,0.7,2.2,0.8c-0.3,2.1-0.9,2.7-2.8,2.7H147.3z M146.3,367.5
				c1.8,0.5,4.6,1.4,6,2.1l-1.4,2c-1.3-0.7-4-1.8-5.9-2.3L146.3,367.5z"/>
			<path class="st1" d="M172.1,359.4c-2.2,3.3-5.6,6.6-9.1,8.9c1.1,0.5,2.4,0.6,4,0.6c1.6,0,4.3-0.2,5.9-0.4c-0.3,0.7-0.7,2-0.7,2.7
				c-1.2,0.1-3.6,0.2-5.3,0.2c-2.2,0-3.5-0.3-4.7-0.9c-0.8-0.5-1.4-1-1.7-1c-0.5,0-1.3,1.2-1.9,2.3l-1.8-2.4
				c1.3-1.4,2.8-2.3,3.8-2.3h0c2.7-1.6,5.4-4.1,7.2-6.3h-10.1v-2.4h6.5c-0.4-0.7-1-1.5-1.4-2.1l2.3-1.2c0.6,0.8,1.6,2,2,2.8l-1,0.6
				h3.7l0.5-0.1L172.1,359.4z"/>
			<path class="st1" d="M193.2,364.1c-0.6,0.6-1.4,1.3-2,1.8c0.5,1.4,1.1,2.5,2.1,3.2c-0.6,0.5-1.3,1.4-1.7,2.1
				c-2.1-1.8-2.9-4.8-3.3-8.6c-0.3,0.1-0.6,0.2-0.9,0.2v5.1l1.9-0.7c0,0.7,0.1,1.7,0.3,2.3c-3.1,1.3-3.8,1.5-4.2,1.8
				c-0.2-0.5-0.9-1.4-1.2-1.7c0.4-0.4,0.9-1.1,0.9-2v-6c-0.5-0.4-1.3-1-1.7-1.3c0.1-0.1,0.2-0.2,0.3-0.3h-2.7v1.4h3.1
				c0,0,0,0.6,0,0.9c-0.1,5.4-0.3,7.5-0.7,8.2c-0.4,0.5-0.7,0.7-1.2,0.8c-0.4,0.1-1.1,0.1-1.8,0.1c0-0.6-0.2-1.4-0.5-2
				c-0.3,0.8-0.7,1.5-1.2,2.2c-0.4-0.4-1.2-1-1.8-1.4c1.7-2.7,2-5.7,2-7.9v-2.2h-1.5v-2.3h2.8c-0.1-0.6-0.4-1.4-0.7-2l2.2-0.7
				c0.4,0.7,0.7,1.7,0.8,2.3l-1,0.3h2.7v1.8c0.9-1.2,1.5-2.7,1.8-4.4l2.4,0.5c-0.1,0.5-0.3,1-0.4,1.5h5.2v2.3h-6.1
				c-0.3,0.6-0.7,1.2-1.1,1.7c1.9-0.4,3.8-1.1,5.1-1.7l1.9,1.7c-0.8,0.3-1.6,0.6-2.5,0.9c0.1,0.5,0.1,1,0.2,1.5
				c0.3-0.4,0.6-0.7,0.9-1.1L193.2,364.1z M180.8,363.7c-0.1,1.8-0.4,3.7-1.1,5.6c0.4,0,0.8,0.1,1,0.1c0.2,0,0.3-0.1,0.5-0.3
				c0.2-0.3,0.3-1.7,0.4-5.4H180.8z"/>
			<path class="st1" d="M58.6,395.5v3.5H35.3v-3.5H38c-0.9-0.6-2.3-1.4-3.1-1.8c1.9-1.7,3.5-4.5,4.4-7.3l3.8,0.9
				c-0.3,0.8-0.6,1.5-0.9,2.3h3.5v-3.2h4.1v3.2h7.5v3.5h-7.5v2.4H58.6z M38.2,400.5h18.2v10.8h-4.1v-1.1H42.1v1.2h-3.9V400.5z
				 M40.3,393.1c-0.6,0.9-1.2,1.7-1.7,2.4h7.1v-2.4H40.3z M42.1,404v2.7h10.1V404H42.1z"/>
			<path class="st1" d="M78.8,398.8c0,0,0,0.9-0.1,1.4c-0.2,6-0.4,8.6-1.1,9.5c-0.6,0.8-1.2,1.1-2,1.2c-0.7,0.1-1.8,0.2-2.9,0.2
				c-0.1-1.1-0.4-2.6-1-3.6c0.8,0.1,1.5,0.1,1.9,0.1c0.3,0,0.6-0.1,0.8-0.3c0.3-0.4,0.5-1.8,0.6-5h-1.9c-0.5,4-1.8,7.2-5.6,9.3
				c-0.4-0.9-1.4-2.2-2.2-2.9c2.8-1.5,3.9-3.6,4.3-6.4h-3.3v-3.4h3.5l0.1-1.3h3.6l-0.1,1.3H78.8z M78,397H66.8v-9.5H78V397z
				 M74.4,390.9h-4.1v2.8h4.1V390.9z M83.9,404.7h-3.7v-15h3.7V404.7z M89.5,387v20c0,2-0.3,3-1.5,3.7c-1.2,0.6-2.8,0.8-5,0.8
				c-0.1-1.1-0.7-2.9-1.2-4c1.4,0.1,2.8,0.1,3.3,0.1c0.5,0,0.6-0.1,0.6-0.6v-20H89.5z"/>
			<path class="st1" d="M117.4,401.7c1.2,2.1,2.8,4.1,4.4,5.5c-0.9,0.7-2.2,2.1-2.8,3c-1.2-1.2-2.2-2.9-3.2-4.8v5.9h-3.7v-6.1
				c-1,2.1-2.2,4-3.5,5.3c-0.6-0.9-1.9-2.3-2.7-3l0.1-0.1c-2.9,1.1-6.1,2.2-8.6,3.1l-0.8-3.5l0.5-0.2v-9h2.8v8.1l0.6-0.2v-9.7h-3.2
				v-8.8h8.6v8.8h-2.3v3h2.2v3.2h-2.2v2.5l2-0.7l0.6,3.1c1.5-1.4,3-3.5,4.1-5.5H107v-3.5h5.2v-2.3h0.4c-0.3-1.2-0.8-2.8-1.3-4.1
				l2.8-0.8c-2.3,0.2-4.7,0.3-6.9,0.4c-0.1-0.9-0.5-2.3-0.9-3.1c4.6-0.3,9.7-0.8,13.4-1.6l1.7,3.3c-2.1,0.4-4.5,0.7-7,0.9
				c0.6,1.3,1.2,2.9,1.5,4l-2.8,0.9h2.9v2.3h4.9v3.5H117.4z M100.1,393.1h2.8v-2.7h-2.8V393.1z M108.5,397.4c-0.4-1.3-1.3-3.3-2-4.9
				l2.9-1.1c0.8,1.5,1.7,3.4,2.2,4.7L108.5,397.4z M121.1,391.5c-0.8,1.9-1.9,4.2-2.7,5.6c-0.7-0.5-2.1-1.2-2.9-1.5
				c0.9-1.3,1.8-3.4,2.5-5.1L121.1,391.5z"/>
			<path class="st1" d="M151.9,390.7v6.2h-3.5v-3.3h-6.6v6.5h-3.7v-6.5h-6.5v3.3h-3.4v-6.2h9.9v-0.6h-7.9v-2.9h19.7v2.9h-8v0.6
				H151.9z M130.7,400.4h18.9v10.7h-3.8v-0.5h-11.4v0.7h-3.7V400.4z M131.6,397.2h5.9v2.4h-5.9V397.2z M137.6,394.2v2.4h-5.3v-2.4
				H137.6z M134.3,403.3v0.9h3.8v-0.9H134.3z M138.1,407.8v-0.9h-3.8v0.9H138.1z M145.7,403.3h-3.9v0.9h3.9V403.3z M145.7,407.8
				v-0.9h-3.9v0.9H145.7z M147.8,394.2v2.4h-5.3v-2.4H147.8z M142.4,397.2h5.9v2.4h-5.9V397.2z"/>
		</g>
		<g>
			<path class="st0" d="M6.6,355.4c-0.1,1.9-0.2,3.8-0.4,5.5c0.6,2.8,1.8,6.2,4.1,7.8c-0.6,0.5-1.5,1.6-1.9,2.3
				c-1.4-1.3-2.5-3.2-3.2-5.2c-0.7,2.2-1.6,4.1-2.9,5.5c-0.4-0.4-1.8-1.4-2.5-1.8c1.2-1.1,2.1-2.6,2.7-4.4l-1.8,1.8
				c-0.3-0.7-1-1.7-1.7-2.7c-0.6,2.9-1.5,5.3-2.9,7c-0.4-0.4-1.8-1.4-2.5-1.8c2.7-2.8,3.4-8.1,3.5-14.3l2.8,0.1
				c-0.1,2.1-0.2,4-0.4,5.8c1.2,1.2,2.4,2.8,3,3.9c0.9-2.7,1.2-6,1.3-9.8L6.6,355.4z"/>
			<path class="st0" d="M24.6,356.2c-0.2,0.2-0.3,0.4-0.5,0.6c1.7,1.3,4.4,2.7,6.7,3.5c-0.6,0.5-1.5,1.6-1.9,2.3
				c-2.1-1-4.5-2.5-6.4-4.2c-2.1,1.8-4.4,3.2-6.7,4.3c-0.4-0.7-1.1-1.6-1.8-2.2c3.1-1.1,6.5-3.1,8.4-5.5L24.6,356.2z M29.2,364
				c-1.3,1.4-2.9,3-4.4,4.5c0.6,0.4,1.2,0.7,1.7,1l-1.9,2.2c-1.3-1.1-4.2-2.7-6.2-3.8l1.8-1.9c0.7,0.3,1.6,0.8,2.5,1.2
				c0.6-0.6,1.3-1.2,1.9-1.8h-8.1V363h5.9c-0.5-0.6-1.3-1.4-1.9-2l1.8-1.5c0.8,0.7,1.9,1.7,2.4,2.3l-1.3,1.2h3.8l0.4-0.1L29.2,364z"
				/>
			<path class="st0" d="M40.1,362.8c0.7,0.7,2.2,2.3,2.5,2.8l-1.4,2.1c-0.3-0.5-0.7-1.2-1.1-1.8v5.7h-2.5v-5.2
				c-0.6,1.3-1.3,2.6-2,3.4c-0.2-0.7-0.8-1.7-1.2-2.4c1.1-1.2,2.1-3,2.7-4.7h-2.3v-2.3h2.9v-1.9c-0.8,0.1-1.5,0.2-2.2,0.3
				c-0.1-0.6-0.4-1.4-0.7-1.9c2.2-0.3,4.6-0.9,6.3-1.5l1.6,2c-0.7,0.3-1.6,0.5-2.4,0.7v2.4h2.2v2.3h-2.2V362.8z M50,356.8v13.8h-2.6
				v-1.2h-2.2v1.3h-2.4v-13.9H50z M47.4,366.9v-7.7h-2.2v7.7H47.4z"/>
			<path class="st0" d="M70.9,364.7h-3.4v6.9h-2.6v-6.9h-3.6c-0.3,2.6-1.4,5.1-4.3,6.9c-0.4-0.6-1.4-1.5-2.1-1.9
				c2.3-1.4,3.3-3.2,3.7-5.1h-3.6v-2.4h3.8v-0.4v-3.4h-3.2v-2.4h14.8v2.4h-2.9v3.8h3.4V364.7z M64.9,362.3v-3.8h-3.5v3.5v0.4H64.9z"
				/>
			<path class="st0" d="M81.5,358.7c-0.1,3.1-0.5,5.6-1.1,7.6c0.6,0.6,1,1.1,1.4,1.6l-1.5,2.1c-0.2-0.4-0.6-0.8-0.9-1.3
				c-0.7,1.2-1.6,2.2-2.8,2.9c-0.3-0.6-1-1.5-1.4-2c1.1-0.6,1.9-1.5,2.5-2.8c-0.8-0.8-1.6-1.6-2.3-2.2c0.3-1,0.6-2.3,0.8-3.7h-0.9
				v-2.3h1.3c0.2-1.1,0.3-2.2,0.3-3.2l2.4,0.1c-0.1,1-0.2,2.1-0.4,3.1h0.8l0.4,0L81.5,358.7z M78.5,360.8c-0.2,1.1-0.4,2.1-0.6,3
				c0.2,0.2,0.5,0.4,0.7,0.6c0.3-1.1,0.5-2.3,0.6-3.6H78.5z M89.7,363.7c-0.1-0.3-0.2-0.7-0.4-1.1c-5.4,0.5-6.4,0.6-7.1,0.9
				c-0.1-0.5-0.5-1.7-0.8-2.3c0.4-0.1,0.7-0.5,1.1-1.1c0.4-0.6,1.5-2.8,2.2-4.9l2.6,0.7c-0.6,1.7-1.5,3.3-2.4,4.7l3.3-0.2
				c-0.4-0.6-0.8-1.3-1.2-1.8l2-1c1.2,1.5,2.3,3.5,2.8,4.9L89.7,363.7z M82.3,364.2h8.3v7.4h-2.4v-0.7h-3.7v0.7h-2.3V364.2z
				 M84.6,366.4v2.3h3.7v-2.3H84.6z"/>
			<path class="st0" d="M111.5,357.8c0,0,0,0.8,0,1.1c-0.2,7.7-0.4,10.5-1.1,11.4c-0.5,0.8-1.1,1-1.8,1.1c-0.7,0.1-1.8,0.1-2.8,0.1
				c0-0.7-0.4-1.7-0.8-2.4c1.1,0.1,2.1,0.1,2.6,0.1c0.3,0,0.5-0.1,0.8-0.3c0.5-0.5,0.7-3.1,0.8-8.8h-3.3c-0.5,1-1,1.9-1.5,2.6
				c-0.3-0.3-0.9-0.7-1.4-1.1v8.2h-4.5v1.2h-2.3v-13h2c0.2-0.9,0.3-2,0.4-2.8l2.7,0.4c-0.3,0.8-0.6,1.7-0.9,2.4h2.6v2.3
				c0.9-1.4,1.6-3.3,2.1-5.1l2.4,0.6c-0.2,0.7-0.4,1.3-0.7,2H111.5z M100.7,360.2h-2.3v2.3h2.3V360.2z M100.7,367.6v-3h-2.3v3H100.7
				z M106.4,367.1c-0.4-1.1-1.5-2.7-2.3-4l2-1.1c0.8,1.2,1.9,2.8,2.4,3.8L106.4,367.1z"/>
			<path class="st0" d="M129.2,368.8c0.6,0,0.9-0.2,1-2.3c0.7,0.4,1.5,0.7,2.2,0.8c-0.3,3.3-1.2,4-3.3,4H126c-2.6,0-3.7-1.1-3.7-2.6
				c0-1,0.2-2,3.8-5.1h-2.6v-1.9c-0.1,0.1-0.2,0.3-0.3,0.4c-0.3-0.3-0.8-0.7-1.3-1.1v6.2h-3.2v1.4h-2.3v-11.9h5.4v3.1
				c1.1-1.2,1.9-2.8,2.4-4.5l2.5,0.6c-0.2,0.6-0.4,1.1-0.7,1.7h5.7v2.3h-6.9c-0.3,0.5-0.7,1-1,1.4h5.4l0.6-0.1l1.7,0.9
				c-0.1,0.1-0.2,0.3-0.3,0.4c-5.9,4.3-6.3,5.1-6.3,5.7c0,0.4,0.4,0.6,1.1,0.6H129.2z M119.6,359h-0.9v5.7h0.9V359z"/>
			<path class="st0" d="M139.3,359.4c-0.4,0.3-0.8,0.6-1.3,0.8c-0.4-0.5-1.2-1.4-1.8-1.8c1.7-0.8,3.5-2.1,4.5-3.4l2.3,0.8
				c-0.4,0.5-0.8,1-1.2,1.4v4.8h-2.5V359.4z M145.8,366.6c0,1.7-1.2,3.7-7.5,4.9c-0.3-0.6-1.1-1.5-1.7-2c5.9-0.8,6.5-2.1,6.5-3v-1.3
				h2.7V366.6z M148,367.8v-3h-7v3.2h-2.6v-5.5h12.3v5.3H148z M147.3,361.9c-2.2,0-2.9-0.6-3-2.2c-0.5,0.1-1.1,0.2-1.6,0.3
				c-0.1-0.5-0.4-1.3-0.7-1.8c0.8-0.1,1.5-0.3,2.3-0.5v-2.4h2.5v1.7c1.5-0.5,2.8-1,3.9-1.5l1.5,1.8c-1.6,0.7-3.4,1.3-5.4,1.8v0
				c0,0.6,0.1,0.7,0.9,0.7h1.9c0.6,0,0.7-0.2,0.8-1.5c0.5,0.3,1.5,0.7,2.2,0.8c-0.3,2.1-0.9,2.7-2.8,2.7H147.3z M146.3,367.5
				c1.8,0.5,4.6,1.4,6,2.1l-1.4,2c-1.3-0.7-4-1.8-5.9-2.3L146.3,367.5z"/>
			<path class="st0" d="M172.1,359.4c-2.2,3.3-5.6,6.6-9.1,8.9c1.1,0.5,2.4,0.6,4,0.6c1.6,0,4.3-0.2,5.9-0.4c-0.3,0.7-0.7,2-0.7,2.7
				c-1.2,0.1-3.6,0.2-5.3,0.2c-2.2,0-3.5-0.3-4.7-0.9c-0.8-0.5-1.4-1-1.7-1c-0.5,0-1.3,1.2-1.9,2.3l-1.8-2.4
				c1.3-1.4,2.8-2.3,3.8-2.3h0c2.7-1.6,5.4-4.1,7.2-6.3h-10.1v-2.4h6.5c-0.4-0.7-1-1.5-1.4-2.1l2.3-1.2c0.6,0.8,1.6,2,2,2.8l-1,0.6
				h3.7l0.5-0.1L172.1,359.4z"/>
			<path class="st0" d="M193.2,364.1c-0.6,0.6-1.4,1.3-2,1.8c0.5,1.4,1.1,2.5,2.1,3.2c-0.6,0.5-1.3,1.4-1.7,2.1
				c-2.1-1.8-2.9-4.8-3.3-8.6c-0.3,0.1-0.6,0.2-0.9,0.2v5.1l1.9-0.7c0,0.7,0.1,1.7,0.3,2.3c-3.1,1.3-3.8,1.5-4.2,1.8
				c-0.2-0.5-0.9-1.4-1.2-1.7c0.4-0.4,0.9-1.1,0.9-2v-6c-0.5-0.4-1.3-1-1.7-1.3c0.1-0.1,0.2-0.2,0.3-0.3h-2.7v1.4h3.1
				c0,0,0,0.6,0,0.9c-0.1,5.4-0.3,7.5-0.7,8.2c-0.4,0.5-0.7,0.7-1.2,0.8c-0.4,0.1-1.1,0.1-1.8,0.1c0-0.6-0.2-1.4-0.5-2
				c-0.3,0.8-0.7,1.5-1.2,2.2c-0.4-0.4-1.2-1-1.8-1.4c1.7-2.7,2-5.7,2-7.9v-2.2h-1.5v-2.3h2.8c-0.1-0.6-0.4-1.4-0.7-2l2.2-0.7
				c0.4,0.7,0.7,1.7,0.8,2.3l-1,0.3h2.7v1.8c0.9-1.2,1.5-2.7,1.8-4.4l2.4,0.5c-0.1,0.5-0.3,1-0.4,1.5h5.2v2.3h-6.1
				c-0.3,0.6-0.7,1.2-1.1,1.7c1.9-0.4,3.8-1.1,5.1-1.7l1.9,1.7c-0.8,0.3-1.6,0.6-2.5,0.9c0.1,0.5,0.1,1,0.2,1.5
				c0.3-0.4,0.6-0.7,0.9-1.1L193.2,364.1z M180.8,363.7c-0.1,1.8-0.4,3.7-1.1,5.6c0.4,0,0.8,0.1,1,0.1c0.2,0,0.3-0.1,0.5-0.3
				c0.2-0.3,0.3-1.7,0.4-5.4H180.8z"/>
			<path class="st0" d="M58.6,395.5v3.5H35.3v-3.5H38c-0.9-0.6-2.3-1.4-3.1-1.8c1.9-1.7,3.5-4.5,4.4-7.3l3.8,0.9
				c-0.3,0.8-0.6,1.5-0.9,2.3h3.5v-3.2h4.1v3.2h7.5v3.5h-7.5v2.4H58.6z M38.2,400.5h18.2v10.8h-4.1v-1.1H42.1v1.2h-3.9V400.5z
				 M40.3,393.1c-0.6,0.9-1.2,1.7-1.7,2.4h7.1v-2.4H40.3z M42.1,404v2.7h10.1V404H42.1z"/>
			<path class="st0" d="M78.8,398.8c0,0,0,0.9-0.1,1.4c-0.2,6-0.4,8.6-1.1,9.5c-0.6,0.8-1.2,1.1-2,1.2c-0.7,0.1-1.8,0.2-2.9,0.2
				c-0.1-1.1-0.4-2.6-1-3.6c0.8,0.1,1.5,0.1,1.9,0.1c0.3,0,0.6-0.1,0.8-0.3c0.3-0.4,0.5-1.8,0.6-5h-1.9c-0.5,4-1.8,7.2-5.6,9.3
				c-0.4-0.9-1.4-2.2-2.2-2.9c2.8-1.5,3.9-3.6,4.3-6.4h-3.3v-3.4h3.5l0.1-1.3h3.6l-0.1,1.3H78.8z M78,397H66.8v-9.5H78V397z
				 M74.4,390.9h-4.1v2.8h4.1V390.9z M83.9,404.7h-3.7v-15h3.7V404.7z M89.5,387v20c0,2-0.3,3-1.5,3.7c-1.2,0.6-2.8,0.8-5,0.8
				c-0.1-1.1-0.7-2.9-1.2-4c1.4,0.1,2.8,0.1,3.3,0.1c0.5,0,0.6-0.1,0.6-0.6v-20H89.5z"/>
			<path class="st0" d="M117.4,401.7c1.2,2.1,2.8,4.1,4.4,5.5c-0.9,0.7-2.2,2.1-2.8,3c-1.2-1.2-2.2-2.9-3.2-4.8v5.9h-3.7v-6.1
				c-1,2.1-2.2,4-3.5,5.3c-0.6-0.9-1.9-2.3-2.7-3l0.1-0.1c-2.9,1.1-6.1,2.2-8.6,3.1l-0.8-3.5l0.5-0.2v-9h2.8v8.1l0.6-0.2v-9.7h-3.2
				v-8.8h8.6v8.8h-2.3v3h2.2v3.2h-2.2v2.5l2-0.7l0.6,3.1c1.5-1.4,3-3.5,4.1-5.5H107v-3.5h5.2v-2.3h0.4c-0.3-1.2-0.8-2.8-1.3-4.1
				l2.8-0.8c-2.3,0.2-4.7,0.3-6.9,0.4c-0.1-0.9-0.5-2.3-0.9-3.1c4.6-0.3,9.7-0.8,13.4-1.6l1.7,3.3c-2.1,0.4-4.5,0.7-7,0.9
				c0.6,1.3,1.2,2.9,1.5,4l-2.8,0.9h2.9v2.3h4.9v3.5H117.4z M100.1,393.1h2.8v-2.7h-2.8V393.1z M108.5,397.4c-0.4-1.3-1.3-3.3-2-4.9
				l2.9-1.1c0.8,1.5,1.7,3.4,2.2,4.7L108.5,397.4z M121.1,391.5c-0.8,1.9-1.9,4.2-2.7,5.6c-0.7-0.5-2.1-1.2-2.9-1.5
				c0.9-1.3,1.8-3.4,2.5-5.1L121.1,391.5z"/>
			<path class="st0" d="M151.9,390.7v6.2h-3.5v-3.3h-6.6v6.5h-3.7v-6.5h-6.5v3.3h-3.4v-6.2h9.9v-0.6h-7.9v-2.9h19.7v2.9h-8v0.6
				H151.9z M130.7,400.4h18.9v10.7h-3.8v-0.5h-11.4v0.7h-3.7V400.4z M131.6,397.2h5.9v2.4h-5.9V397.2z M137.6,394.2v2.4h-5.3v-2.4
				H137.6z M134.3,403.3v0.9h3.8v-0.9H134.3z M138.1,407.8v-0.9h-3.8v0.9H138.1z M145.7,403.3h-3.9v0.9h3.9V403.3z M145.7,407.8
				v-0.9h-3.9v0.9H145.7z M147.8,394.2v2.4h-5.3v-2.4H147.8z M142.4,397.2h5.9v2.4h-5.9V397.2z"/>
		</g>
	</g>
	<g id="XMLID_77_">
		
			<rect id="XMLID_4_" x="80.6" y="458.4" transform="matrix(0.9834 0.1812 -0.1812 0.9834 86.7077 -17.726)" class="st2" width="119.5" height="14.6"/>
		<g class="st3">
			<g>
				<path d="M90.5,457.8c0.8-0.5,1.6-1.4,2.2-2.2l0.9,0.4c-0.6,0.9-1.5,1.9-2.3,2.4L90.5,457.8z M101.2,456.3l-8.5-1.6l0.8-4.1
					l3.7,0.7l0.7-3.9l0.9,0.2l-0.3,1.4l4.8,0.9l-0.2,0.9l-4.8-0.9l-0.3,1.6l3.9,0.7L101.2,456.3z M100.8,453l-6.6-1.2l-0.4,2.3
					l6.6,1.2L100.8,453z M95.6,456.4c0,0.8,0,1.9-0.1,2.5l-1,0c0.1-0.6,0.2-1.7,0.2-2.6L95.6,456.4z M98.2,456.8
					c0.3,0.8,0.5,2,0.5,2.6l-1,0c0-0.7-0.2-1.8-0.4-2.6L98.2,456.8z M100.8,457c0.5,0.9,1,2.1,1.2,2.9l-1,0.2
					c-0.2-0.8-0.7-2-1.2-2.9L100.8,457z"/>
				<path d="M109.9,460.1l3,0.5l0.6-3.2l1,0.2l-0.9,4.9l-1-0.2l0.1-0.7l-8-1.5l0.8-4.1l1,0.2l-0.6,3.2l3,0.6l0.8-4.2l-5.1-0.9
					l0.2-0.9l5.1,0.9l0.4-2l-4.1-0.8l0.2-0.9l4.1,0.8l0.4-2l1,0.2l-0.4,2l4.1,0.8l-0.2,0.9l-4.1-0.8l-0.4,2l5,0.9l-0.2,0.9l-5-0.9
					L109.9,460.1z"/>
				<path d="M120.4,460.5c-1.3,0.3-2.7,0.5-3.8,0.8l-0.1-1c0.4-0.1,1-0.1,1.6-0.2l0.8-4.5l-1.3-0.2l0.2-0.9l1.3,0.2l0.5-3l0.9,0.2
					l-0.5,3l1.2,0.2l-0.2,0.9l-1.2-0.2l-0.8,4.2l1.3-0.2L120.4,460.5z M128.7,457.7c-0.7,1.6-1.6,2.9-2.6,4c0.1,1.3,0.3,2.1,0.8,2.2
					c0.2,0,0.5-0.6,0.8-2c0.1,0.2,0.4,0.5,0.6,0.6c-0.5,1.9-0.9,2.4-1.7,2.3c-0.7-0.1-1.1-0.9-1.3-2.2c-0.8,0.7-1.6,1.2-2.5,1.6
					c-0.1-0.2-0.4-0.6-0.5-0.8c1.1-0.4,2.1-1.1,3-2c-0.1-1.6,0.1-3.6,0.4-5.8l-3-0.6l-0.3,1.7l2.4,0.5c0,0,0,0.3-0.1,0.4
					c-0.6,2.9-0.8,3.9-1.1,4.2c-0.2,0.2-0.4,0.3-0.7,0.2c-0.2,0-0.7-0.1-1.2-0.2c0-0.3,0-0.6-0.1-0.8c0.4,0.1,0.8,0.2,1,0.2
					c0.2,0,0.3,0,0.3-0.1c0.2-0.2,0.4-1,0.8-3.3l-1.6-0.3l-0.1,0.6c-0.3,1.8-1,4.2-2.7,5.5c-0.1-0.2-0.4-0.6-0.6-0.7
					c1.6-1.2,2.1-3.3,2.4-5l0.7-4l3.9,0.7c0.1-0.6,0.2-1.3,0.3-2l0.9,0.2c-0.1,0.7-0.2,1.3-0.3,2l1.7,0.3c-0.2-0.5-0.7-1.2-1.2-1.7
					l0.7-0.3c0.5,0.5,1,1.2,1.3,1.7l-0.7,0.3l0.9,0.2l-0.2,0.9l-2.7-0.5c-0.3,1.8-0.4,3.4-0.4,4.7c0.7-0.9,1.3-1.8,1.8-3
					L128.7,457.7z"/>
				<path d="M136.7,457.6l-0.3,1.7l4.1,0.8l-0.8,4.5c-0.1,0.6-0.3,0.8-0.7,0.9c-0.5,0.1-1.2,0-2.3-0.2c0-0.3-0.1-0.7-0.2-1
					c0.9,0.2,1.6,0.3,1.9,0.4c0.2,0,0.3,0,0.3-0.2l0.7-3.5l-3.2-0.6l-1.1,6.2l-1-0.2l1.1-6.2l-3-0.6l-0.9,4.7l-0.9-0.2l1-5.7
					l3.9,0.7l0.3-1.7l-5.2-1l0.2-0.9l5.5,1c-0.1-0.5-0.3-1.3-0.5-1.8l1-0.1c0.3,0.7,0.6,1.5,0.6,2.1l-0.2,0l5.1,0.9l-0.2,0.9
					L136.7,457.6z"/>
				<path d="M151.9,469.5l-1-0.2l0.1-0.7l-5.7-1l-0.1,0.7l-0.9-0.2l0.8-4.2c-0.7,0.1-1.5,0.2-2.2,0.2c0-0.3-0.2-0.7-0.3-1
					c1.6,0,3.4-0.3,5-0.8c-0.5-0.6-1.1-1.4-1.7-1.9l0.8-0.4c0.6,0.6,1.3,1.4,1.8,2c1.4-0.5,2.7-1.3,3.7-2.3l-4.7-0.9
					c-1,0.6-2.1,1.2-3.4,1.6c-0.1-0.2-0.3-0.7-0.5-0.8c2.2-0.6,4-1.8,4.9-2.8l1,0.4c-0.3,0.3-0.6,0.6-1,0.9l4.5,0.8l0.2,0l0.6,0.5
					c-1.4,1.8-3.6,3.1-5.9,3.8l5.1,0.9L151.9,469.5z M151.2,467.8l0.5-2.9l-5.7-1l-0.5,2.9L151.2,467.8z"/>
				<path d="M164.8,462.5l-1.5,7.9c-0.1,0.5-0.3,0.8-0.6,0.9c-0.4,0.1-0.9,0-1.7-0.1c0-0.3-0.1-0.7-0.2-1c0.6,0.1,1.1,0.2,1.3,0.3
					c0.2,0,0.2,0,0.3-0.2l1.5-7.9l-1.3-0.2c-0.5,0.9-1.1,1.7-1.7,2.3c-0.1-0.2-0.5-0.5-0.7-0.6l0.1-0.1l-1.5-0.3l-0.1,0.5
					c0.3,0.5,1.1,1.8,1.3,2.1l-0.7,0.7c-0.1-0.4-0.5-1.2-0.8-1.8l-1.1,5.7l-0.9-0.2l1-5.7c-0.7,1.2-1.6,2.3-2.4,3
					c-0.1-0.2-0.2-0.7-0.3-0.9c0.9-0.8,2.1-2.2,2.9-3.6l-1.9-0.3l0.2-0.9l2,0.4l0.4-2.1c-0.6,0-1.1,0-1.6,0c0-0.2-0.1-0.5-0.1-0.8
					c1.4,0,3-0.1,4-0.3l0.4,0.8c-0.5,0.1-1.1,0.2-1.7,0.2l-0.4,2.3l1.6,0.3l-0.1,0.7c1-1,1.8-2.5,2.4-4.1l0.9,0.3
					c-0.2,0.5-0.4,1-0.6,1.4l4.1,0.8l0.1,0l0.6,0.3c-0.4,0.7-1,1.5-1.5,2.2l-0.8-0.4c0.3-0.4,0.7-0.9,0.9-1.3L164.8,462.5z
					 M162.5,464.7c-0.7,1.7-1.5,3.3-2.5,4.2c-0.1-0.2-0.5-0.5-0.7-0.6c0.9-0.9,1.7-2.4,2.3-3.9L162.5,464.7z M165.9,465.1
					c0.3,1.5,0.5,3.4,0.5,4.6l-0.9,0.1c0-1.2-0.2-3.2-0.4-4.7L165.9,465.1z"/>
				<path d="M167.9,471.2l10.9,2l-0.2,0.9l-10.9-2L167.9,471.2z M176.2,464.5c0.9,1.4,2.4,2.7,3.9,3.5c-0.2,0.1-0.6,0.4-0.8,0.7
					c-1.6-1-3.3-2.6-4.2-4.3l-0.5,2.6l-0.9-0.2l0.5-2.6c-1.4,1.3-3.6,2.3-5.4,2.6c-0.1-0.2-0.3-0.7-0.5-0.9c1.7-0.3,3.6-1,4.9-2
					l-4.1-0.8l0.2-0.8l5.1,0.9l0.3-1.6l0.9,0.2l-0.3,1.6l5.2,1l-0.2,0.8L176.2,464.5z M177.7,467.9l-0.8,4.1l-7.1-1.3l0.8-4.1
					L177.7,467.9z M176.3,470.1l-5.2-1l-0.2,1.1l5.2,1L176.3,470.1z M176.6,468.4l-5.2-1l-0.2,1.1l5.2,1L176.6,468.4z"/>
				<path d="M185.6,468.6c-0.2,0.3-0.4,0.5-0.7,0.8l6.4,1.2l-1.1,6.1l-0.9-0.2l0.1-0.5l-5.6-1l-0.1,0.5l-0.9-0.2l0.9-4.7
					c-0.8,0.6-1.7,1.1-2.6,1.5c-0.1-0.2-0.3-0.6-0.5-0.8c1.6-0.6,2.9-1.6,3.9-2.7l-3-0.6l0.1-0.8l3.5,0.6c0.2-0.3,0.4-0.6,0.6-0.9
					l-3-0.5l0.1-0.8l3.2,0.6c0.2-0.3,0.3-0.6,0.4-0.8c-1.2-0.2-2.4-0.4-3.5-0.6c0-0.2,0-0.5-0.1-0.8c3.1,0.5,7,1.1,9.1,1l0.5,0.8
					c-1.3,0-3.1-0.1-5-0.4c-0.1,0.3-0.3,0.6-0.5,0.9l5.3,1l-0.1,0.8l-5.5-1c-0.2,0.3-0.4,0.6-0.6,0.9l6.7,1.2l-0.1,0.8L185.6,468.6z
					 M189.5,475.2l0.2-0.9l-5.6-1l-0.2,0.9L189.5,475.2z M190,472.7l-5.6-1l-0.2,0.9l5.6,1L190,472.7z M190.3,471.2l-5.6-1l-0.2,0.9
					l5.6,1L190.3,471.2z"/>
			</g>
		</g>
	</g>
	<g id="XMLID_33_">
		<polygon id="XMLID_35_" class="st0" points="213.3,486.4 214.6,490.8 217.7,492.5 221.3,491.4 223,488.7 223,480.9 223,469.6 
			224.1,470.5 226.6,472.3 229.5,471.8 231.9,470 233,468.7 234.7,470.4 237.4,470.9 240.3,469.5 241.6,466.9 241.9,465.1 
			243.3,465.9 245.7,467.1 248.8,466.4 251.3,463.5 250.2,437.9 244.5,426.9 217,426.9 211.6,428.8 208.6,431 205.8,434.8 
			203.6,440.1 203,446.6 203,461.4 206.1,464.5 208.5,465.2 210.2,464.2 212.8,462.6 213.1,464 213.6,466.6 213.4,472.3 		"/>
		<rect id="XMLID_53_" x="217.6" y="419.1" class="st0" width="26.5" height="7.5"/>
		<path id="XMLID_34_" d="M208.5,466c1.5,0,2.9-0.5,3.9-1.4v23.2c0,3.2,2.6,5.8,5.8,5.8c3.2,0,5.8-2.6,5.8-5.8v-15.6
			c1,0.8,2.2,1.3,3.6,1.3c2.3,0,4.3-1.4,5.2-3.3c1,1.1,2.5,1.7,4.1,1.7c3,0,5.4-2.3,5.7-5.2c1,0.8,2.2,1.3,3.6,1.3
			c3.2,0,5.8-2.6,5.8-5.8v-17c0-6.9-2.4-13.7-6.8-19.1c-0.2-0.3-0.5-0.4-0.8-0.4c-0.2,0-0.5,0.1-0.7,0.2c-0.5,0.4-0.5,1.1-0.2,1.5
			c4,5,6.3,11.3,6.3,17.7v17c0,2-1.6,3.6-3.6,3.6c-2,0-3.6-1.6-3.6-3.6v-5.6c0-0.6-0.5-1.1-1.1-1.1c-0.6,0-1.1,0.5-1.1,1.1v9.6
			c0,2-1.6,3.6-3.6,3.6c-2,0-3.6-1.6-3.6-3.6v-7.6c0-0.6-0.5-1.1-1.1-1.1s-1.1,0.5-1.1,1.1v9.2c0,2-1.6,3.6-3.6,3.6
			s-3.6-1.6-3.6-3.6V457c0-0.6-0.5-1.1-1.1-1.1s-1.1,0.5-1.1,1.1v30.9c0,2-1.6,3.6-3.6,3.6c-2,0-3.6-1.6-3.6-3.6V447
			c0-0.6-0.5-1.1-1.1-1.1s-1.1,0.5-1.1,1.1v12.9c0,2.2-1.8,3.9-3.9,3.9s-3.9-1.8-3.9-3.9v-16.3c0-3.7,1.3-7.3,3.6-10.1
			s5.6-4.8,9.1-5.6c0.6-0.1,1-0.7,0.8-1.3c-0.1-0.5-0.6-0.9-1.1-0.9c-0.1,0-0.2,0-0.2,0c-4.1,0.9-7.8,3.1-10.4,6.4
			c-2.6,3.2-4.1,7.3-4.1,11.5v16.3C202.4,463.3,205.2,466,208.5,466z"/>
	</g>
	<line id="XMLID_75_" class="st4" x1="-84" y1="399.4" x2="2" y2="399.4"/>
	<line id="XMLID_3_" class="st4" x1="-58" y1="409.4" x2="9" y2="409.4"/>
	<line id="XMLID_80_" class="st5" x1="-77" y1="390.9" x2="15" y2="390.9"/>
	<line id="XMLID_2_" class="st4" x1="-97" y1="378.4" x2="-24" y2="378.4"/>
	<line id="XMLID_81_" class="st5" x1="-84" y1="367.9" x2="-18" y2="367.9"/>
	<line id="XMLID_1_" class="st4" x1="-69" y1="355.4" x2="-25" y2="355.4"/>
</g>
</svg>
