<?xml version="1.0" encoding="utf-8"?>
<!-- Generator: Adobe Illustrator 19.0.0, SVG Export Plug-In . SVG Version: 6.00 Build 0)  -->
<svg version="1.1" id="图层_1" xmlns="http://www.w3.org/2000/svg" xmlns:xlink="http://www.w3.org/1999/xlink" x="0px" y="0px"
	 viewBox="-342.5 340.6 348.5 206" style="enable-background:new -342.5 340.6 348.5 206;" xml:space="preserve">
<style type="text/css">
	.st0{opacity:0.4;fill:#FFFFFF;}
	.st1{fill:#FFFFFF;}
</style>
<g id="XMLID_43_">
	<g id="XMLID_42_">
		<rect id="XMLID_36_" x="-326.3" y="362.1" class="st0" width="109.5" height="163"/>
		<g>
			<path class="st1" d="M-243.4,422.6v8.3h-52v-8.3h13.1c0.9-4.3,1.8-9,2.6-14h-9.3v-8.2h10.6c0.4-2.8,0.7-5.6,1.1-8.4h-14.9v-8.3
				h45.2v8.3h-20.9c-0.4,2.8-0.8,5.5-1.3,8.4h8.5l1.5-0.3l6.7,0.5c-0.3,6.9-1,14.7-1.8,22H-243.4z M-270.4,408.7
				c-0.9,5-1.7,9.7-2.5,14h9.8c0.5-4.7,0.9-9.6,1.2-14H-270.4z"/>
			<path class="st1" d="M-249.2,492.5c0,4.7-1.1,7.1-4,8.5c-3.1,1.4-7.3,1.6-13.1,1.6c-0.5-2.5-2.1-6.6-3.5-8.8
				c3.7,0.3,8.5,0.2,9.9,0.2c1.3,0,1.8-0.5,1.8-1.6v-6.6h-23c-1.6,6.4-4.4,12.6-9.7,16.9c-1.3-1.7-4.7-4.9-6.5-6.1
				c8.5-7,9.2-17.8,9.2-26.4v-19.8h39V492.5z M-258.1,477.6v-5.5h-21.4c-0.1,1.7-0.2,3.6-0.3,5.5H-258.1z M-279.5,458.6v5.5h21.4
				v-5.5H-279.5z"/>
		</g>
	</g>
	<g>
		<path class="st1" d="M-166.7,403.5h3.2v3.5h-3.2v8.4l2.7-0.7l0.4,3.4l-3.1,0.8v13h-3.2v-12.1c-2,0.6-4,1.1-5.7,1.5l-0.9-3.7
			c1.8-0.4,4.1-0.8,6.7-1.4V407h-2.7c-0.4,2.3-1,4.3-1.7,6c-0.6-0.4-1.9-1-2.6-1.3c1.5-3.3,2.2-8.3,2.7-13.1l2.8,0.4
			c-0.2,1.5-0.4,3-0.6,4.5h2v-7.8h3.2V403.5z M-140.5,399.6v3.1h-22.8v-3.1h9.3c-0.4-1.1-0.9-2.2-1.3-3.2l3.5-0.9
			c0.7,1.3,1.5,2.9,1.9,4.2H-140.5z M-141.4,428.5c0,1.5-0.2,2.3-1.2,2.8c-1,0.5-2.4,0.5-4.4,0.5c-0.1-0.9-0.6-2-0.9-2.9
			c1.2,0,2.4,0,2.7,0c0.4,0,0.5-0.1,0.5-0.5v-10.9h-15.1v14.2h-3.3v-17.2h21.7V428.5z M-143.6,412.7h-17.1v-8.2h17.1V412.7z
			 M-146.9,427.7h-10.7v-8.2h10.7V427.7z M-147,407.1h-10.5v3h10.5V407.1z M-149.7,422h-5.2v3.1h5.2V422z"/>
		<path class="st1" d="M-113.1,419.8c-1,7.5-4.2,10.6-18.4,11.9c-0.2-0.9-0.9-2.2-1.5-3c13-0.9,15.4-3,16.2-8.9H-113.1z
			 M-128.1,408.2h-3.6v-7.8h6.2c-0.7-1.1-1.6-2.3-2.3-3.3l3.1-1.5c1.3,1.5,2.6,3.3,3.3,4.7h4.4v-5.1h3.8v5.1h4.8
			c1-1.5,2.1-3.3,2.7-4.7l3.9,1.2c-0.9,1.2-1.7,2.4-2.6,3.5h6.1v7.8h-3.7v-4.6h-26.1V408.2z M-106.1,425.6v-7.5h-18v7.7h-3.5v-10.6
			h25.1v10.4H-106.1z M-104.7,405.8v7.5h-20.6v-7.5H-104.7z M-108.3,408.2h-13.5v2.7h13.5V408.2z M-112.1,424.3
			c5.2,1.5,10.9,3.4,14.3,4.9l-2.5,2.4c-3.2-1.6-8.5-3.5-13.8-5.1L-112.1,424.3z"/>
		<path class="st1" d="M-77.9,396.8c-1.1,2.8-2.4,5.6-3.9,8.3v26.6h-3.5v-21.2c-1.1,1.5-2.2,2.9-3.4,4.1c-0.4-0.9-1.4-2.9-2-3.7
			c3.7-3.7,7.2-9.4,9.3-15.2L-77.9,396.8z M-64.1,406.3v21.2c0,1.9-0.4,3-1.6,3.6c-1.2,0.6-3,0.7-5.4,0.7c-0.2-1-0.7-2.7-1.3-3.7
			c1.8,0,3.5,0,4,0c0.5,0,0.7-0.1,0.7-0.6v-21.2H-73c-1.2,2.5-2.4,4.7-3.8,6.5c-0.7-0.7-2.1-1.9-3-2.4c3-3.5,5.2-9,6.5-14.6l3.6,0.8
			c-0.6,2.2-1.2,4.3-2,6.3h14.9l0.6-0.1l2.6,0.5c-0.5,3-1.2,6.5-1.7,8.7l-3.1-0.6c0.3-1.3,0.6-3.2,0.8-5.1H-64.1z M-70.5,413.4
			c-1.2,5.1-3.2,10-5.6,13.3c-0.7-0.6-2.3-1.5-3.1-2c2.3-2.9,4.1-7.4,5.1-12L-70.5,413.4z M-58.6,412.3c2.2,4.1,4,9.4,4.6,12.9
			l-3.5,1.3c-0.6-3.5-2.4-9-4.4-13.1L-58.6,412.3z"/>
		<path class="st1" d="M-11.4,401.7c0,0,0,1.3,0,1.7c-0.6,17.8-1,23.9-2.6,25.8c-1,1.3-1.9,1.7-3.4,1.9c-1.4,0.2-3.7,0.1-5.9,0
			c-0.1-1-0.5-2.5-1.2-3.5c2.5,0.2,4.8,0.2,5.8,0.2c0.8,0,1.2-0.1,1.7-0.7c1.3-1.3,1.8-7.3,2.3-22.1h-9.3c-1.1,2.5-2.3,4.8-3.6,6.6
			c-0.6-0.6-2-1.5-2.9-2v18.1h-10.7v3h-3.3v-28.8h4.4c0.6-1.9,1.1-4.5,1.4-6.4l4,0.7c-0.7,2-1.4,4.1-2,5.7h6.3v7.4
			c2.6-3.4,4.7-8.6,5.9-13.8l3.5,0.8c-0.5,1.8-1,3.6-1.6,5.4H-11.4z M-41.3,405.1v7.5h7.3v-7.5H-41.3z M-34,424.5v-8.7h-7.3v8.7H-34
			z M-20.8,421.4c-1.1-2.4-3.7-6.3-5.8-9.1l2.9-1.6c2.1,2.7,4.8,6.5,5.9,8.8L-20.8,421.4z"/>
		<path class="st1" d="M-143.6,453.6v13.2H-173v-13.2H-143.6z M-146.2,483.9c0,1.9-0.5,2.8-1.9,3.2c-1.4,0.5-3.6,0.6-6.8,0.6
			c-0.2-0.9-0.7-2.2-1.2-3.1c2.2,0.1,4.6,0.1,5.2,0c0.7,0,0.9-0.2,0.9-0.7v-2.1h-16.9v6h-3.7v-18.9h24.3V483.9z M-169.5,458.9h9.2
			v-2.6h-9.2V458.9z M-169.5,464.1h9.2v-2.7h-9.2V464.1z M-166.8,471.7v2.3h16.9v-2.3H-166.8z M-149.9,479v-2.3h-16.9v2.3H-149.9z
			 M-147.3,456.3h-9.4v2.6h9.4V456.3z M-147.3,461.4h-9.4v2.7h9.4V461.4z"/>
		<path class="st1" d="M-108.1,478.4h-24.3v-3.5h24.3V478.4z M-99.4,466.6c0,0,0,1.1-0.2,1.7c-1,11.1-2.1,15.7-3.9,17.5
			c-1.1,1.1-2.3,1.5-4.1,1.6c-1.5,0.1-4.3,0.1-7.1-0.1c-0.1-1.1-0.6-2.6-1.4-3.7c3,0.3,6.1,0.3,7.4,0.3c0.9,0,1.5,0,2.1-0.5
			c1.3-1.1,2.4-5.2,3.2-13.4h-24.8c1.2-4.5,2.8-12,3.7-17.5l3.7,0.4c-0.2,1.3-0.5,2.6-0.7,4h21.4v3.5h-22c-0.4,2.2-0.9,4.4-1.3,6.3
			H-99.4z"/>
		<path class="st1" d="M-69.5,468.5c-0.2,1.8-0.4,3.4-0.7,5c2.4,6.3,7.7,9.9,16.9,10.8c-0.7,0.8-1.7,2.3-2.1,3.4
			c-8-1.3-13-4.4-16-9.9c-2.2,4.9-6.6,8.4-16.3,10.3c-0.3-0.9-1.2-2.4-1.9-3.2c13.9-2.4,15.6-7.9,16.4-16.4H-69.5z M-80.1,471.6
			c-0.9,2.7-2.2,5.8-4.2,7.7l-3.1-1.9c1.9-1.7,3.3-4.6,4.1-7L-80.1,471.6z M-58.1,467.7h-28.1v-3.3h24.6v-2.7h-22.9V459h22.9v-2.7
			h-24.6v-3.3h28.1V467.7z M-64.3,477.6c1.3-1.9,3-5,3.9-7.3l3.2,1.9c-1.4,2.4-3.1,5.2-4.4,7.1L-64.3,477.6z"/>
		<path class="st1" d="M-34,481.5c-0.2-0.8-0.5-1.8-0.8-2.8c-8.4,1.7-9.7,2.1-10.4,2.6c-0.2-0.7-0.7-2.3-1.1-3.2
			c0.6-0.2,1.2-1.1,1.8-2.4c0.5-1.1,1.9-4.6,2.9-8.4h-4.7v-3.3H-32v3.3h-6.2c-0.9,3.2-2.2,6.7-3.5,9.5l6-1.1
			c-0.6-1.7-1.3-3.3-1.9-4.7l2.8-0.9c1.6,3.2,3.2,7.4,3.9,10.1L-34,481.5z M-33.1,458.4H-45v-3.2h11.9V458.4z M-12.6,481.6
			c0.7,0.4,1.7,0.8,2.4,1c-0.4,3.5-1.2,4.5-3.8,4.5h-5c-3.4,0-4.3-0.9-4.3-3.9v-4.6c-1.7,3.7-4.3,7-8.1,9.4c-0.5-0.9-1.6-2-2.4-2.7
			c5.4-3.2,8-8.1,9.3-13.6h-6.3v-16.2h5.9c0.5-1.3,1-2.8,1.3-4l4.2,0.6c-0.6,1.2-1.1,2.4-1.7,3.5h8.7v16.2H-21
			c-0.1,0.4-0.2,0.9-0.3,1.3h1.3v10.1c0,1,0.2,1.1,1.5,1.1h4.3c0.9,0,1.1-0.3,1.3-2.5c-0.1-0.4-0.2-0.9-0.4-1.4
			c-4.3,0.8-5.2,1.1-5.7,1.4c-0.1-0.6-0.6-1.8-0.9-2.4c0.4-0.1,0.8-0.6,1.1-1.2s1.5-3.3,1.9-5.7l2.5,0.7c-0.5,1.9-1.4,3.9-2.2,5.5
			l2.7-0.3c-0.4-0.9-0.7-1.9-1.1-2.7l1.9-0.7c0.9,1.9,1.9,4.5,2.2,6L-12.6,481.6z M-27.4,462.3h4.2c0.1-1.3,0.1-2.5,0.2-3.7h-4.4
			V462.3z M-23.8,468.8c0.2-1.2,0.3-2.5,0.4-3.8h-4v3.8H-23.8z M-15.7,465.1h-4.4c-0.1,1.3-0.2,2.5-0.4,3.8h4.8V465.1z M-15.7,458.5
			h-4c0,1.2-0.1,2.5-0.2,3.7h4.2V458.5z"/>
	</g>
</g>
</svg>
