<?xml version="1.0" encoding="utf-8"?>
<!-- Generator: Adobe Illustrator 19.0.0, SVG Export Plug-In . SVG Version: 6.00 Build 0)  -->
<svg version="1.1" id="图层_1" xmlns="http://www.w3.org/2000/svg" xmlns:xlink="http://www.w3.org/1999/xlink" x="0px" y="0px"
	 viewBox="0 0 9.2 9.2" style="enable-background:new 0 0 9.2 9.2;" xml:space="preserve">
<style type="text/css">
	.st0{fill:#1B190B;}
	.st1{fill:#55595A;}
	.st2{fill:#323333;}
	.st3{fill:#1B1A0C;}
	.st4{fill:#B7C0C2;}
</style>
<g id="XMLID_1_">
	<path id="XMLID_166_" class="st0" d="M8.9,4.3c0,1.1-0.2,2-0.7,2.9C8,7.4,7.8,7.7,7.5,7.9C7.2,8.1,6.9,8.3,6.6,8.5
		C5.2,9.2,3.8,9.1,2.5,8.3c-1-0.6-1.7-1.4-2-2.5c-0.2-0.7-0.2-1.4,0-2.2c0.1-0.3,0.2-0.6,0.3-0.8C0.8,2.6,1,2.4,1.2,2.1
		c0.3-0.4,0.7-0.7,1.1-1.1c0.3-0.2,0.5-0.4,0.9-0.6c0.5-0.2,1.1-0.3,1.7-0.2C5.3,0.4,5.6,0.5,6,0.6C6.4,0.8,6.8,1,7.2,1.3
		C7.5,1.6,7.8,1.8,8,2.1C8.2,2.4,8.4,2.7,8.6,3C8.8,3.5,9,3.9,8.9,4.3z"/>
	<path id="XMLID_165_" class="st1" d="M2,1.7c0.2-0.1,0.3-0.3,0.5-0.4C2.7,1,2.9,1,3.1,0.9c0.2-0.1,0.4-0.1,0.6-0.2
		c0.1,0,0.2,0,0.2-0.1c0,0,0,0,0,0c0.1,0,0.2,0,0.3,0.1c0.2,0.2,0.3,0.4,0.3,0.7c0.1,0.4,0.1,0.8-0.1,1.2C4.3,2.7,4.1,2.7,3.9,2.8
		c-0.1,0-0.1-0.1-0.2-0.1c-0.2-0.5-0.6-0.8-1.2-1C2.4,1.7,2.3,1.7,2,1.7C2.1,1.7,2,1.7,2,1.7z"/>
	<path id="XMLID_164_" class="st1" d="M0.9,3.5c0.2-0.6,0.5-1.1,0.9-1.5c0.2-0.1,0.4-0.1,0.6,0c0.5,0.2,0.9,0.6,0.9,1.2
		C3.2,3.3,3.1,3.5,2.9,3.6c-0.1,0-0.1,0.1-0.1,0.1c0,0.1-0.1,0.1-0.2,0.1C2.3,3.6,1.9,3.5,1.5,3.5c-0.2,0-0.3,0-0.4,0
		C1,3.5,0.9,3.5,0.9,3.5z"/>
	<path id="XMLID_163_" class="st1" d="M0.8,5.6c-0.1-0.5-0.2-1-0.1-1.5c0-0.1,0-0.1,0.1-0.2C0.9,3.9,1,3.9,1.1,3.9
		C1.6,3.9,2,4,2.4,4.3c0.1,0.1,0.2,0.1,0.2,0.2c0,0.1,0,0.2,0,0.3c0,0.1,0,0.2,0,0.3c0,0,0,0,0,0.1c-0.1,0-0.1,0-0.2,0
		C1.9,5.2,1.4,5.3,1,5.5C0.9,5.6,0.9,5.6,0.8,5.6z"/>
	<path id="XMLID_162_" class="st1" d="M5.6,8.5C5,8.7,4.4,8.7,3.8,8.6c-0.1,0-0.1-0.1,0-0.1c0.1-0.4,0.2-0.7,0.4-1.1
		c0-0.1,0.1-0.2,0.2-0.2c0.2,0,0.4,0,0.7,0c0.1,0,0.3-0.1,0.4-0.1c0.1,0,0.1,0,0.2,0c0.1,0.1,0,0.1,0,0.2c0,0.2-0.1,0.4,0,0.7
		c0,0.1,0.1,0.3,0.1,0.4C5.6,8.4,5.7,8.4,5.6,8.5z"/>
	<path id="XMLID_161_" class="st1" d="M6.5,1.2c0.5,0.3,0.9,0.6,1.3,1c0.1,0.1,0.1,0.2,0.1,0.3c0,0.6-0.2,1.1-0.8,1.3
		c0,0-0.1,0-0.1,0c0,0-0.1,0-0.1-0.1C6.7,3.5,6.6,3.4,6.5,3.3c0,0-0.1-0.1-0.1-0.1c0,0,0-0.1,0-0.1c0.2-0.6,0.2-1.1-0.1-1.7
		C6.4,1.3,6.4,1.3,6.5,1.2C6.4,1.2,6.4,1.1,6.5,1.2z"/>
	<path id="XMLID_160_" class="st1" d="M8.3,2.9c0.4,0.6,0.5,1.2,0.4,1.8c0,0.1,0,0.2-0.1,0.3c0,0.1-0.1,0.1-0.2,0.1
		C8,5.3,7.7,5.3,7.3,5.1C7.2,5.1,7.1,5,7.1,4.9c0-0.1,0-0.2,0-0.4c0,0,0-0.1,0-0.1c0-0.1,0.1-0.1,0.2-0.2c0.4-0.2,0.8-0.5,0.9-1
		c0-0.1,0-0.2,0-0.3C8.2,3,8.2,2.9,8.3,2.9z"/>
	<path id="XMLID_159_" class="st1" d="M4.7,0.6c0.2,0,0.4,0,0.6,0.1c0.2,0.1,0.3,0.1,0.5,0.2C5.8,0.9,5.9,1,5.9,1
		C6.1,1.5,6.2,2,6,2.6c0,0.1,0,0.2-0.2,0.2c-0.1,0-0.2-0.1-0.3-0.1c-0.1,0-0.2-0.1-0.4-0.1c-0.1,0-0.1,0-0.1-0.1c0-0.1,0-0.2,0-0.2
		c0.1-0.6,0-1.1-0.4-1.6C4.6,0.7,4.6,0.7,4.7,0.6z"/>
	<path id="XMLID_158_" class="st1" d="M7.4,7.7c-0.3,0.2-0.6,0.4-1,0.6C6.3,8.3,6.2,8.2,6.1,8.1C6,7.9,5.9,7.6,5.9,7.4
		c0-0.1,0-0.3,0-0.4C6,6.8,6.2,6.7,6.4,6.6c0.1,0,0.1,0.1,0.1,0.1C6.7,7.1,7,7.3,7.4,7.5C7.4,7.6,7.5,7.6,7.4,7.7z"/>
	<path id="XMLID_157_" class="st1" d="M1.6,7.2C1.4,6.9,1.2,6.6,1.1,6.3c0-0.1,0-0.1,0-0.1C1.6,5.9,2,5.7,2.6,5.8c0,0,0.1,0,0.1,0.1
		C2.7,6,2.8,6.2,2.8,6.3c0,0.1-0.1,0.1-0.1,0.1C2.4,6.6,2.1,6.8,1.8,7.1C1.8,7.1,1.7,7.2,1.6,7.2z"/>
	<path id="XMLID_156_" class="st1" d="M8.4,5.9C8.3,6.3,8.1,6.7,7.9,7c0,0-0.1,0-0.1,0C7.3,6.9,7,6.6,6.8,6.2c0,0,0-0.1,0-0.1
		C6.8,6,6.9,5.8,7,5.6c0.1,0,0.1,0,0.2,0c0.3,0.1,0.7,0.2,1.1,0.2C8.3,5.8,8.4,5.8,8.4,5.9z"/>
	<path id="XMLID_155_" class="st1" d="M3,8.4C2.7,8.2,2.4,8,2.1,7.7c0-0.1,0-0.1,0.1-0.1C2.5,7.3,2.8,7,3.1,6.8c0,0,0.1,0,0.1,0
		C3.4,6.9,3.6,7,3.8,7.1c0,0.1-0.1,0.2-0.2,0.2C3.4,7.6,3.2,7.9,3.1,8.3C3.1,8.3,3.1,8.4,3,8.4z"/>
	<path id="XMLID_154_" class="st2" d="M5.9,2.8c0.1,0,0.1-0.1,0.1-0.1c0.1-0.4,0.1-0.7,0-1.1c0-0.2-0.1-0.5-0.2-0.7
		C6,0.9,6.2,1,6.5,1.2c-0.1,0,0,0.1,0,0.1C6.6,1.6,6.7,2,6.7,2.4c0,0.3-0.1,0.5-0.2,0.8c-0.1,0-0.1,0-0.1,0C6.2,3,6.1,2.9,5.9,2.8
		C5.9,2.8,5.9,2.8,5.9,2.8z"/>
	<path id="XMLID_153_" class="st2" d="M2.6,5.8c-0.5,0-1,0.1-1.4,0.4c-0.1,0-0.1,0.1-0.1,0.2C1,6.1,0.9,5.8,0.8,5.6
		C1,5.5,1.1,5.4,1.3,5.3c0.4-0.2,0.8-0.2,1.2-0.2C2.6,5.4,2.6,5.6,2.6,5.8z"/>
	<path id="XMLID_152_" class="st2" d="M8.3,2.9C8.2,3,8.3,3.1,8.2,3.3c-0.1,0.5-0.4,0.8-0.9,1c-0.1,0-0.2,0-0.2,0.1
		c0,0-0.1,0-0.1-0.1C7.1,4.1,7,4,6.9,3.8c0,0,0,0,0-0.1c0.7-0.2,1-0.8,0.8-1.5C8,2.4,8.1,2.6,8.3,2.9z"/>
	<path id="XMLID_151_" class="st2" d="M2.6,4.5c0-0.1-0.1-0.1-0.1-0.2C2.1,4.1,1.7,4,1.3,3.9c-0.2,0-0.3,0-0.5,0
		c0-0.2,0-0.3,0.1-0.5c0.1,0,0.2,0,0.2,0c0.3-0.1,0.6,0,0.9,0.1c0.2,0.1,0.4,0.1,0.6,0.2c0.1,0.1,0.2,0.1,0.2-0.1
		c0-0.1,0.1-0.1,0.1-0.1c0,0,0,0.1,0,0.1C2.8,4,2.7,4.2,2.6,4.5C2.6,4.5,2.6,4.5,2.6,4.5z"/>
	<path id="XMLID_150_" class="st2" d="M4.7,0.6C4.6,0.6,4.7,0.7,4.7,0.6c0.4,0.6,0.5,1.1,0.4,1.7c0,0.1,0,0.2,0,0.3c0,0-0.1,0-0.1,0
		c-0.1,0-0.3,0-0.4,0c0,0-0.1,0-0.1,0c0.1-0.3,0.2-0.6,0.1-1c0-0.4-0.1-0.7-0.4-0.9C4.1,0.6,4,0.6,4,0.6C4.2,0.5,4.4,0.5,4.7,0.6z"
		/>
	<path id="XMLID_149_" class="st2" d="M3.3,3.1c0-0.5-0.4-0.9-0.8-1.2C2.2,1.9,2,1.9,1.8,1.9C1.9,1.8,1.9,1.7,2,1.7
		c0.1,0,0.2,0,0.3,0c0.6,0,1.2,0.4,1.4,1c0,0.1,0,0.1,0.1,0.1c0,0.1-0.1,0.1-0.2,0.1C3.5,3,3.4,3.1,3.3,3.1z"/>
	<path id="XMLID_148_" class="st2" d="M8.4,5.9c0,0-0.1,0-0.1,0c-0.4,0.1-0.8,0-1.2-0.2c0,0-0.1,0-0.1,0c0,0,0-0.1,0-0.1
		C7.1,5.2,7.1,5,7.1,4.7c0-0.1,0-0.1,0-0.2c0.1,0.1,0,0.3,0,0.4c0,0.1,0,0.1,0.1,0.2c0.4,0.2,0.9,0.2,1.3,0C8.5,5.3,8.5,5.6,8.4,5.9
		z"/>
	<path id="XMLID_145_" class="st2" d="M6.8,6.1c0.2,0.3,0.4,0.5,0.7,0.7C7.6,6.9,7.7,7,7.9,7C7.8,7.3,7.7,7.5,7.4,7.7
		c0,0,0-0.1,0-0.1C7,7.4,6.6,7,6.4,6.6c0,0,0,0,0,0C6.4,6.4,6.6,6.3,6.8,6.1C6.7,6.2,6.7,6.1,6.8,6.1z"/>
	<path id="XMLID_144_" class="st2" d="M3.2,6.8C2.8,7,2.4,7.3,2.1,7.7C1.9,7.6,1.8,7.4,1.6,7.2C1.8,7,2,6.8,2.3,6.6
		c0.2-0.1,0.4-0.2,0.5-0.3c0,0,0.1,0,0.1,0C3,6.5,3.1,6.6,3.2,6.7C3.2,6.7,3.2,6.7,3.2,6.8z"/>
	<path id="XMLID_143_" class="st2" d="M3,8.4C3.1,8.3,3.1,8.2,3.2,8c0.1-0.3,0.3-0.6,0.6-0.9c0.2,0,0.3,0,0.5,0.1
		C3.9,7.6,3.8,8.1,3.7,8.5c0,0,0,0.1,0,0.1C3.5,8.5,3.3,8.5,3,8.4z"/>
	<path id="XMLID_141_" class="st2" d="M5.9,6.9C5.9,7.3,6,7.7,6.2,8.1c0.1,0.1,0.1,0.2,0.3,0.2C6.2,8.3,5.9,8.5,5.6,8.5
		C5.6,8.3,5.5,8.1,5.4,7.9c-0.1-0.3,0-0.5,0-0.8c0,0,0,0,0-0.1C5.6,7,5.8,6.9,5.9,6.9z"/>
	<path id="XMLID_140_" class="st2" d="M3.9,0.6C3.9,0.7,3.8,0.7,3.7,0.6C3.8,0.6,3.8,0.6,3.9,0.6z"/>
	<path id="XMLID_139_" class="st3" d="M5.9,6.9C5.8,7,5.6,7,5.5,7.1C5.2,7.2,4.9,7.2,4.6,7.2c-0.1,0-0.2,0-0.3,0
		c-0.2,0-0.3-0.1-0.5-0.1C3.6,7,3.4,6.9,3.2,6.8C3.1,6.6,2.9,6.5,2.8,6.3C2.7,6.2,2.7,6,2.6,5.8c0-0.2-0.1-0.4-0.1-0.6
		c0,0,0,0,0-0.1c0-0.1,0-0.2,0-0.3c0-0.1,0-0.2,0-0.3C2.6,4.3,2.7,4,2.8,3.8c0-0.1,0.1-0.1,0.1-0.2c0.1-0.1,0.2-0.3,0.3-0.5
		C3.4,3,3.7,2.9,3.9,2.8C4,2.7,4.2,2.6,4.4,2.6c0.2,0,0.4,0,0.6,0c0.3,0,0.6,0.1,0.8,0.2C6.1,2.9,6.3,3,6.5,3.2
		c0.2,0.2,0.3,0.3,0.4,0.5C7,3.9,7.1,4.2,7.1,4.4c0,0,0,0.1,0,0.1c0,0.4,0,0.8-0.1,1.1C6.9,5.8,6.8,6,6.8,6.1
		C6.6,6.3,6.5,6.5,6.4,6.6C6.2,6.8,6.1,6.9,5.9,6.9z"/>
	<path id="XMLID_138_" class="st2" d="M2.5,4.8c0,0.1,0,0.2,0,0.3C2.5,5,2.5,4.9,2.5,4.8z"/>
	<path id="XMLID_137_" class="st4" d="M4.6,7.1c-1.1,0-1.8-0.7-1.9-1.7C2.6,4.5,2.8,3.8,3.4,3.1C3.6,2.9,4,2.8,4.3,2.7
		c1.1-0.3,2.3,0.4,2.7,1.4C7.1,4.8,7,5.4,6.7,6C6.3,6.6,5.8,6.9,5.1,7.1C4.9,7.1,4.7,7.1,4.6,7.1z"/>
	<path id="XMLID_136_" class="st0" d="M5.4,5c0,0.3-0.3,0.6-0.5,0.6c-0.3,0-0.6-0.2-0.6-0.5c0-0.4,0.2-0.6,0.6-0.6
		C5.2,4.4,5.4,4.7,5.4,5z"/>
</g>
</svg>
