<?xml version="1.0" encoding="utf-8"?>
<!-- Generator: Adobe Illustrator 19.0.0, SVG Export Plug-In . SVG Version: 6.00 Build 0)  -->
<svg version="1.2" baseProfile="tiny" id="图层_1"
	 xmlns="http://www.w3.org/2000/svg" xmlns:xlink="http://www.w3.org/1999/xlink" x="0px" y="0px" viewBox="0 0 582.4 149.2"
	 xml:space="preserve">
<g id="XMLID_1_">
	<g id="XMLID_236_">
		<path id="XMLID_372_" fill="#1B190B" d="M408.4,62c1.5,1.1,2.9,2.1,4.2,3.3c3.9,3.6,5.9,8.2,7.2,13.2c1.4,5.7,1.6,11.6,1.1,17.4
			c-0.2,2.5-0.7,4.9-1.1,7.3c-0.3,1.9-1.3,3.5-2.4,5.1c-0.4,0.5-1.1,0.5-1.7,0.7c-2.6,0.5-5.2,0.7-7.8,1c-2.4,0.3-4.9,0.6-7.4,0.8
			c-0.7,0-1.5,0.1-2.2,0c-1.8-0.2-3.6,0.3-5.3-0.1c-0.5-0.1-0.4,0.3-0.5,0.6c-0.4,1.7-0.7,3.3-1.1,5c-0.9,4-2.5,7.8-5.6,10.5
			c-4.3,3.7-9,6.6-14.9,7.2c-6.6,0.7-12.4-1.3-17.6-5.2c-4.4-3.3-7.5-7.5-9.2-12.7c-0.2-0.6-0.5-0.6-1-0.5
			c-7.6,0.5-15.3,0.8-22.9,1.1c-6,0.2-12,0.4-18,0.6c-13.8,0.5-27.7,0.7-41.6,0.8c-8.4,0.1-16.9,0.1-25.3,0
			c-3.1-0.1-6.2-0.2-9.2-0.4c-0.7,0-0.9,0.2-1,0.8c-0.7,4.3-2.4,8.3-5.2,11.7c-0.7,0.9-1.7,1.5-2.6,2.1c-2.2,1.6-4.4,3.3-7,4.3
			c-8.5,3.1-16.3,1.7-23.4-3.6c-5-3.7-8.5-8.6-9.9-14.8c-0.1-0.4-0.2-0.8-0.2-1.2c0-1-0.6-1-1.3-1c-9.2,0.3-18.5,0.4-27.7,0.5
			c-2.6,0-5.2,0-7.8,0c-0.5,0-0.8-0.1-1-0.7c-0.3-0.9-0.7-1.8-1.2-2.6c-1.2-2.1-1.8-4.4-2.2-6.8c-0.5-3.1-0.8-6.2-1.1-9.2
			c-0.5-6.6,1.1-12.7,4-18.5c5.5-11.1,14.4-17.9,26.2-21.1c4.7-1.3,9.4-1.9,14.2-2.2c7.4-0.4,14.7,0.4,22,1.1
			c3.6,0.4,7.2,0.6,10.8,0.4c0.1,0,0.2,0,0.2,0c1.3-0.1,1.5-0.2,1.5-1.6c0.2-9.9,3.1-19.2,7.9-27.8c1.6-2.9,3.5-5.7,5.5-8.4
			c3.3-4.2,7.6-7,12.5-9c4.9-2,10-3,15.1-3.8c14.8-2.3,29.6-2.3,44.5-1.8c3,0.1,6,0.3,9.1,0.4c0.3,0,0.9,0.3,1-0.4
			c0-0.2,0.3-0.1,0.4-0.1c2.6-0.1,5.1-0.2,7.7,0c0.7,0.1,1.4,0.1,2-0.1c1-0.2,2,0,3,0.1c2.1,0.2,4.2-0.1,6.2,0.2
			c8.6,1,16.6,3.4,23.9,8.1c3.8,2.4,6.6,5.7,8.9,9.6c3.3,5.5,5,11.6,6.2,17.9c0.9,4.6,1.7,9.2,2,13.9c0,0.4,0.2,0.6,0.6,0.6
			c2.6-0.2,5.2,0.1,7.8,0.1c6,0,11.9,0.5,17.6,2.2c0.3,0.1,0.6,0.2,0.7-0.2c0.9-2.6,3-3.6,5.4-4.3c2.3-0.7,4.6-0.8,6.9-0.4
			c0.7,0.1,1.3,0.4,1.6,1.1c1.3,2.5,1.5,5,0.2,7.5C409.9,61.5,409.4,62,408.4,62z"/>
		<path id="XMLID_371_" fill="#CE3820" d="M390.5,57.8c4.4,0.6,8.7,1.7,12.8,3.4c2.9,1.2,5.5,2.8,7.8,4.9c2.7,2.5,4.3,5.7,5.6,9
			c-0.4,1.9-0.1,3.9,0,5.8c0.1,2.5,0.1,4.9,0,7.4c-0.1,1.6-0.2,3.2-0.6,4.8c-0.8,3.6-2.3,7-4.6,10c-0.9,1.2-2.1,1.7-3.5,1.6
			c-1.4-0.1-2.7-0.3-4.1-0.4c-0.6-0.1-1-0.4-1.3-0.9c-3.5-6.9-9.1-11.6-15.9-15c-2.5-1.3-5.2-2.2-8.1-1.9c-0.6,0.1-1.2,0.1-1.8-0.1
			c-0.6-0.2-1.1,0.2-1.6,0.2c-3.5-1.4-7.1-2-10.8-1.6c-3.8,0.4-7.2,1.7-10,4.5c-0.3,0.3-0.6,0.6-1,0.7c-1,0.7-2,1.4-2.9,2.3
			c-0.5,0.5-1,0.8-1.7,1c-2.7,1-5,2.7-7.2,4.5c-2.3,1.9-4.4,4.1-6.2,6.5c-0.8,1-1.4,2.2-2,3.3c-0.5,1.1-0.6,1.1-1.8,1
			c-2.6-0.1-5.1,0-7.7,0.2c-1.9,0.2-3.9,0.3-5.8,0.4c-2.3,0.2-4.5,0.3-6.8,0.5c-1.2,0.1-2.4,0.1-3.6,0.2c-2,0.1-3.9,0.2-5.9,0.2
			c-15.5,0.3-31,0.1-46.6,0.1c-4,0-8.1,0-12.1-0.2c-2.1-0.1-4.3,0-6.4-0.2c-1.3-0.1-2.7,0.1-4,0.5c-1.2,0.3-1.5,0.2-2.1-0.9
			c-2.4-4.5-5.8-8-10.1-10.6c-0.4-0.3-0.8-0.6-1.2-0.9c-2-2-4.1-3.8-6.5-5.3c-4.7-2.8-9.7-4.3-15.2-3.8c-3.5,0.3-6.7,1.5-9.3,3.9
			c-1.6,1.5-3.5,2.7-5,4.4c-0.5,0.6-1,1.1-1.5,1.6c-0.8-0.4-1.5,0-2.2,0.5c-2.7,1.9-4.8,4.2-6.8,6.7c-1,1.2-1.9,2.4-2.8,3.7
			c-0.4,0.6-0.8,0.7-1.5,0.5c-5.2-1.5-10.3-1-15.2,1.3c-1.3,0.6-2.2,1.5-3,2.6c-1.3,0-2.7,0-4,0c-0.3-0.2-0.5-0.5-0.6-0.8
			c-1.3-3.7-2.1-7.4-2.4-11.3c-0.2-2.3-0.4-4.5-0.3-6.8c0.1-4.6,0.5-9.1,1.3-13.6c0.4-2.4,0.8-4.8,1.1-7.2c0.1-0.6-0.2-1.1-0.3-1.6
			c4.7-5.9,10.7-9.9,17.8-12.1c0.6,0.2,1.1-0.1,1.7-0.1c3.3-0.2,6.5-0.2,9.8,0c1.7,0.1,3.4,0.1,5.1,0.2c6.6,0.3,13.2,0.4,19.9,0.4
			c0.4,0,0.9,0,1.3-0.1c0.8-0.1,1.6,0,2.4,0.2c3.1,1,6.2,1.1,9.3,0.5c0.8-0.2,1.5-0.6,2.2-1.1c0.6-0.4,1-1,1.1-1.7
			c0.2-0.8,0.3-1.6,0.4-2.4c0.3-3.1,1-6.2,1.9-9.2c2.1-6.5,4.6-12.8,7.7-18.9c1.3-2.6,2.8-5.2,4.2-7.8c0.6-1,1.4-1.6,2.4-2.2
			c4.4-2.5,9.1-4.2,14-5.6c4.6-1.3,9.2-2.3,13.9-2.9c1.9-0.3,3.9-0.3,5.8-0.4c2.1,0,4.1-0.2,6.2-0.2c4.2-0.1,8.3-0.2,12.5-0.3
			c3.5-0.1,7-0.2,10.5-0.5c3.1-0.2,6.2-0.3,9.3-0.8c0.3,0,0.6,0,0.9-0.3c-0.8-0.5-1.7-0.4-2.5-0.5c-0.4-0.1-0.8,0.1-1-0.4
			c3.5,0,7,0,10.5,0c4.4,0,8.9,0.1,13.3,0.2c10.3,0.1,19.5,3.5,27.8,9.6c1.2,0.9,2.3,2,3.3,3.1c-0.6,0.6-0.3,1.2,0.1,1.8
			c3.6,6.7,6.2,13.7,7,21.3c0.5,5,0.3,10-1.4,14.9c-0.3,0.7-0.2,1.4,0.4,1.9c0.6,0.5,1.3,0.6,1.9,0.2c0.6-0.3,1.3-0.4,2-0.4
			c5,0,9.9,0,14.9,0c1.8,0,3.7-0.2,5.5-0.4C388.6,58.9,389.6,58.5,390.5,57.8z"/>
		<path id="XMLID_370_" fill="#812517" d="M219.4,98c2.5,1.2,4.7,2.9,6.7,4.9c2,2,3.7,4.2,4.9,6.7c0.3,0.6,0.7,0.8,1.4,0.6
			c1.7-0.5,3.4-0.7,5.2-0.6c2.8,0.2,5.6,0.2,8.4,0.2c16.9,0.3,33.8,0.2,50.6,0.1c3.7,0,7.5-0.2,11.2-0.3c2.9-0.1,5.7-0.3,8.6-0.5
			c3.1-0.2,6.3-0.5,9.4-0.7c2.2-0.1,4.3-0.2,6.5,0c0.4,0,0.5-0.2,0.7-0.5c1.5-3.3,3.8-6,6.4-8.5c2.4-2.4,5.1-4.4,8.1-5.8
			c1.7-0.8,3.1-1.8,4.5-2.9c0.4-0.3,0.8-0.6,1.3-0.7c-1,1-2.1,1.8-3.1,2.8c-3.6,3.8-6.1,8.1-6.9,13.3c-0.4,2.3-0.4,4.6,0,6.9
			c0.2,1,0.1,1.1-0.9,1c-3.3-0.3-6.6,0-9.9,0.2c-1.8,0.1-3.5,0.1-5.3,0.1c-4,0.2-8,0.1-11.9,0.2c-3.8,0.1-7.7,0.2-11.5,0.3
			c-4.2,0.1-8.4,0.2-12.6,0.3c-2.9,0.1-5.8,0-8.6,0.2c-2.7,0.2-5.3,0-8,0.1c-4.8,0.2-9.6,0-14.3,0.2c-4,0.1-7.9,0-11.9,0.2
			c-2.5,0.1-5.1,0-7.6,0.2c-2.5,0.2-4.9,0-7.4,0.1c-2.3,0.1-4.7,0.1-7,0.2c-0.9,0-1,0-0.7-0.9c0.3-0.9,0-1.8,0.1-2.8
			c0.4-5.3-2.1-9.4-5.2-13.3C220.3,99,219.9,98.6,219.4,98z"/>
		<path id="XMLID_369_" fill="#FEDFDB" d="M302.2,6.8c1,0.1,1.9,0.3,2.9,0.4c0.2,0,0.3,0,0.5,0.1c0.3,0.1,0.6,0.2,0.6,0.6
			c0,0.3-0.4,0.3-0.7,0.4c-1.5,0.2-3,0.4-4.5,0.5c-6.3,0.4-12.5,0.7-18.8,0.9c-7.1,0.2-14.1,0.3-21.2,0.9
			c-5.1,0.5-10.2,1.7-15.1,3.2c-4.6,1.4-9.1,3.1-13.3,5.4c-0.9,0.5-1.6,1.1-2.2,2c-5.1,8.8-9.3,17.9-12.3,27.7
			c-0.9,3-1.5,6.1-1.7,9.2c-0.2,2.1-1.3,3.3-3.1,4c-2.1,0.8-4.3,0.7-6.4,0.5c-1.4-0.1-2.8-0.4-4.2-1c-0.5-0.2-0.9-0.1-1.4-0.1
			c-7.5,0.3-15.1,0-22.6-0.3c-4.7-0.2-9.5-0.4-14.3-0.1c-0.5,0-1,0.4-1.5-0.1c3.2-1.1,6.5-1.8,9.8-2.3c7.1-1,14.1-0.8,21.2-0.2
			c4,0.3,7.9,0.6,11.9,0.8c1.8,0.1,3.6,0,5.4-0.3c0.3-0.1,0.6-0.1,1,0.1c0.6,0.3,1-0.1,1.4-0.6c0.6-0.7,0.9-1.6,1.1-2.5
			c0.7-3.2,1.3-6.5,2-9.7c1.9-8,4.6-15.7,9.1-22.8c1.2-1.9,2.8-3.3,4.3-4.9c3.1-3,6.6-5.3,10.6-6.9c2.6-1.1,5.5-1.5,8.3-2
			c8.7-1.6,17.4-2.2,26.2-2.6c8-0.4,16-0.3,24-0.3C300.4,6.7,301.3,6.8,302.2,6.8z"/>
		<path id="XMLID_368_" fill="#812517" d="M375.2,86.5c0.5-0.5,1.1-0.6,1.8-0.4c0.6,0.2,1.2,0.1,1.8,0.1c2.7-0.2,5.2,0.6,7.5,1.7
			c4.7,2.2,8.7,5.2,12.2,9c1.6,1.7,3,3.6,4,5.8c0.5,1.1,1.2,1.4,2.3,1.5c1,0,1.9,0.2,2.9,0.3c0.8,0.1,1.6-0.1,2.4-0.2
			c0.6-0.1,0.9-0.8,1.2-1.3c2.8-3.6,4.4-7.7,4.9-12.2c0.4-3.2,0.4-6.4,0.3-9.5c-0.1-1.4,0-2.8-0.2-4.2c-0.1-0.7,0-1.4,0.5-2
			c1.1,2.7,1.8,5.6,2.3,8.5c0.6,3.5,0.8,7.1,0.8,10.7c0,3.5-0.6,7-1.7,10.4c-0.3,0.8-0.5,1.6-0.8,2.4c-0.1,0.5-0.4,0.6-0.9,0.6
			c-2.2,0-4.4-0.1-6.6,0.2c-2.4,0.3-4.8,0.6-7.2,0.8c-1.9,0.2-3.8,0.6-5.8,0.7c-1.3,0.1-2.6-0.2-3.9,0c-0.3,0-0.3-0.1-0.3-0.3
			c0-0.3,0-0.6,0-0.8c0.3-3.2-0.8-6-2.3-8.6c-2.3-4.1-5.4-7.4-9.3-10.1C379.1,88.3,377.2,87.2,375.2,86.5z"/>
		<path id="XMLID_367_" fill="#FEDFDB" d="M145.2,73.1c0.8,0.3,0.6,1,0.6,1.5c-0.3,2.3-0.6,4.5-1,6.8c-1.2,6.5-1.7,13-1.2,19.6
			c0.3,4.6,1.2,9.1,2.9,13.4c-2.1,0-4.3,0-6.4,0c-0.3,0-0.4-0.1-0.5-0.5c-0.9-2.9-2-5.8-2.3-8.8c-0.3-3.7-0.9-7.4-0.4-11.2
			c0.5-3.8,1.3-7.5,2.7-11C141,79.4,142.8,76.1,145.2,73.1z"/>
		<path id="XMLID_366_" fill="#812517" d="M390.5,57.8c-0.7,1.2-2,1.3-3.2,1.5c-2.8,0.3-5.6,0.4-8.4,0.4c-4.1,0-8.3,0-12.4,0
			c-0.4,0-0.8,0.1-1.2,0.3c-0.8,0.5-1.8,0.4-2.4-0.1c-0.6-0.5-0.8-1.4-0.4-2.3c0.9-2.2,1.2-4.6,1.4-7c0.1-1,0.2-1.9,0.2-2.9
			c0-6.3-1.3-12.3-3.6-18.2c-1.2-3-2.4-5.9-4.1-8.6c-0.5-0.8,0-1,0.6-1.2c2.7,2.6,4.6,5.8,5.6,9.5c1.8,6.5,3,13.1,4.3,19.7
			c0.3,1.8,0.8,3.6,1.2,5.4c0.1,0.3,0.1,0.5-0.2,0.7c-0.5,0.4-0.3,0.8,0.2,1c0.3,0.2,0.6,0.3,1,0.3c0.2,0,0.4,0,0.7,0
			c2.5-0.3,4.8,0.4,7.3,0.6c0.2,0,0.5,0,0.7,0c3.6,0,7.2,0.1,10.8,0.5C389.2,57.5,389.9,57.7,390.5,57.8z"/>
		<path id="XMLID_365_" fill="#812517" d="M150.5,114.4c0.5-1.7,2-2.4,3.4-3.1c3.6-1.7,7.5-2.1,11.4-1.8c1.2,0.1,2.3,0.3,3.4,0.8
			c0.6,0.2,0.9,0.1,1.3-0.4c2.1-3.1,4.4-5.9,7.1-8.5c1-1,2.1-1.8,3.3-2.5c0.6-0.3,1.1-0.4,1.5,0.2c-1.5,2-2.8,4.1-3.7,6.3
			c-1.1,2.8-1.8,5.7-1.7,8.8c0,0.7-0.3,0.8-0.8,0.7c-1.8-0.4-3.6-0.4-5.4-0.4C163.7,114.4,157.1,114.4,150.5,114.4z"/>
		<path id="XMLID_364_" fill="#55595A" d="M186.4,96.9c0.9-0.8,1.8-1.6,2.6-2.4c1.3-1.4,3-1.8,4.6-2.5c0.7-0.3,1.4-0.7,2.1-0.8
			c0.6,0,1.1-0.2,1.6-0.4c0.7-0.2,1.2,0.2,1.6,0.7c1,1.1,1.6,2.5,1.9,4c0.4,2.3,0.3,4.5-0.7,6.6c-1,0.7-2.2,0.8-3.3,1.3
			c-0.6,0-0.7-0.4-0.9-0.8c-1.3-3.1-3.7-4.7-6.9-5.4c-0.7-0.2-1.5-0.2-2.2,0C186.8,97.1,186.5,97.4,186.4,96.9z"/>
		<path id="XMLID_279_" fill="#55595A" d="M180,107.1c1.1-3.3,2.8-6.2,5.1-8.7c1.1-0.4,2.3-0.5,3.3,0c3,1.3,5,3.4,5.3,6.8
			c-0.8,0.9-1,2.2-2.1,2.8c-0.3,0-0.4,0.2-0.6,0.5c-0.5,1-0.5,1-1.5,0.5c-1.4-0.7-2.8-1.4-4.4-1.6c-1.5-0.3-2.9-0.5-4.4,0
			C180.5,107.4,180.1,107.6,180,107.1z"/>
		<path id="XMLID_265_" fill="#55595A" d="M350.9,95.1c1.7-2,3.7-3.7,5.6-5.5c0.4-0.4,0.9-0.7,1.5-0.8c0.2,0.3,0.5,0.5,0.9,0.5
			c0.8,0.1,1.6,0.6,2.1,1.2c1.5,1.7,2.7,3.6,3.3,5.8c0.2,0.6,0.2,1.2,0,1.9c-0.4,0.6-1.2,0.8-1.8,1.1c-0.9,0.5-1.7,1.2-2.6,1.7
			c-0.2,0-0.4-0.2-0.5-0.4c-2-2.6-4.7-4-7.8-4.8C351,95.6,351,95.6,350.9,95.1z"/>
		<path id="XMLID_245_" fill="#55595A" d="M390.2,102.5c1,2,1.1,4.2,0.9,6.3c-0.3,3.3-1.2,6.4-2.3,9.5c-0.1,0.2-0.2,0.4-0.3,0.7
			c-0.3,0.3-0.7,0.2-1.1,0.1c-2.2-0.5-3.8-2-5.4-3.5c-0.4-0.3-0.7-0.7-0.7-1.3c0.5-1.4,0.5-2.8,0.9-4.2c0.2-0.2,0.5-0.2,0.8-0.3
			c3.4-0.5,5.7-2.6,6.6-6C389.7,103.4,389.6,102.8,390.2,102.5z"/>
		<path id="XMLID_242_" fill="#55595A" d="M346.8,117.2c-1.1-3-1.5-6-1.3-9.2c0-0.3,0-0.6,0.2-0.9c0.1-0.3,0.4-0.4,0.7-0.4
			c3.2-0.2,6.1,0.4,8.7,2.3c0.8,0.6,1.1,1.3,1.1,2.2c0,0.7-0.1,1.4,0.1,2c0,0.2,0.1,0.5,0,0.7c-0.3,0.5-0.7,0.4-1.2,0.4
			c-1.5,0-2.9,0.3-4.3,0.7c-1.1,0.4-2.1,0.9-2.9,1.7C347.5,117.1,347.3,117.7,346.8,117.2z"/>
		<path id="XMLID_241_" fill="#55595A" d="M381.8,92.3c2.6,1.9,4.8,4.3,6.6,6.9c0.3,1.1,0.1,2.1-0.4,3.1c-0.8,1.5-1.5,2.9-3,3.8
			c-0.9,0.5-1.9,0.8-3,0.5c-0.2-0.1-0.3-0.3-0.3-0.5c-0.6-1.6-1.4-3-2.5-4.3c-0.1-0.2-0.3-0.4-0.2-0.6c0-0.1,0.1-0.3,0.2-0.4
			c2.3-2.1,2.7-4.8,2.4-7.8C381.5,92.8,381.2,92.4,381.8,92.3z"/>
		<path id="XMLID_240_" fill="#55595A" d="M179.5,119.2c-0.8-2.8-0.9-5.6-0.5-8.5c0-0.3,0.2-0.6,0.3-0.9c0.5-0.3,1.2-0.4,1.7-0.4
			c2.8,0.1,5.3,0.8,7.6,2.4c0.5,0.4,1,0.7,1.1,1.4c-0.1,1.2-0.2,2.4-0.5,3.5c-0.3,0.3-0.7,0.3-1.1,0.3c-2.7-0.1-5.2,0.6-7.5,1.8
			C180.4,119.1,180,119.4,179.5,119.2z"/>
		<path id="XMLID_239_" fill="#55595A" d="M207.1,135.8c-3.5,0.8-7.1,1.3-10.7,0.5c-0.3-0.2-0.3-0.5-0.3-0.8
			c0.5-2.1,1.1-4.2,2.1-6.1c0.2-0.4,0.4-0.8,0.9-1c1.2,0,2.5-0.1,3.7-0.2c0.8-0.1,1.6-0.3,2.4-0.5c0.3-0.1,0.6-0.2,0.9-0.1
			c0.5,0.3,0.3,0.8,0.2,1.2c-0.2,1.2-0.4,2.5-0.1,3.7c0.2,0.8,0.4,1.6,0.8,2.3C207,135.1,207.3,135.4,207.1,135.8z"/>
		<path id="XMLID_238_" fill="#55595A" d="M211.7,94.1c2.8,1.6,5.3,3.5,7.4,5.9c0.4,0.4,0.5,0.9,0.5,1.4c0.1,3.3-1.1,6-4.6,7.2
			c-0.2,0.1-0.4,0.1-0.6,0.1c-0.2-0.1-0.4-0.2-0.5-0.4c-0.6-0.8-1.2-1.6-1.9-2.4c-0.2-0.2-0.3-0.4-0.3-0.7c0-0.3,0.1-0.5,0.2-0.8
			c1.1-3.2,0.9-6.3-0.4-9.4c-0.1-0.2-0.2-0.4-0.3-0.7C211.3,94.2,211.3,93.9,211.7,94.1z"/>
		<path id="XMLID_237_" fill="#55595A" d="M222.1,103.9c2.7,3.8,3,8,1.8,12.3c-0.2,0.3-0.6,0.5-0.9,0.6c-2.2,0.7-4.4,0.5-6.5-0.3
			c-0.6-0.2-0.9-0.7-0.9-1.3c0-0.7,0.1-1.4-0.1-2c-0.1-0.2-0.1-0.5,0-0.7c0.1-0.6,0.6-0.7,1.1-0.9c2.3-0.9,3.9-2.4,4.8-4.8
			c0.3-0.7,0.4-1.4,0.4-2.2C221.7,104.3,221.6,103.9,222.1,103.9z"/>
		<path id="XMLID_312_" fill="#323333" d="M364.3,98.2c0.2-2.6-1.2-4.6-2.6-6.6c-0.6-0.8-1.3-1.5-2.3-1.9c-0.2-0.1-0.4-0.2-0.6-0.2
			c-0.7,0.3-0.8-0.2-0.8-0.7c0.7-0.3,1.2-0.7,2-0.8c3.8,0.9,5.8,3.7,7.2,7c0.1,0.3,0.1,0.8,0.5,0.9c0.4,0,0.6-0.5,0.8-0.8
			c0.6-0.9,0.7-2,0.5-3c-0.2-1.5-0.6-2.9-1.3-4.3c-0.3-0.6-0.7-0.9-1.4-0.9c-0.3,0-0.7,0.1-0.8-0.4c1.9-0.1,3.7,0.2,5.5,0.6
			c-0.1,0.4,0.2,0.7,0.3,1c1.4,2.6,1.9,5.3,0.8,8.1c-0.2,0.5-0.3,1-0.8,1.3c-1.2,0.1-2.3-0.1-3.5,0.1c-0.8,0.1-1.6,0.3-2.4,0.6
			C364.9,98.3,364.6,98.4,364.3,98.2z"/>
		<path id="XMLID_311_" fill="#55595A" d="M371.2,97.4c1.8-3.3,1.4-6.6-0.6-9.7c-0.2-0.3-0.4-0.6,0.2-0.5c2.8,0.6,5.5,1.6,7.9,3.1
			c0.6,0.7,0.4,1.7,0.5,2.5c0.1,1.6-0.1,3.2-1.1,4.6c-0.7,1-1.5,1.6-2.8,1.5C374,98.4,372.6,98,371.2,97.4z"/>
		<path id="XMLID_310_" fill="#55595A" d="M386.9,122.6c-0.9,2.3-2.4,4.1-4.5,5.4c-0.1,0.1-0.3,0.1-0.4,0.2
			c-1.6,0.5-2.8-0.2-3.8-1.3c-1.2-1.4-1.9-3.2-2-5c0-0.2,0.1-0.3,0.2-0.4c1.5-1,2.5-2.5,3.6-3.9c0.5-0.1,0.6,0.2,0.8,0.5
			c1.4,2.1,3.3,3.4,5.7,4.1C386.6,122.3,386.9,122.3,386.9,122.6z"/>
		<path id="XMLID_309_" fill="#55595A" d="M377,130.6c-0.9,0.7-1.9,0.8-3,1.1c-1.7,0.5-3.5,0.7-5.3,0.9c-1.6,0.2-1.9,0-1.7-1.6
			c0.3-2.4,0.7-4.8,1.8-7c0.1-0.2,0.3-0.3,0.5-0.3c1.4-0.3,2.8-0.6,4.2-1.1c0.2-0.1,0.3-0.1,0.5,0c0.5,0.2,0.4,0.6,0.4,1
			c-0.2,2.4,0.4,4.6,2.1,6.3C376.8,130,377.1,130.2,377,130.6z"/>
		<path id="XMLID_308_" fill="#55595A" d="M346.1,104.5c0.8-2.8,2-5.4,3.6-7.8c0.3-0.2,0.6-0.2,0.9,0c2.8,1.4,5.3,3.2,6.8,6.1
			c0.3,0.5,0.4,1,0.4,1.6c-0.2,0.6-0.4,1.2-0.8,1.8c-0.4,0.3-0.8,0-1.1-0.2c-2.1-1.1-4.3-1.7-6.7-1.7c-0.8,0-1.6,0.2-2.3,0.4
			C346.7,104.7,346.3,105,346.1,104.5z"/>
		<path id="XMLID_307_" fill="#55595A" d="M363.1,132.2c-2.5-0.3-4.8-1.1-6.8-2.8c-0.2-0.4-0.1-0.8,0.1-1.1c0.8-2.3,2.3-4.2,4.1-5.9
			c0.1-0.1,0.3-0.2,0.5-0.2c0.6,0.1,1.1,0.5,1.6,0.8c1.1,0.4,2.3,0.7,3.4,0.9c1.1,0.3,1.1,0.3,0.4,1.2c-1.6,1.9-2.5,4-2.6,6.5
			C363.8,131.9,363.9,132.5,363.1,132.2z"/>
		<path id="XMLID_306_" fill="#55595A" d="M201.4,90.8c2.2,0.3,4.4,0.6,6.4,1.6c0.4,0.2,0.6,0.5,0.7,0.9c1,2.8,1.5,5.7,0.8,8.7
			c-0.1,0.5-0.2,1.2-0.9,1.3c-0.7,0-1.3-0.4-1.9-0.6c-0.7-0.2-1.4-0.4-2.1-0.5c-0.3,0-0.6,0-0.8-0.4c-0.2-0.5,0-0.9,0.1-1.4
			c0.4-3.3-0.1-6.3-2.2-9C201.2,91.2,201.2,91.2,201.4,90.8z"/>
		<path id="XMLID_305_" fill="#55595A" d="M217.3,131c-1.7,1.4-3.6,2.6-5.8,3.3c-0.9,0.3-1.3-0.3-1.7-0.9c-0.7-1.2-1.2-2.5-1.4-3.9
			c-0.1-0.8-0.3-1.7,0-2.5c0.8-0.8,1.7-1.3,2.7-2c0.4,0,0.5,0.3,0.7,0.6c1.3,1.9,2.9,3.5,4.9,4.6C217.1,130.4,217.5,130.5,217.3,131
			z"/>
		<path id="XMLID_304_" fill="#55595A" d="M352.7,126.3c-1.6-1.8-3.2-3.6-4.3-5.8c0-0.3,0.2-0.5,0.4-0.6c2.5-1.2,5.2-2,8-2.2
			c0.1,0,0.2,0,0.2,0c0.8,0.8,1.4,1.7,1.8,2.8c-0.5,0.5-1.2,0.7-1.7,1.1c-1.6,1.1-2.8,2.6-3.8,4.2
			C353.2,126.1,353.2,126.5,352.7,126.3z"/>
		<path id="XMLID_303_" fill="#55595A" d="M184.3,128.2c-1.3-1.4-2.2-3.1-3.1-4.8c-0.2-0.3-0.1-0.6,0.2-0.8c2.5-1.6,5.2-2.8,8.3-2.5
			c0.2,0.1,0.3,0.2,0.4,0.4c0.3,1,0.8,1.8,1.1,2.8c0,0.4-0.3,0.5-0.6,0.6c-2,0.9-3.8,2.1-5.3,3.6C185,127.9,184.8,128.3,184.3,128.2
			z"/>
		<path id="XMLID_302_" fill="#55595A" d="M222.7,120.8c-0.6,2.3-1.7,4.5-2.8,6.6c-0.2,0.2-0.5,0.2-0.8,0.1c-2.4-1-4.3-2.6-5.7-4.7
			c-0.1-0.1-0.1-0.3-0.1-0.5c0.5-1,0.7-2.1,1.6-2.9c0.3,0,0.6,0.1,0.9,0.2c2,0.8,4,1.2,6.1,0.9C222.2,120.5,222.6,120.3,222.7,120.8
			z"/>
		<path id="XMLID_301_" fill="#55595A" d="M192.2,135.2c-1.8-1.1-3.6-2.3-5.1-3.8c-0.1-0.5,0.3-0.8,0.5-1c1.4-1.6,3-3,4.9-4.1
			c0.2-0.1,0.4-0.3,0.7-0.2c1.1,0.6,2.2,1.2,3.2,2c0,0.5-0.5,0.8-0.7,1.1c-1.3,1.6-2.3,3.4-2.9,5.4
			C192.7,134.8,192.7,135.2,192.2,135.2z"/>
		<path id="XMLID_300_" fill="#55595A" d="M365.4,86.5c0.2,0.2,0.5,0.2,0.8,0.1c0.8-0.1,1.3,0.3,1.6,1c0.9,1.8,1.5,3.6,1.4,5.7
			c0,1-0.4,2-1.2,2.7c-0.4,0.4-0.6,0.5-0.9-0.2c-0.9-3-2.6-5.5-5.5-7c-0.4-0.2-0.8-0.4-1.3-0.4c-0.2,0-0.4-0.1-0.4-0.3
			c1-0.4,2-0.7,3-1.1C363.8,86.6,364.6,86.5,365.4,86.5z"/>
		<path id="XMLID_299_" fill="#323333" d="M208.4,103.2c0.4,0,0.5-0.3,0.6-0.6c0.7-2.1,0.6-4.2,0.2-6.3c-0.2-1.3-0.5-2.7-1.3-3.9
			c1.4,0.3,2.6,0.9,3.8,1.7c-0.5,0.1-0.2,0.3-0.1,0.5c1.1,2,1.3,4.2,1.3,6.5c0,1.5-0.5,2.9-1,4.4c-0.3,0.1-0.5-0.1-0.7-0.3
			c-0.8-0.6-1.5-1.1-2.4-1.6C208.6,103.6,208.3,103.5,208.4,103.2z"/>
		<path id="XMLID_298_" fill="#323333" d="M357.2,117.9c-3,0.2-5.8,1-8.5,2.4c-0.1,0.1-0.2,0.2-0.3,0.3c-0.6-1.1-1.2-2.2-1.6-3.3
			c0.2,0.2,0.4,0,0.6-0.1c2-2.2,4.7-2.7,7.5-2.8c0.4,0,0.8,0.2,1.2-0.2c0.2,0,0.3,0.1,0.3,0.3c0.1,1.1,0.5,2.1,0.9,3.1
			C357.3,117.6,357.3,117.7,357.2,117.9z"/>
		<path id="XMLID_297_" fill="#323333" d="M189.7,120.3c-2.9-0.2-5.5,0.8-7.9,2.2c-0.3,0.2-0.8,0.4-0.7,0.9
			c-0.7-1.4-1.3-2.8-1.6-4.3c1-0.4,1.9-0.9,2.9-1.3c2.2-0.9,4.5-1.1,6.8-1C189.7,118,189.9,119.1,189.7,120.3z"/>
		<path id="XMLID_296_" fill="#323333" d="M222.1,103.9c-0.2,0.2-0.1,0.4-0.1,0.6c0.1,3.4-2.5,6.4-5.4,7.3c-0.3,0.1-0.8,0.1-0.9,0.6
			c-0.2,0-0.3-0.1-0.3-0.3c-0.2-1.1-0.6-2.1-1-3.1c-0.1-0.1-0.1-0.3,0-0.4c4.2-1,5.8-4.8,4.8-8.6
			C220.2,101.2,221.2,102.5,222.1,103.9z"/>
		<path id="XMLID_295_" fill="#323333" d="M346.1,104.5c0.1,0.1,0.2,0.1,0.4,0.1c3.5-1.3,6.7-0.3,9.8,1.3c0.3,0.1,0.4,0.3,0.7,0.1
			c0.2,0.2,0.1,0.5,0,0.7c-0.6,1.8-0.8,3.6-0.8,5.5c0,0.4,0.1,0.9-0.3,1.2c-0.3-0.8-0.2-1.6-0.1-2.3c0-0.7-0.3-1.2-0.8-1.6
			c-2-1.6-4.3-2.4-6.8-2.5c-0.9,0-1.8-0.2-2.7,0.2C345.7,106.2,345.9,105.4,346.1,104.5z"/>
		<path id="XMLID_294_" fill="#323333" d="M189.6,113.2c-0.1-0.5-0.4-0.7-0.7-0.9c-2-1.4-4.1-2.4-6.6-2.6c-1-0.1-2,0.1-2.9,0
			c0-0.9,0.2-1.8,0.6-2.6c0.4,0.2,0.8-0.1,1.2-0.2c1.8-0.4,3.5,0,5.2,0.5c1.2,0.3,2.2,0.8,3.2,1.4c0.8,0.5,1.1,0.3,1.3-0.5
			c0.1-0.4,0.3-0.7,0.8-0.4c0.1,0.3,0,0.5-0.2,0.7c-0.7,1.3-1.3,2.7-1.6,4.1C189.9,112.9,189.9,113.2,189.6,113.2z"/>
		<path id="XMLID_293_" fill="#323333" d="M201.4,90.8c-0.3,0.3,0,0.4,0.1,0.5c2.3,2.6,2.8,5.7,2.4,9c-0.1,0.5-0.1,1-0.2,1.5
			c-0.1,0.2-0.3,0.2-0.5,0.2c-0.8,0-1.6,0-2.4,0.2c-0.2,0-0.5,0-0.7-0.2c0.7-1.7,1-3.5,0.8-5.4c-0.1-1.9-0.8-3.7-2.1-5.1
			c-0.3-0.4-0.8-0.7-1.4-0.7C198.8,90.5,200.1,90.5,201.4,90.8z"/>
		<path id="XMLID_292_" fill="#323333" d="M381.9,106.5c2.8,0.3,4.3-1.4,5.5-3.5c0.5-1,1.1-2,0.8-3.2c0-0.2,0.1-0.4,0.1-0.6
			c0.7,1,1.3,2.2,1.8,3.3c-0.2,0.6-0.3,1.3-0.5,1.9c-0.8,3.3-3.9,5.7-7.3,5.7C382,108.9,381.8,107.7,381.9,106.5z"/>
		<path id="XMLID_291_" fill="#323333" d="M352.7,126.3c0.3,0,0.3-0.3,0.4-0.4c1.3-2.4,3.1-4.3,5.7-5.3c0,0,0.1-0.1,0.1,0
			c0.7,0.5,1.5,1,2,1.9c-2.1,2-3.9,4.2-4.6,7.1C355.1,128.5,353.8,127.5,352.7,126.3z"/>
		<path id="XMLID_290_" fill="#323333" d="M193.5,105.3c-0.2-3.1-2-5.1-4.7-6.5c-1.2-0.7-2.5-0.3-3.8-0.4c0.5-0.5,0.8-1.1,1.3-1.5
			c0.6,0.2,1.1-0.2,1.6-0.2c3.4,0,7,2.5,8.3,5.7c0.1,0.3,0.2,0.8,0.7,0.8c-0.2,0.6-0.7,0.6-1.1,0.8
			C195.1,104.4,194.5,105.1,193.5,105.3z"/>
		<path id="XMLID_289_" fill="#323333" d="M222.7,120.8c-0.2-0.2-0.4-0.2-0.6-0.1c-2.4,0.5-4.7,0-6.9-1c-0.1-0.1-0.3-0.1-0.5-0.2
			c-0.2-0.3-0.1-0.5,0-0.8c0.5-1.5,0.7-3,0.6-4.6c0-0.4-0.1-0.8,0.3-1.1c0.3,0.7,0.1,1.5,0.1,2.3c0,0.5,0.1,0.8,0.6,0.9
			c2.5,1,5,1.1,7.5,0C223.4,117.7,223.4,119.3,222.7,120.8z"/>
		<path id="XMLID_288_" fill="#323333" d="M213.5,122.3c1,1.8,2.4,3.1,4.1,4.2c0.7,0.4,1.4,0.9,2.3,0.9c-0.6,1.4-1.3,2.7-2.7,3.6
			c0-0.2-0.1-0.4-0.3-0.5c-2.4-1.2-4.2-3.1-5.6-5.3c0-0.1-0.1-0.1-0.2-0.1c0.4-1,1.2-1.5,1.7-2.4C213,122.5,213.2,122.3,213.5,122.3
			z"/>
		<path id="XMLID_287_" fill="#B7C0C2" d="M407.2,53.2c-1.9,2-2.6,4.3-2.7,6.8c-2.4-0.8-4.8-1.6-7.2-2.4
			C399.1,55.2,403.7,53.6,407.2,53.2z"/>
		<path id="XMLID_286_" fill="#323333" d="M193.2,126.1c-2.4,1.3-4.4,3.1-6.1,5.3c-1.1-0.9-1.9-2-2.8-3.1c1.2-1.1,2.3-2.3,3.7-3.1
			c1-0.6,2.1-1.1,3.1-1.7c0.2,0,0.3,0.1,0.3,0.2c0.5,0.7,1,1.4,1.6,2C193.2,125.7,193.3,125.9,193.2,126.1z"/>
		<path id="XMLID_285_" fill="#323333" d="M375.3,98.7c1.3,0.1,2.2-0.6,2.8-1.7c0.8-1.4,1-2.9,0.8-4.5c-0.1-0.7,0-1.5-0.2-2.2
			c1.1,0.5,2.1,1.2,3,2c-0.4,0.4,0,0.9,0,1.3c0.2,3-0.5,5.7-2.8,7.8C377.7,100.6,376.4,99.7,375.3,98.7z"/>
		<path id="XMLID_284_" fill="#323333" d="M386.9,122.6c-2.1-0.5-3.8-1.6-5.3-3.1c-0.4-0.4-0.7-0.9-1-1.4c-0.2-0.2-0.2-0.5-0.6-0.5
			c-0.1-0.2,0-0.3,0-0.5c0.5-0.8,0.8-1.6,1.2-2.4c0.1-0.2,0.1-0.5,0.4-0.4c0,0.8,0.7,1.1,1.1,1.5c1.4,1.3,2.9,2.6,4.9,3
			c0.3,0.1,0.6,0.1,0.9,0.1C388.2,120.3,387.4,121.4,386.9,122.6z"/>
		<path id="XMLID_283_" fill="#323333" d="M357.7,104.3c-0.2-1.7-1.2-3-2.4-4.1c-1.4-1.3-2.9-2.5-4.6-3.3c-0.3-0.1-0.6-0.2-0.9-0.2
			c0.4-0.5,0.8-1.1,1.2-1.6c0.1,0.5,0.6,0.4,0.9,0.5c2.7,0.7,5,2,7,3.9c0.4,0.4,0.8,0.9,1.1,1.4c-0.5,1.2-1.3,2.3-2,3.4
			C357.9,104.3,357.8,104.4,357.7,104.3z"/>
		<path id="XMLID_282_" fill="#323333" d="M192.2,135.2c0.5-0.6,0.5-1.4,0.8-2c0.7-2,2-3.6,3.3-5.2c1-0.1,1.9,0.1,2.7,0.6
			c-1.6,2.2-2.2,4.7-2.8,7.3c0,0.1,0.1,0.3,0.1,0.5C194.9,136,193.5,135.9,192.2,135.2z"/>
		<path id="XMLID_281_" fill="#323333" d="M363.1,132.2c0.3,0,0.5-0.1,0.5-0.5c0.1-2.9,1.2-5.4,3.2-7.5c-0.2-0.3-0.6,0-0.7-0.3
			c1-0.4,2-0.4,3,0c-0.7,1.8-1.4,3.7-1.6,5.6c-0.1,0.6-0.2,1.3-0.2,1.9c-0.1,0.8,0.2,1.1,1,1c0.2,0,0.3,0,0.5,0
			c-0.3,0.3-0.7,0.2-1,0.1C366.2,132.6,364.6,132.5,363.1,132.2z"/>
		<path id="XMLID_280_" fill="#323333" d="M377,130.6c-1.2-1.3-2.3-2.6-2.6-4.4c-0.1-0.9-0.4-1.8-0.1-2.7c0.1-0.2,0.1-0.5-0.1-0.8
			c0.6-0.6,1.3-0.8,2.1-0.8c0.2,1.8,0.8,3.4,1.8,4.8c0.9,1.3,2.3,1.7,3.8,1.6C380.5,129.4,378.8,130.1,377,130.6z"/>
		<path id="XMLID_278_" fill="#323333" d="M208.7,126.9c-0.4,2.3,0.2,4.4,1.4,6.4c0.3,0.5,0.7,1.1,1.5,1c-1.5,0.6-2.9,1.2-4.5,1.5
			c-0.4-1.1-0.9-2.1-1.2-3.2c-0.3-1.6,0-3,0.3-4.5c0-0.1,0-0.3-0.1-0.4C206.8,127,207.7,126.9,208.7,126.9z"/>
		<path id="XMLID_277_" fill="#F4D577" d="M409.7,56.4c0.2,1.8-0.6,3.3-1.8,4.5c-0.3,0.3-0.6,0-0.9-0.1c-0.3-0.1-0.7-0.2-0.6-0.7
			c0.2-1.5,0.3-3,1.1-4.4c0.4-0.7,0.8-1.3,1.3-1.7c0.3-0.3,0.5-0.3,0.6,0.2C409.5,54.9,409.7,55.6,409.7,56.4z"/>
		<path id="XMLID_276_" fill="#1B190B" d="M290.9,55.3c-0.1,0.3-0.2,0.6-0.3,0.9c-0.1,0.4-0.4,0.6-0.8,0.5c-2.2-0.2-4.4,0-6.7,0
			c-15,0.1-30,0-45,0c-3.3,0-6.5,0-9.8,0c-0.6,0-1.4,0.5-1.7-0.4c-0.1-0.5-0.3-1.1-0.4-1.7c-0.4-2.6-0.3-5.3,0.3-7.8
			c1-4.1,1.8-8.2,3.7-12c3.6-7.3,8.8-13,16.2-16.5c2.8-1.3,5.9-2,8.9-2.5c5.6-1.1,11.2-1.6,16.9-1.8c3.5-0.1,7-0.1,10.5,0.1
			c1.3,0.1,2.7,0.2,3.9,0.7c0.4,0.2,1,0.1,1.5,0.1c2.5,0,2.9,0.4,3.1,2.9c0.2,2.6,0.1,5.2,0.3,7.7c0.4,0.3,0.3,0.7,0.3,1.1
			c0,4.8,0.1,9.6,0,14.3c-0.1,3.3-0.1,6.5-0.3,9.8c-0.1,1.2-0.1,2.4-0.3,3.5C291.2,54.6,291.2,55,290.9,55.3z"/>
		<path id="XMLID_275_" fill="#1B190B" d="M260.5,107.3c-3.3,0.1-7.1-0.2-10.9-0.4c-2.8-0.1-5.5-0.4-8.2-1c-0.8-0.2-1.5-0.5-1.7-1.5
			c-1.1-5-3.9-9.2-7.2-13.1c-1.4-1.7-2.9-3.4-4.7-4.6c-1.7-1.1-2-2.7-2.1-4.4c-0.3-4.4,0.4-8.5,2.8-12.3c0.7-1,1.4-2,2.3-2.9
			c1-0.9,2.3-1.1,3.5-1.1c2.2,0,4.4-0.1,6.6-0.3c2.3-0.1,4.6-0.3,6.9-0.4c2.5-0.1,5.1-0.1,7.6-0.2c6.1-0.2,12.2-0.5,18.4-0.8
			c4.8-0.2,9.6-0.4,14.3-0.2c1.4,0,2.3,1.2,2.9,2.4c0.9,1.9,1.2,4.1,1.3,6.2c0.6,9.3-0.8,18.4-2.8,27.4c-0.4,2-1.4,3.6-3,4.8
			c-0.7,0.5-1.6,0.6-2.4,0.7c-4.3,0.8-8.6,1.2-13,1.4C267.8,107.1,264.4,107.3,260.5,107.3z"/>
		<path id="XMLID_274_" fill="#1A180A" d="M298.8,29.8c0-3.3,0-6.7,0-10c0-1.3,0.2-2.7,0.3-4c0-0.6,0.3-0.9,0.9-1.1
			c0.3-0.1,0.5-0.2,0.8-0.2c2.3,0.1,4.4-1,6.7-1.1c2.3,0,4.6-0.2,6.8-0.1c6.3,0.2,12.6,0.8,18.9,2.1c8.8,1.8,14.9,7.1,19.5,14.5
			c2.8,4.5,4.2,9.5,5.4,14.5c0.7,3.1,1.3,6.2,1.2,9.5c0,1.1-0.4,2.2-0.6,3.3c0,0.3-0.4,0.9-1,0.5c-0.2-0.1-0.4-0.1-0.6-0.1
			c-6.3,0-12.5,0-18.8,0.1c-5.6,0-11.2,0.1-16.8,0.2c-5.2,0.1-10.3,0.1-15.5,0.1c-1.7,0-3.5-0.2-5.2,0c-0.5,0.1-0.7-0.2-0.8-0.7
			c-0.4-1.4-0.5-2.9-0.5-4.3C298.9,45.2,298.7,37.5,298.8,29.8z"/>
		<path id="XMLID_273_" fill="#FBD3CE" d="M334,58.9c3.8-0.2,8,0,12.3-0.2c0.3,0,0.6,0,0.9,0.1c0.6,0.2,1,0.5,1.1,1.2
			c0.1,0.7-0.2,1.2-0.8,1.5c-0.6,0.3-1.3,0.4-2,0.4c-5.7,0.3-11.4,0.1-17.1,0.2c-7.6,0.1-15.2,0.5-22.8,0.5c-1.2,0-2.4,0.1-3.6,0.2
			c-0.4,0-0.7,0-0.8-0.4c-0.1-0.4,0.2-0.6,0.5-0.8c1-0.5,2-0.7,3.1-0.9c4.9-0.8,9.9-1.1,14.8-1.4C324.2,59.2,328.9,59,334,58.9z"/>
		<path id="XMLID_272_" fill="#FEDFDB" d="M290.9,55.3c0.1-0.8,0.2-1.6,0.2-2.3c0.4-6.9,0.5-13.8,0.5-20.7c0-2.2,0-4.5-0.1-6.7
			c0-1.4,0-2.8,0.1-4.2c0-1.9,0.1-3.9,0.3-5.8c0-0.3,0-0.7,0.4-0.7c0.4,0,0.4,0.4,0.5,0.6c0.5,1.7,0.7,3.5,0.9,5.3
			c0.6,6,1,12,0.8,18.1c-0.2,5.2-0.5,10.4-1.3,15.5c-0.1,0.4,0,1.1-0.4,1.1C292.3,55.5,291.5,55.7,290.9,55.3z"/>
		<path id="XMLID_271_" fill="#812517" d="M172.1,64.6c1.1,0.7,0.6,1.5,0.2,2.3c-1.8,3.4-4.1,6.5-6.4,9.6c-1.1,1.4-2.2,2.8-3.3,4.2
			c-0.1,0.2-0.3,0.4-0.4,0.6c-0.2,1.5-1.7,2.1-3.2,1.8c-2.1-0.4-3.5-1.8-4.7-3.4c-0.7-1-1.2-2-1.6-3.1c-0.2-0.8,0-1.3,0.6-1.7
			c0.5,0.1,0.6,0.6,0.8,0.9c0.5,0.7,1.2,1.2,1.9,1.5c0.6,0.3,1.2,0.4,1.7-0.1c0.1-0.1,0.2-0.2,0.3-0.2c1.7-0.1,2.8-1.4,3.9-2.4
			c2.4-2,4.6-4.2,6.8-6.4c1-1.1,2-2.2,2.9-3.4C171.7,64.7,171.8,64.5,172.1,64.6z"/>
		<path id="XMLID_270_" fill="#1B190B" d="M172.1,64.6c-2.6,3.5-5.8,6.4-9,9.3c-1.2,1-2.3,2.1-3.6,3c-0.4,0.2-0.7,0.5-1.2,0.4
			c-0.2,0-0.3,0-0.4,0.1c-0.6,0.7-1.3,0.5-1.9,0.2c-1.2-0.5-2-1.5-2.6-2.6c-1-2.2-1.1-4.5-0.3-6.8c0.5-1.5,1.5-2.7,3.2-3.2
			c3.9-1.1,7.8-1.6,11.7-1.9c1-0.1,2-0.1,3-0.1C172.1,63,172.4,63.5,172.1,64.6z"/>
		<path id="XMLID_269_" fill="#FBD2CD" d="M356,59.9c0,1-0.7,1.6-2.3,2c-0.8,0.2-1.6-0.1-2-0.7c0,0-0.1-0.1-0.1-0.1
			c-0.4-0.8-0.3-1.5,0.3-2.1c0.6-0.8,2.1-1.2,2.8-0.9C355.5,58.2,356,59,356,59.9z"/>
		<path id="XMLID_268_" fill="#1C1A0C" d="M208.7,126.9c-0.9,0.3-1.8,0.4-2.6,0.8c-1.7,0.4-3.4,0.8-5.1,0.9c-0.7,0-1.3-0.1-1.9-0.1
			c-0.9-0.2-1.8-0.4-2.7-0.6c-1.1-0.5-2.1-1.1-3.1-1.8c-0.8-0.8-1.6-1.6-2.1-2.6c-0.6-1-0.9-2.1-1.3-3.1c-0.2-1.1-0.4-2.3-0.5-3.5
			c0-1.2,0.2-2.4,0.3-3.6c0.4-1.4,0.8-2.9,1.5-4.2c0.2-0.4,0.4-0.7,0.6-1.1c0.7-0.8,1-1.9,1.8-2.6c1.1-0.9,2.2-1.5,3.5-2.1
			c1-0.5,2.1-0.7,3.1-1.2c1.2,0,2.4-0.3,3.6-0.2c1.6,0.3,3.1,0.7,4.6,1.3c1.2,0.7,2.4,1.4,3.5,2.3c0.9,1,1.8,2,2.5,3.1
			c0.7,1.2,1,2.5,1.3,3.8c0,0.2,0,0.4,0,0.6c0.1,2.2,0,4.4-0.8,6.5c-0.4,0.9-0.9,1.9-1.3,2.8c-0.7,1-1.4,2-2.3,2.8
			C210.5,125.9,209.6,126.4,208.7,126.9z"/>
		<path id="XMLID_267_" fill="#1C1A0C" d="M376.3,121.8c-0.7,0.3-1.4,0.6-2.1,0.8c-1.7,0.5-3.4,0.9-5.1,1.3c-1,0-2,0-3,0
			c-1.8-0.1-3.5-0.7-5.1-1.7c-0.8-0.5-1.4-1.2-2.2-1.8c-0.6-0.9-1.2-1.7-1.6-2.6c-0.6-1.2-0.9-2.5-1.1-3.8c0-0.2,0-0.4,0-0.6
			c0-2-0.2-4,0.5-6c0.2-0.5,0.3-1,0.5-1.5c0.2-0.5,0.5-1.1,0.7-1.6c0.5-1,1.4-1.8,1.7-2.9c0.1-0.2,0.4-0.4,0.6-0.6
			c1.3-1.1,2.8-1.9,4.3-2.6c2.2-0.8,4.5-1.3,6.9-0.8c1.4,0.2,2.8,0.8,4.1,1.3c1.3,0.7,2.5,1.6,3.6,2.6c1.4,1.5,2.4,3.1,3,5.1
			c0.3,1.2,0.5,2.4,0.5,3.6c-0.2,1.5-0.3,2.9-0.8,4.3c-0.5,1.2-0.9,2.3-1.6,3.3C379.1,119.4,377.8,120.6,376.3,121.8z"/>
		<path id="XMLID_266_" fill="#CCF1FE" d="M272.7,15.6c3.7-0.1,7.5-0.3,11.2-0.2c1.3,0,2.7,0.4,4,0.5c0.7,0,1.5,0.1,2.2,0.2
			c0.4,0.1,0.3,0.3,0.2,0.5c-0.4,5.7-0.3,11.4-0.4,17.1c-0.1,6.9-0.3,13.8-0.6,20.7c0,0.7-0.3,0.8-0.9,0.8
			c-12.9-0.3-25.8-0.1-38.7-0.3c-3.9-0.1-7.7,0.1-11.6,0.1c-0.2,0-0.4,0.1-0.7-0.1c1.2-1.2,2.3-2.5,3.3-3.8c0.3-0.4,0.5,0,0.6,0.2
			c1.2,1,2.3,2.1,3.4,3.1c0.5,0.5,1.8,0.5,2.4,0.2c0.7-0.5,0.8-1.2,0.6-2c-0.1-0.4-0.1-0.8-0.2-1.1c4.4-5.7,8.4-11.6,12.5-17.5
			c3.2-4.6,6.4-9.3,9.7-13.9c0.9-1.2,1.6-2.5,2.4-3.8C272.4,16,272.5,15.8,272.7,15.6z"/>
		<path id="XMLID_264_" fill="#CCF1FE" d="M245.8,48.3c-1.4-1.8-2.7-3.6-4.3-5.2c-0.9-0.8-1.8-1.6-2.8-2.2c-0.6-0.3-1.1-0.6-1.8-0.6
			c-1-0.1-1.9,0.3-2.2,1.1c-0.4,0.8-0.1,1.7,0.5,2.5c0.8,1.1,1.6,2.3,2.2,3.4c0.3,0.5,0.1,1.1-0.5,1.5c-2.5,1.8-4.9,3.8-7.3,5.8
			c-0.5,0.4-0.8,1.1-1.7,1c0.1-2.1-0.3-4.3,0.4-6.3c0.8-2.6,0.6-5.3,1.6-7.9c4-11.3,10.9-19.9,22.7-23.8c2.3-0.7,4.6-1,6.9-1.3
			c3.4-0.4,6.9-0.6,10.4-0.7c0.2,0,0.4,0,0.6,0c0.1,0.3-0.2,0.5-0.3,0.7c-1.2,1.3-2.3,2.5-3.5,3.8c-3.9,4.3-7.7,8.8-11.1,13.5
			c-3.3,4.5-6.5,9.1-9.2,14C246.1,48,246,48.2,245.8,48.3z"/>
		<path id="XMLID_263_" fill="#FEFEFE" d="M245.8,48.3c0.6-1.6,1.6-3,2.5-4.4c3.5-5.8,7.5-11.1,11.7-16.4c2-2.5,4.1-4.9,6.3-7.3
			c1.4-1.5,2.7-3,4-4.4c0.8-0.1,1.5-0.2,2.3-0.1c-0.7,1.7-1.8,3.1-2.7,4.6c-1.7,2.6-3.5,5.1-5.3,7.6c-2.2,3.2-4.5,6.3-6.7,9.6
			c-2.4,3.6-5,7.2-7.6,10.7c-0.7,0.9-1.4,1.8-2.1,2.8c-0.2,0.2-0.4,0.5-0.7,0.5C247.2,50.2,246.4,49.3,245.8,48.3z"/>
		<path id="XMLID_262_" fill="#B7C0C2" d="M243.7,52.2c-0.7-0.5-1.3-1-2-1.4c-0.4-0.3-0.8-0.7-1.3,0.1c-0.5,0.8-1.6,1.4-2.3,2.1
			c-1.4,1.7-3.2,2.5-5.4,2.1c-0.6-0.1-1.3,0-1.9,0c-0.1-0.2,0.2-0.2,0.3-0.3c2.5-2,4.7-4.3,6.9-6.6c0.5-0.5,0.3-0.9,0-1.3
			c-0.8-1.2-1.9-2.3-2.8-3.5c-0.3-0.4-0.6-0.9-0.5-1.4c0.2-1,0.9-1.5,1.8-1.3c1.1,0.2,1.9,0.7,2.8,1.4c2.4,2,4.2,4.4,5.9,6.9
			C245,50.2,244.3,51.1,243.7,52.2z"/>
		<path id="XMLID_261_" fill="#FDFDFD" d="M243.7,52.2c0.3-1.2,1-2.2,1.7-3.2c0.6,0.9,1.4,1.7,1.8,2.8c0.2,0.9-0.3,1.4-1,1.8
			c-0.3,0.2-0.5,0.1-0.7-0.1C244.9,53.1,244.3,52.7,243.7,52.2z"/>
		<path id="XMLID_260_" fill="#A9B0AF" d="M246.2,53.7c0.4-0.6,1.1-1,1-1.8C247.5,53.1,247.2,53.6,246.2,53.7z"/>
		<path id="XMLID_259_" fill="#CE3820" d="M276.4,66.3c0.5-0.2,1.1-0.1,1.6-0.1c3.5,0,6.9-0.2,10.4-0.4c0.5,0,0.7,0.1,0.8,0.6
			c0.6,2.2,1,4.4,1.1,6.7c0.1,0.5,0.2,1.1-0.3,1.5c-0.2,0.1-0.2,0.4-0.2,0.6c0,3.1-1,5.9-2.2,8.6c-2.3,5.6-5.9,10.4-10.4,14.5
			c-3.2,2.9-6.8,5.3-10.9,6.9c-4.7,0.1-9.4,0.3-14.1,0.1c-3.4-0.1-6.8-0.3-10.2-0.3c-0.3,0-0.6,0-0.6-0.5c-0.3-3.1-1.6-5.8-3.2-8.4
			c-2.5-4.1-5.5-7.6-9.5-10.3c-0.5-0.3-0.9-0.6-1.4-0.9c1.4-2.5,1.9-5.4,2.6-8.2c0.3-1.1,0.5-2.2,0.8-3.4c0.1-0.3,0.1-0.5,0.2-0.8
			c0.9-1.9,4.1-3.8,6.2-3.6c1.4,0.2,2.9,0.2,4.4,0.2c6.2,0.3,12.5,0.2,18.7,0.2c2.2,0,4.5,0.1,6.7,0c4.7-0.2,9.3-0.4,13.9-1.2
			c0.4-0.1,0.9-0.1,1.3-0.3c0.3-0.1,0.5-0.2,0.5-0.6c0-0.3-0.3-0.4-0.6-0.5c-1-0.3-2.1-0.4-3.1-0.4c-0.6,0-1.2,0-1.7,0
			C277,66.6,276.7,66.7,276.4,66.3z"/>
		<path id="XMLID_258_" fill="#812517" d="M266.4,105.3c0.2-0.3,0.5-0.5,0.8-0.6c3-1.2,5.6-2.9,8.1-4.9c4-3.2,7.3-7,9.9-11.3
			c2-3.3,3.4-6.9,4.2-10.6c0.2-0.8,0.3-1.6,0.2-2.4c0-0.5-0.2-1,0.5-1.2c0.4-0.1,0.1-0.7,0.2-1.1c0.2,0.3,0.2,0.7,0.1,1
			c0,2.6,0.1,5.1-0.2,7.7c-0.3,3.5-0.8,7-1.4,10.4c-0.5,2.7-0.9,5.4-1.7,8.1c-0.4,1.4-1.3,2.4-2.6,3.2c-1.5,0.9-3.2,1-4.9,1.1
			c-4,0.2-8.1,0.4-12.1,0.6C267.2,105.3,266.8,105.3,266.4,105.3z"/>
		<path id="XMLID_257_" fill="#FEDFDB" d="M276.4,66.3c1.8,0,3.6,0,5.4,0.4c0.1,0,0.3,0,0.4,0.1c0.4,0.1,0.9,0.3,0.9,0.8
			c0,0.5-0.4,0.7-0.8,0.8c-0.9,0.2-1.7,0.4-2.6,0.5c-6.7,0.8-13.4,1.1-20.1,1c-6,0-12.1,0-18.1-0.2c-2-0.1-3.9-0.3-5.9-0.2
			c-0.4,0-0.7,0.1-1,0.3c-1.1,0.7-2,1.6-3,2.5c-0.3,0.3-0.4,0.7-0.5,1c-0.8,3.6-1.5,7.1-2.8,10.6c-0.2,0.5-0.3,1-0.9,1.2
			c-0.3-0.1-0.4-0.4-0.3-0.7c0.2-4,0.6-7.9,1.9-11.6c0.5-1.5,1.2-2.8,2.3-4c0.3-0.3,0.5-0.6,0.9-0.7c1.5-0.3,3-0.8,4.5-0.9
			c7.8-0.1,15.6-0.1,23.5-0.3C265.6,66.7,271,66.5,276.4,66.3z"/>
		<path id="XMLID_256_" fill="#CCF1FE" d="M334.8,17.1c5.5,1.9,10,5.3,13.5,9.9c4.1,5.4,7,11.3,8.1,18c0.1,0.8,0.3,1.6,0.2,2.4
			c-0.1,1.2,0.6,2.2,0.7,3.4c0.1,1.7,0.1,3.5,0.2,5.2c0,0.3,0,0.4-0.4,0.3c-4.5-0.8-9.1-0.6-13.6-0.6c-13.6,0.1-27.2,0.2-40.8,0.6
			c-1.6,0-1.6,0-1.7-1.6c0-0.1,0-0.2,0-0.3c1.5,0.7,2.5-0.3,3.4-1.2c2.1-2,4.1-4.1,6-6.2c2.2-2.5,4.3-5,6.5-7.4
			c2.8-3.1,5.4-6.2,8.1-9.4c2.5-3.1,5.2-6.1,7.5-9.4C333.4,19.5,334.3,18.4,334.8,17.1z"/>
		<path id="XMLID_255_" fill="#CCF1FE" d="M301.1,54.2c-0.2-1.4-0.2-2.8-0.3-4.3c-0.3-8.6-0.5-17.3-0.7-25.9c0-2.4-0.1-4.9-0.3-7.3
			c-0.1-1.1,0-1.3,1.2-1.3c1.1,0,2.2,0,3.3-0.3c3.2-0.8,6.5-0.1,9.7-0.2c3.2-0.1,6.5,0.1,9.7,0.4c2.8,0.2,5.5,0.6,8.3,0.9
			c0.7,0.1,1.4,0.4,2.1,0.6c-0.2,0.4-0.6,0.7-1,1c-5.8,5.8-11.6,11.5-17.3,17.3c-2.7,2.7-5.2,5.5-7.7,8.4c-2.1,2.4-4,4.8-5.9,7.4
			c-0.6,0.8-1.1,1.6-1,2.7C301.3,53.9,301.3,54.1,301.1,54.2z"/>
		<path id="XMLID_254_" fill="#FEFEFE" d="M301.1,54.2c-0.4-2.1,1.1-3.4,2.2-4.9c2.3-3.1,4.8-5.9,7.4-8.8
			c7.2-8.1,15.2-15.5,22.8-23.2c0.2-0.2,0.4-0.4,0.7-0.4c0.3,0,0.4,0.1,0.7,0.2c0.2,0.9-0.5,1.5-0.9,2.1c-3,4.5-6.6,8.5-10,12.7
			c-2.3,2.8-4.7,5.5-7.1,8.3c-2.7,3-5.2,6.1-7.9,9c-1.6,1.8-3.3,3.6-5.2,5.1c-1,0.8-1.5,0.8-2.5,0.1C301,54.3,301,54.2,301.1,54.2z"
			/>
		<path id="XMLID_253_" fill="#B7C0C2" d="M159.8,74.1c0.2-3.4-0.9-6-3.8-8.1c5.3-0.7,10.3-1.3,15.6-1.6
			C167.7,67.9,163.7,70.8,159.8,74.1z"/>
		<path id="XMLID_252_" fill="#F5D577" d="M157.9,72.8c0.1,1-0.3,2.1-0.9,3.1c-0.2,0.3-0.4,0.2-0.6,0.1c-0.9-0.5-1.6-1.3-2-2.3
			c-0.8-2-0.7-4-0.2-6c0.1-0.5,1-0.4,0.9-1.1c0.1,0.1,0.3,0.1,0.4,0.2c0.5,0.4,0.9,0.9,1.1,1.4C157.5,69.7,158,71.1,157.9,72.8z"/>
		<path id="XMLID_251_" fill="#B7C0C2" d="M201.8,102.4c5.6-0.3,12.8,4.1,13.1,11.4c0.1,4.1-1.4,7.6-4.2,10.5
			c-2.1,2.1-4.9,3-7.9,3.4c-2.5,0.4-4.9,0-7.1-1.2c-3.5-1.8-5-4.9-5.5-8.6c-0.5-4.3,0.6-8.2,3.3-11.7c1.9-2.5,4.4-3.3,7.2-3.8
			C201.1,102.4,201.4,102.5,201.8,102.4z"/>
		<path id="XMLID_250_" fill="#B7C0C2" d="M368.5,97.8c5.8-0.3,13.2,4.4,13.1,11.9c0,3.8-1.4,7.1-4,9.8c-2.1,2.2-5,3.1-8,3.6
			c-2,0.3-4,0.1-5.9-0.6c-4.2-1.5-6.2-4.8-6.7-9c-0.6-4.4,0.6-8.3,3.2-11.8c1.9-2.5,4.5-3.3,7.3-3.8C367.7,97.8,368,97.8,368.5,97.8
			z"/>
		<path id="XMLID_249_" fill="#FEFEFE" d="M258.2,54.8c-0.7,0-1.2,0-1.6,0c-0.7,0-0.8-0.3-0.7-0.9c0.1-1.2,0.7-2.1,1.3-3.1
			c2.3-3.8,5-7.3,7.7-10.9c1.9-2.6,3.9-5.2,5.9-7.7c1.9-2.4,3.8-4.7,5.7-7c1.8-2.1,3.7-4.1,5.5-6.2c0.4-0.5,1-0.9,1.5-1.3
			c0.4-0.3,0.9-0.5,1.3-0.1c0.5,0.4,0.3,0.8,0.1,1.2c-1.3,2.5-2.9,4.8-4.5,7.1c-2,2.9-4.1,5.8-6.2,8.7c-4.4,6.3-8.8,12.7-13.3,18.9
			C260,54.9,259.1,54.9,258.2,54.8z"/>
		<path id="XMLID_248_" fill="#FEFEFE" d="M251.3,28.9c0.1,1.3-0.2,2.4-1.1,3.4c-0.6,0.7-1.7,1.1-2.4,0.7c-0.7-0.3-1.1-1.3-0.9-2.3
			c0.4-1.8,1.8-2.8,3.2-3.8c0.5-0.3,1,0,1.2,0.7C251.3,28.2,251.3,28.6,251.3,28.9z"/>
		<path id="XMLID_247_" fill="#1B190B" d="M279.2,73.6c0.1-1.4,0.6-3.1,2.5-4c2.4-1.2,4.7-0.1,5.3,2.5c0.4,1.7,0,3.2-1.1,4.6
			c-1.2,1.4-2.9,1.9-4.4,1.3C280,77.5,279.1,76,279.2,73.6z"/>
		<path id="XMLID_246_" fill="#FEFEFE" d="M322.9,45.7c-1.4,0.1-2.6-1.6-2.3-2.9c0.2-0.7,0.6-1.3,1.1-1.8c4.8-4.3,9.9-8.3,14.9-12.3
			c0.3-0.2,0.5-0.6,0.9-0.3c0.5,0.3,0.1,0.7-0.1,1c-1.2,2-2.8,3.8-4.2,5.6c-1.6,2-3.2,3.9-4.8,5.8c-1.2,1.4-2.5,2.8-3.9,4.1
			C324.2,45.5,323.5,45.6,322.9,45.7z"/>
		<path id="XMLID_244_" fill="#1B190B" d="M205.9,115.7c0,1.7-1.4,3.5-2.9,3.5c-1.9,0-3.5-1.4-3.4-3c0.1-2,1.2-3.6,3.2-3.6
			C204.6,112.6,205.9,114,205.9,115.7z"/>
		<path id="XMLID_243_" fill="#1B190B" d="M372.6,111.6c0,1.7-1.4,3.4-2.9,3.4c-1.9,0-3.5-1.4-3.4-3c0.1-2,1.2-3.6,3.2-3.6
			C371.2,108.5,372.6,109.9,372.6,111.6z"/>
	</g>
	<g id="XMLID_224_">
		<path id="XMLID_232_" fill="#FFFFFF" d="M17.4,82h12.3v51.2h24.9v10.3H17.4V82z"/>
	</g>
	<g id="XMLID_228_">
		<path id="XMLID_375_" fill="#FFFFFF" d="M127.8,127.7h-20l-4.3,15.8H91.1L110.8,82h14.5l19.8,61.5h-12.9L127.8,127.7z
			 M125.2,118.2l-1.8-6.7c-1.9-6.4-3.6-13.5-5.4-20.1h-0.3c-1.6,6.7-3.4,13.7-5.2,20.1l-1.8,6.7H125.2z"/>
	</g>
	<g id="XMLID_230_">
		<path id="XMLID_234_" fill="#FFFFFF" d="M262,82h16.9c18.8,0,30.4,9.7,30.4,30.5c0,20.7-11.6,31-29.8,31H262V82z M278.2,133.6
			c11.5,0,18.6-6.2,18.6-21.1c0-15-7.2-20.7-18.6-20.7h-3.8v41.8H278.2z"/>
	</g>
	<g id="XMLID_229_">
		<path id="XMLID_378_" fill="#FFFFFF" d="M425,82h12.6l17.9,32.8l6.2,13.3h0.4c-0.7-6.4-1.6-14.6-1.6-21.5V82h11.6v61.5h-12.5
			l-17.8-32.9l-6.2-13.2h-0.4c0.6,6.7,1.5,14.4,1.5,21.5v24.7H425V82z"/>
	</g>
	<g id="XMLID_226_">
		<path id="XMLID_526_" fill="#FFFFFF" d="M515.4,113c0-20.3,13.1-32.2,29.5-32.2c8.9,0,15,3.8,19,7.9l-6.6,7.8
			c-3-2.9-6.5-5.2-12.1-5.2c-10.2,0-17.4,8-17.4,21.2c0,13.4,6.2,21.5,18.2,21.5c3,0,6-0.8,7.7-2.3v-12.1H543v-10.1h21.9v27.8
			c-4.2,4.1-11.4,7.4-20,7.4C528.2,144.7,515.4,133.5,515.4,113z"/>
	</g>
</g>
<g id="XMLID_225_">
</g>
<g id="XMLID_227_">
</g>
<g id="XMLID_231_">
</g>
<g id="XMLID_374_">
</g>
<g id="XMLID_393_">
</g>
<g id="XMLID_397_">
</g>
</svg>
