<?xml version="1.0" encoding="utf-8"?>
<!-- Generator: Adobe Illustrator 19.0.0, SVG Export Plug-In . SVG Version: 6.00 Build 0)  -->
<svg version="1.1" id="图层_1" xmlns="http://www.w3.org/2000/svg" xmlns:xlink="http://www.w3.org/1999/xlink" x="0px" y="0px"
	 viewBox="0 0 9.2 9.2" style="enable-background:new 0 0 9.2 9.2;" xml:space="preserve">
<style type="text/css">
	.st0{fill:#1B190B;}
	.st1{fill:#55595A;}
	.st2{fill:#323333;}
	.st3{fill:#1B1A0C;}
	.st4{fill:#B7C0C2;}
</style>
<g id="XMLID_133_">
	<path id="XMLID_186_" class="st0" d="M8.9,4.2c0,1.1-0.2,2-0.7,2.8C8.1,7.4,7.8,7.6,7.5,7.9c-0.3,0.2-0.6,0.5-1,0.6
		c-1.4,0.6-2.7,0.6-4-0.2C1.6,7.8,0.9,7,0.5,5.9C0.3,5.3,0.2,4.7,0.3,4.1C0.4,3.5,0.6,3,0.9,2.5C1.2,2.1,1.6,1.7,2,1.3
		C2.2,1.1,2.4,1,2.6,0.8c0.3-0.3,0.8-0.4,1.2-0.5c0.4-0.1,0.8-0.1,1.2,0c0.4,0.1,0.8,0.2,1.2,0.4C6.6,0.9,7,1.2,7.4,1.5
		c0.5,0.4,0.9,0.9,1.1,1.4C8.8,3.3,9,3.9,8.9,4.2z"/>
	<path id="XMLID_185_" class="st1" d="M1.6,2.1c0.3-0.4,0.7-0.6,1-1C2.7,1,2.8,1,2.9,1C2.9,1,3,1.1,3,1.1c0.1,0,0.3,0.1,0.4,0.2
		c0.3,0.3,0.5,0.6,0.6,1c0,0.1,0,0.2,0,0.3C3.9,2.7,3.8,2.7,3.7,2.8C3.5,2.9,3.4,3,3.2,3.1c0,0-0.1,0-0.1-0.1
		C2.8,2.6,2.3,2.3,1.8,2.2C1.6,2.1,1.6,2.1,1.6,2.1z"/>
	<path id="XMLID_184_" class="st1" d="M8.5,3.4C8.6,3.6,8.7,3.8,8.7,4c0.1,0.8-0.2,1.5-0.4,2.2c0,0,0,0,0,0.1c-0.1,0.1-0.1,0-0.2,0
		C7.7,6.2,7.4,5.9,7.1,5.7C7,5.6,7,5.5,7,5.4c0.1-0.2,0.1-0.5,0.2-0.7c0,0,0.1,0,0.1,0c0.6-0.1,1-0.5,1.2-1C8.5,3.5,8.4,3.4,8.5,3.4
		z"/>
	<path id="XMLID_183_" class="st1" d="M0.9,6C0.7,5.4,0.6,4.9,0.7,4.3c0-0.1,0-0.1,0-0.2c0,0,0.1-0.1,0.1-0.1c0.6,0,1.1,0.1,1.5,0.4
		c0.1,0.1,0.2,0.2,0.2,0.4c0,0.1,0,0.2,0,0.4c0,0,0,0.1,0,0.1c0,0.1-0.1,0.1-0.2,0.1c-0.3,0-0.5,0-0.8,0.1C1.4,5.7,1.2,5.8,1.1,5.9
		C1,6,1,6,0.9,6z"/>
	<path id="XMLID_182_" class="st1" d="M7.1,1.6c0.5,0.3,0.8,0.7,1.2,1.2c0.1,0.2,0,0.4-0.1,0.5C8,3.6,7.9,3.8,7.6,4
		C7.4,4.1,7.3,4.1,7.1,4.1c0,0,0,0,0-0.1C6.9,3.7,6.8,3.5,6.6,3.2c0,0,0-0.1,0-0.1c0-0.1,0.1-0.1,0.1-0.1C6.9,2.8,7,2.4,7,2.1
		c0-0.1,0-0.3,0-0.4C7,1.6,7,1.6,7.1,1.6z"/>
	<path id="XMLID_181_" class="st2" d="M4,2.6c0-0.5-0.2-0.8-0.5-1.2C3.4,1.3,3.3,1.2,3.1,1.1c0,0-0.1,0-0.1,0C2.9,1.1,2.9,1.1,2.9,1
		c0.1,0,0.2-0.1,0.3-0.1C3.9,1,4.2,1.5,4.5,2c0,0,0,0.1,0,0.1c0,0.1,0.1,0.1,0.1,0c0.1-0.1,0.2-0.3,0.2-0.4c0-0.4-0.1-0.7-0.3-1
		c0-0.1-0.1-0.1-0.2-0.1c-0.1,0-0.1,0-0.2-0.1c0.3,0,0.6,0,1,0.1c0,0.1,0,0.1,0.1,0.2c0.2,0.5,0.3,0.9,0.1,1.4
		c0,0.1-0.1,0.2-0.1,0.2c-0.2,0-0.4,0-0.6,0c-0.1,0-0.3,0.1-0.4,0.1C4.1,2.6,4,2.7,4,2.6z"/>
	<path id="XMLID_180_" class="st1" d="M5.2,2.5c0.3-0.6,0.3-1.2-0.1-1.7c0-0.1-0.1-0.1,0-0.1c0.5,0.1,1,0.3,1.4,0.6
		c0.1,0.1,0.1,0.3,0.1,0.5c0,0.3,0,0.5-0.2,0.8C6.3,2.7,6.2,2.8,5.9,2.7C5.7,2.6,5.4,2.6,5.2,2.5z"/>
	<path id="XMLID_179_" class="st1" d="M8,6.9c-0.2,0.4-0.4,0.7-0.8,1c0,0-0.1,0-0.1,0C6.8,8,6.6,7.9,6.4,7.7
		C6.2,7.4,6.1,7.1,6.1,6.8c0,0,0-0.1,0-0.1C6.4,6.5,6.5,6.3,6.7,6c0.1,0,0.1,0,0.1,0.1C7.1,6.5,7.5,6.7,8,6.9C7.9,6.9,8,6.8,8,6.9z"
		/>
	<path id="XMLID_178_" class="st1" d="M6.2,8.3C6.1,8.4,5.9,8.4,5.7,8.5C5.4,8.6,5.1,8.6,4.8,8.7c-0.3,0-0.3,0-0.3-0.3
		c0.1-0.4,0.1-0.8,0.3-1.2c0,0,0.1-0.1,0.1-0.1C5.1,7,5.4,7,5.6,6.9c0,0,0.1,0,0.1,0c0.1,0,0.1,0.1,0.1,0.2c0,0.4,0.1,0.8,0.4,1.1
		C6.2,8.2,6.2,8.2,6.2,8.3z"/>
	<path id="XMLID_177_" class="st1" d="M0.8,3.7c0-0.1,0.1-0.3,0.1-0.4C1,3,1.2,2.7,1.4,2.4c0,0,0.1,0,0.2,0c0.5,0.2,0.9,0.6,1.2,1.1
		c0,0.1,0.1,0.2,0.1,0.3c0,0.1-0.1,0.2-0.1,0.3C2.6,4.1,2.6,4,2.5,4C2.1,3.8,1.8,3.7,1.3,3.7c-0.1,0-0.3,0-0.4,0.1
		C0.9,3.8,0.8,3.8,0.8,3.7z"/>
	<path id="XMLID_176_" class="st1" d="M3.8,8.6c-0.4,0-0.8-0.2-1.2-0.5c0-0.1,0-0.1,0-0.2c0.1-0.4,0.4-0.7,0.7-1c0,0,0.1,0,0.1,0
		c0.1,0,0.2,0.1,0.3,0.1C3.9,7,4.1,7.1,4.3,7.1c0.2,0.1,0.2,0.1,0.1,0.2C4.1,7.7,3.9,8,3.9,8.5C3.9,8.5,3.9,8.6,3.8,8.6z"/>
	<path id="XMLID_175_" class="st1" d="M2,7.5c-0.3-0.3-0.5-0.6-0.8-1c0-0.1,0.1-0.1,0.1-0.2c0.4-0.2,0.7-0.3,1.1-0.3
		c0.1,0,0.2,0,0.3,0C2.9,6.2,3,6.3,3,6.5C2.9,6.6,2.8,6.7,2.7,6.7C2.4,6.9,2.2,7.2,2.1,7.5C2,7.5,2,7.6,2,7.5z"/>
	<path id="XMLID_174_" class="st1" d="M4.2,0.6c0,0,0.1,0,0.1,0c0.1,0,0.2,0,0.3,0.2c0.2,0.3,0.3,0.6,0.2,1c0,0.2-0.1,0.3-0.2,0.5
		c-0.1,0.1-0.1,0.1-0.1,0C4.3,1.7,4,1.2,3.5,1c-0.1,0-0.1-0.1-0.2-0.1c0,0-0.1,0-0.1-0.1c0.2-0.1,0.3-0.1,0.5-0.2
		C3.9,0.6,4,0.5,4.2,0.6z"/>
	<path id="XMLID_173_" class="st2" d="M2.7,6.1c-0.5,0-1,0.2-1.5,0.4c0,0-0.1,0-0.1,0.1C1.1,6.4,1,6.2,0.9,6c0,0,0.1,0,0.1,0
		c0.4-0.4,0.8-0.5,1.3-0.5c0.1,0,0.1,0,0.2,0c0,0,0,0,0.1,0C2.6,5.6,2.7,5.8,2.7,6.1C2.7,6,2.7,6.1,2.7,6.1z"/>
	<path id="XMLID_172_" class="st2" d="M0.8,3.7C0.8,3.7,0.8,3.7,0.8,3.7C1.5,3.5,2,3.7,2.6,4c0,0,0.1,0.1,0.1,0c0,0,0,0.1,0,0.1
		c-0.1,0.3-0.1,0.6-0.1,1c0,0.1,0,0.2,0,0.2c-0.1-0.1,0-0.3,0-0.4c0-0.1,0-0.2-0.1-0.3C2,4.3,1.6,4.2,1.2,4.2c-0.2,0-0.3,0-0.5,0
		C0.7,4,0.7,3.9,0.8,3.7z"/>
	<path id="XMLID_171_" class="st2" d="M7.1,4.1c0.5,0,0.8-0.2,1-0.6c0.1-0.2,0.2-0.3,0.1-0.6c0,0,0-0.1,0-0.1C8.3,3,8.4,3.2,8.5,3.4
		c0,0.1-0.1,0.2-0.1,0.3c-0.1,0.6-0.7,1-1.3,1C7.1,4.5,7.1,4.3,7.1,4.1z"/>
	<path id="XMLID_170_" class="st2" d="M2,7.5C2,7.5,2,7.5,2,7.5c0.3-0.5,0.6-0.8,1.1-1c0,0,0,0,0,0c0.1,0.1,0.3,0.2,0.4,0.3
		C3,7.2,2.7,7.6,2.6,8.1C2.4,7.9,2.1,7.8,2,7.5z"/>
	<path id="XMLID_169_" class="st2" d="M5.9,2.7c0.2,0,0.4-0.1,0.5-0.3c0.1-0.2,0.2-0.5,0.1-0.8c0-0.1,0-0.3,0-0.4
		c0.2,0.1,0.4,0.2,0.5,0.3c0,0,0,0.1,0,0.1c0.1,0.4,0,0.8-0.2,1.2C6.8,3,6.6,3.1,6.6,3.2c0,0,0,0,0,0C6.3,3,6.1,2.9,5.9,2.7
		C5.9,2.7,5.9,2.7,5.9,2.7z"/>
	<path id="XMLID_168_" class="st2" d="M8,6.9C7.6,6.8,7.3,6.6,7,6.4C7,6.3,6.9,6.2,6.8,6.1c0,0,0-0.1-0.1-0.1c0,0,0-0.1,0-0.1
		C6.8,5.8,6.9,5.7,7,5.5c0,0,0-0.1,0.1-0.1c0,0.1,0.1,0.2,0.2,0.3C7.5,6,7.7,6.2,8.1,6.3c0.1,0,0.1,0,0.2,0C8.2,6.5,8.1,6.7,8,6.9z"
		/>
	<path id="XMLID_167_" class="st2" d="M2.8,3.7c0-0.3-0.2-0.5-0.4-0.7C2.2,2.7,1.9,2.5,1.6,2.4c0,0-0.1,0-0.2,0
		c0.1-0.1,0.1-0.2,0.2-0.3c0,0.1,0.1,0.1,0.2,0.1C2.3,2.3,2.7,2.5,3,2.8C3.1,2.9,3.2,3,3.2,3.1C3.1,3.3,3,3.5,2.8,3.7
		C2.9,3.7,2.8,3.7,2.8,3.7z"/>
	<path id="XMLID_147_" class="st2" d="M3.8,8.6C3.8,8.6,3.9,8.6,3.8,8.6c0.1-0.6,0.3-1,0.7-1.4c0,0-0.1,0-0.1-0.1
		c0.2-0.1,0.3-0.1,0.5,0c-0.1,0.3-0.2,0.6-0.3,1c0,0.1,0,0.2,0,0.3c0,0.1,0,0.2,0.2,0.2c0,0,0.1,0,0.1,0c-0.1,0-0.1,0-0.2,0
		C4.3,8.7,4,8.6,3.8,8.6z"/>
	<path id="XMLID_146_" class="st2" d="M6.2,8.3C6,8.1,5.8,7.8,5.8,7.5c0-0.2-0.1-0.3,0-0.5c0,0,0-0.1,0-0.1C5.8,6.8,6,6.8,6.1,6.8
		c0,0.3,0.1,0.6,0.3,0.8c0.2,0.2,0.4,0.3,0.7,0.3C6.8,8.1,6.5,8.2,6.2,8.3z"/>
	<path id="XMLID_142_" class="st3" d="M6.1,6.8C6,6.8,5.8,6.9,5.7,6.9C5.4,7,5.1,7.1,4.8,7.1c-0.2,0-0.3,0-0.5,0
		C4,7.1,3.7,7,3.4,6.9C3.3,6.8,3.2,6.6,3,6.5C2.9,6.4,2.8,6.2,2.7,6.1C2.6,5.9,2.6,5.6,2.5,5.4c0,0,0-0.1,0-0.1c0-0.4,0-0.7,0.1-1.1
		c0-0.1,0.1-0.2,0.1-0.3c0-0.1,0.1-0.2,0.1-0.3c0.1-0.2,0.2-0.3,0.3-0.5c0,0,0.1-0.1,0.1-0.1C3.5,2.9,3.7,2.7,4,2.6
		c0.4-0.1,0.8-0.2,1.2-0.1c0.3,0,0.5,0.1,0.7,0.2C6.2,2.8,6.4,3,6.6,3.2C6.8,3.4,7,3.7,7.1,4.1c0.1,0.2,0.1,0.4,0.1,0.6
		C7.1,5,7.1,5.2,7,5.5C6.9,5.7,6.9,5.9,6.7,6C6.6,6.3,6.4,6.6,6.1,6.8z"/>
	<path id="XMLID_135_" class="st4" d="M4.6,2.6C5.7,2.5,7,3.3,7,4.5c0,0.7-0.4,1.9-1.4,2.3C5.1,7,4.6,7.1,4.1,7
		C3.3,6.8,2.9,6.2,2.7,5.5c-0.2-0.8,0-1.6,0.5-2.2C3.6,2.7,4.1,2.6,4.6,2.6z"/>
	<path id="XMLID_134_" class="st0" d="M5.4,5c0,0.3-0.2,0.6-0.5,0.6c-0.3,0-0.6-0.2-0.6-0.5c0-0.4,0.2-0.6,0.6-0.6
		C5.2,4.4,5.4,4.7,5.4,5z"/>
</g>
</svg>
