<?xml version="1.0" encoding="utf-8"?>
<!-- Generator: Adobe Illustrator 23.0.0, SVG Export Plug-In . SVG Version: 6.00 Build 0)  -->
<svg version="1.1" id="图层_1" xmlns="http://www.w3.org/2000/svg" xmlns:xlink="http://www.w3.org/1999/xlink" x="0px" y="0px"
	 viewBox="0 0 512 140" style="enable-background:new 0 0 512 140;" xml:space="preserve">
<style type="text/css">
	.st0{opacity:0.35;}
</style>
<g>
	<g>
		<path d="M104.69,32.33c-9.4,1.26-11.78,2.52-16.83,15.15c-3.79,9.26-23.15,56.25-30.02,73.65h-4.63
			c-8.28-22.58-20.34-55.41-28.34-76.17C20.94,34.58,18.56,33.17,10,32.33v-3.93h35.63v3.93c-10.38,1.12-10.94,2.81-8.98,8
			c3.51,10.24,13.75,38.16,22.58,61.44c7.44-18.1,16.69-40.96,23.29-58.64c3.09-8.14,1.4-9.4-10.1-10.8v-3.93h32.27V32.33z"/>
		<path d="M147.61,119.59v-3.93c9.12-1.12,10.24-2.52,8.28-7.85c-1.82-5.47-4.63-12.49-7.58-21.32h-30.3
			c-2.24,6.31-4.35,11.78-6.31,17.54c-3.09,9.12-1.12,10.24,10.38,11.64v3.93h-32.4v-3.93c8.84-1.12,11.08-2.1,15.99-14.73
			l29.04-73.65l4.49-0.84c8.84,23.99,18.52,50.5,27.35,74.77c4.49,12.2,5.75,13.33,15.71,14.45v3.93H147.61z M133.58,44.82
			c-4.49,12.06-9.26,24.83-13.47,35.91h26.23L133.58,44.82z"/>
		<path d="M502,32.33c-224.44,1.43-229.66-0.31-229.55,8.84c0.06,4.49-0.42,10.38-0.42,23.43v56.25h-5.33l-60.04-73.37v35.07
			c0,12.62,0.42,18.94,0.7,23.01c0.28,7.15,3.79,9.26,13.89,10.1v3.93h-34.09v-3.93c8.7-0.7,12.07-2.81,12.63-9.68
			c0.42-4.49,0.7-10.8,0.7-23.57V46.64c0-3.93-0.28-6.17-2.81-9.26c-2.66-3.51-5.61-4.35-12.48-5.05v-3.93h21.04l59.48,70.56V64.6
			c0-13.05-0.28-19.08-0.7-23.29c-0.42-6.31-3.65-8.28-14.87-8.98v-3.93H502V32.33z"/>
	</g>
	<g class="st0">
		<path d="M312.21,97.37c-0.78,2.2-1.78,4.93-2.67,7.21c1.98,2.39,2.48,4.4,2.48,6.18c0.03,1.34-0.28,2.53-0.95,3.01
			c-0.33,0.25-0.78,0.39-1.28,0.45c-0.53,0.06-1.2,0.06-1.75,0.06c-0.03-0.39-0.17-0.92-0.39-1.28c0.67,0.06,1.2,0.06,1.64,0.03
			c0.39,0,0.67-0.08,0.86-0.25c0.45-0.33,0.61-1.22,0.61-2.12c-0.03-1.59-0.53-3.56-2.56-5.93c0.89-2.17,1.78-4.68,2.37-6.62h-4.34
			v22.79h-1.25V96.84h6.12l0.22-0.06L312.21,97.37z M316.83,112.48c-0.95,2.28-2.48,5.04-4.12,6.85c-0.2-0.25-0.67-0.58-0.95-0.78
			c1.56-1.73,3.03-4.34,3.76-6.43L316.83,112.48z M321.22,109.39v9.66c0,0.89-0.22,1.31-0.83,1.53c-0.67,0.25-1.87,0.25-3.76,0.25
			c-0.03-0.36-0.25-0.89-0.45-1.31c1.56,0.06,2.87,0.03,3.23,0.03c0.39-0.03,0.5-0.11,0.5-0.53v-9.63h-3.76
			c-1.36,0-2.14,0.14-2.37,0.39c-0.08-0.33-0.31-0.97-0.47-1.34c0.47-0.11,0.89-1.06,1.5-2.39c0.36-0.75,1.2-2.81,2-5.29h-4.37
			v-1.25h4.79c0.39-1.31,0.75-2.7,1.06-4.06l1.39,0.31c-0.33,1.25-0.67,2.5-1.08,3.76h10.05v1.25h-10.46
			c-0.89,2.67-1.92,5.23-2.98,7.38h4.7v-4.62h1.31v4.62h6.4v1.25H321.22z M325.37,112.06c1.31,2.06,2.92,4.84,3.7,6.43l-1.17,0.61
			c-0.75-1.61-2.34-4.48-3.65-6.6L325.37,112.06z"/>
		<path d="M337.29,116.01c0.67,0.22,1.28,0.83,2.45,1.53c1.73,1.03,4.01,1.22,7.07,1.22c3.42,0,7.51-0.19,10.21-0.45
			c-0.14,0.36-0.36,0.97-0.39,1.36c-2.12,0.14-7.24,0.31-9.82,0.31c-3.26,0-5.62-0.28-7.49-1.42c-1.11-0.67-1.92-1.5-2.56-1.5
			c-1,0-2.45,1.36-4.09,3.15l-0.83-1.06c1.5-1.5,2.95-2.73,4.17-3.09v-9.3h-4.04v-1.25h5.32V116.01z M336.51,102.04
			c-0.81-1.28-2.56-3.23-4.06-4.62l1-0.64c1.53,1.34,3.28,3.2,4.15,4.48L336.51,102.04z M340.74,103.18c-0.5,0.53-0.97,1-1.48,1.45
			c-0.22-0.22-0.78-0.67-1.11-0.83c2.45-2,4.68-5.01,6.04-8.15l1.28,0.36c-0.31,0.67-0.61,1.31-0.95,1.95h6.12l0.22-0.06l0.86,0.56
			c-0.61,1.22-1.56,2.53-2.45,3.59h5.43v6.79h-5.68v6.04c0,0.64,0.17,0.81,1.34,0.81h4.12c0.92,0,1.09-0.33,1.17-2.76
			c0.31,0.19,0.81,0.36,1.17,0.47c-0.17,2.78-0.58,3.45-2.25,3.45h-4.29c-1.98,0-2.5-0.36-2.5-1.98v-6.04h-0.14
			c-1.08,3.67-3.23,6.51-7.85,8.15c-0.17-0.31-0.53-0.72-0.81-0.95c4.26-1.45,6.32-3.98,7.38-7.21h-5.62V103.18z M343.8,99.12
			c-0.61,1.03-1.31,2.03-2.06,2.92h6.07c0.7-0.81,1.5-1.95,2.06-2.92H343.8z M346.67,107.66c0.33-1.39,0.53-2.87,0.67-4.45h-5.32
			v4.45H346.67z M353.43,103.21h-4.79c-0.17,1.59-0.36,3.06-0.64,4.45h5.43V103.21z M351.29,109.72c1.17,0.92,2.48,2.25,3.06,3.2
			l-0.95,0.7c-0.58-0.95-1.84-2.34-3.01-3.28L351.29,109.72z"/>
		<path d="M369.58,113.42c0,0.64-0.11,1.03-0.56,1.25c-0.45,0.25-1.14,0.25-2.23,0.25c-0.06-0.33-0.25-0.83-0.45-1.2
			c0.89,0.03,1.56,0.03,1.78,0c0.25,0,0.31-0.08,0.31-0.31v-11.19h-2.92v18.59h-1.2v-18.59h-2.76v12.91h-1.14v-14.17h3.9v-5.37h1.2
			v5.37h4.06V113.42z M382.83,118.91c0.25,0,0.5-0.03,0.64-0.14c0.14-0.14,0.28-0.45,0.33-0.75c0.05-0.53,0.11-1.92,0.08-3.48
			c0.28,0.28,0.7,0.5,1.06,0.58c0,1.34-0.08,3.06-0.2,3.56c-0.08,0.64-0.31,0.97-0.58,1.2c-0.31,0.22-0.78,0.31-1.2,0.31h-1.17
			c-0.47,0-0.95-0.11-1.28-0.42c-0.39-0.33-0.5-0.75-0.5-2.03V98.17h-6.9v9.88c0,4.23-0.56,9.46-4.79,12.91
			c-0.2-0.25-0.67-0.72-0.95-0.89c4.04-3.26,4.48-7.99,4.48-12.02V96.89h9.41v21.26c0,0.22,0.08,0.45,0.22,0.56s0.33,0.19,0.53,0.19
			H382.83z M374.87,104.02c1.56,2.12,3.42,4.95,4.4,6.62l-1.14,0.67c-0.92-1.73-2.81-4.65-4.31-6.82L374.87,104.02z"/>
		<path d="M387.31,110.45h6.85v1.36h-6.85V110.45z"/>
		<path d="M405.13,96.14c-0.83,2.09-1.84,4.15-2.98,6.07v18.62h-1.36v-16.48c-1.06,1.5-2.17,2.89-3.34,4.06
			c-0.14-0.28-0.56-0.95-0.83-1.22c2.87-2.76,5.57-7.07,7.24-11.44L405.13,96.14z M412.84,101.65v4.68h8.46v1.25h-8.46v4.87h8.85
			v1.28h-8.85v7.13h-1.34v-19.2h-2.42c-1.25,2.34-2.67,4.43-4.15,6.07c-0.22-0.19-0.78-0.67-1.06-0.86
			c2.53-2.64,4.81-6.71,6.26-10.83l1.25,0.33c-0.5,1.36-1.06,2.73-1.7,4.01h12.16v1.28H412.84z"/>
		<path d="M425.73,108.97h9.43v11.61h-1.34v-1.31h-6.82v1.59h-1.28V108.97z M427.01,110.25v7.74h6.82v-7.74H427.01z M444.46,105.63
			H429.9v-8.77h14.56V105.63z M443.12,98.17h-11.91v6.18h11.91V98.17z M448.69,108.97v11.69h-1.31v-1.39h-7.46v1.59h-1.31v-11.88
			H448.69z M447.38,117.99v-7.74h-7.46v7.74H447.38z"/>
		<path d="M456.07,101.57c-0.89,1.06-1.89,2.06-3.01,2.98c-0.25-0.28-0.67-0.67-1-0.81c3.03-2.45,5.26-5.65,6.43-8.15l1.42,0.25
			c-0.5,0.92-1.06,1.95-1.75,2.95h7.4c-0.36-0.86-0.95-1.98-1.5-2.84l1.2-0.36c0.64,1,1.39,2.31,1.75,3.2h8.38v1.17h-9.3v2.28h8.24
			v1.09h-8.24v2.25h8.35v1.09h-8.35v2.37h10.33v1.17h-19.04v0.92h-1.31V101.57z M467.01,113.81c2.7,2.28,7.04,4.31,10.77,5.26
			c-0.31,0.31-0.67,0.81-0.86,1.14c-3.9-1.14-8.6-3.53-11.38-6.15v6.79h-1.31v-6.82c-2.78,2.73-7.46,5.2-11.19,6.43
			c-0.25-0.36-0.61-0.86-0.92-1.11c3.62-1.03,7.93-3.2,10.6-5.54h-10.08v-1.2h11.58v-2.12h1.31v2.12h11.72v1.2H467.01z
			 M464.78,99.95h-7.4v2.28h7.4V99.95z M464.78,103.32h-7.4v2.25h7.4V103.32z M464.78,106.66h-7.4v2.37h7.4V106.66z"/>
	</g>
	<g>
		<path d="M302.29,80.2c4.45-0.21,4.86-1.09,4.86-5.17V54.45c0-4.14,0-4.91-4.55-5.12v-0.78h12.26c3.26,0,11.27,0.41,11.27,9
			c0,7.55-7.19,10.65-12.05,10.14l-4.14-1.14v8.58c0,4.03,0.36,4.76,5.64,5.07v0.72h-13.29V80.2z M309.94,65.41
			c0.57,0.26,1.96,0.78,4.4,0.78c4.6,0,8.38-2.38,8.38-8.38c0-5.64-3.26-8.22-9.62-8.22c-1.4,0-2.17,0-2.64,0.1
			c-0.36,0.05-0.52,0.21-0.52,1.29V65.41z"/>
		<path d="M353.33,69.76c0,7.81-6.41,11.74-11.38,11.74c-6.83,0-11.48-5.17-11.48-10.81c0-8.38,7.03-11.84,11.38-11.84
			C348.36,58.84,353.33,63.76,353.33,69.76z M333.73,68.98c0,6.62,3.46,11.32,8.95,11.32c4.34,0,7.5-2.79,7.5-9.77
			c0-5.02-3.05-10.45-8.79-10.45C336.62,60.09,333.73,63.81,333.73,68.98z"/>
		<path d="M357.15,80.2c3.16-0.21,3.67-0.93,3.67-4.19V65.88c0-3.77-0.36-4.08-3.57-4.45v-0.62c2.12-0.41,4.19-1.03,6.05-2.17v6.31
			h0.1c1.24-2.79,4.03-6.1,6.57-6.1c1.55,0,2.53,1.34,2.53,2.17c0,0.98-1.03,1.91-1.81,1.91c-0.21,0-0.36-0.05-0.46-0.26
			c-0.78-0.72-1.19-1.09-2.17-1.09c-1.4,0-3.41,2.33-4.76,6.1v8.43c0,3.21,0.46,3.88,4.6,4.08v0.72h-10.76V80.2z"/>
		<path d="M384.35,80.93c-0.93,0.52-1.5,0.57-2.12,0.57c-2.9,0-4.29-2.07-4.29-5.58V61.07h-3.72l-0.16-0.57l1.4-1.09h2.48v-2.84
			l1.76-3.52l0.72-0.05v6.41h6.21c0.1,0.21,0.15,0.41,0.15,0.62c0,0.36-0.15,0.72-0.52,1.03h-5.84v13.45c0,4.19,1.4,5.07,3.1,5.07
			c1.76,0,3-0.72,3.57-1.03l0.41,0.78L384.35,80.93z"/>
		<path d="M388.85,80.2c3.15-0.21,3.62-0.83,3.62-4.08V61.07h-3.72l-0.21-0.57l1.4-1.09h2.53c0-2.17,0.05-4.55,0.41-5.53
			c0.47-1.09,1.34-3.77,3.88-5.9c1.91-1.6,3.78-2.48,5.53-2.74c1.81,0,4.24,1.65,4.24,2.69s-1.19,1.55-1.55,1.55
			c-0.21,0-0.41-0.1-0.62-0.36c-0.88-0.88-2.53-1.5-4.5-1.5c-1.19,0-2.22,0.41-3.05,1.29c-0.83,0.98-1.76,4.14-1.81,8.12l-0.05,2.38
			h6.31c0.1,0.26,0.16,0.47,0.16,0.72c0,0.36-0.16,0.78-0.57,0.93h-5.9v15.05c0,3.21,0.41,3.88,4.76,4.19v0.62h-10.86V80.2z"/>
		<path d="M425.87,69.76c0,7.81-6.41,11.74-11.38,11.74c-6.83,0-11.48-5.17-11.48-10.81c0-8.38,7.03-11.84,11.38-11.84
			C420.91,58.84,425.87,63.76,425.87,69.76z M406.27,68.98c0,6.62,3.46,11.32,8.95,11.32c4.34,0,7.5-2.79,7.5-9.77
			c0-5.02-3.05-10.45-8.79-10.45C409.17,60.09,406.27,63.81,406.27,68.98z"/>
		<path d="M428.87,80.2c3.31-0.21,3.83-0.93,3.83-4.14v-24.2c0-3.57-0.41-3.93-3.72-4.24V47c2.53-0.31,5.33-1.24,6.21-1.76v30.82
			c0,3.21,0.46,3.93,3.88,4.14v0.72h-10.19V80.2z"/>
		<path d="M441.33,80.2c3.31-0.26,3.83-0.93,3.83-3.93V65.52c0-3.31-0.36-3.57-3.31-4.09v-0.67c2.17-0.47,3.83-1.03,5.79-2.07v17.58
			c0,3,0.52,3.67,3.88,3.93v0.72h-10.19V80.2z M448.41,49.48c0,1.09-0.88,2.07-1.96,2.07c-1.03,0-1.96-0.98-1.96-2.07
			c0-1.24,0.93-2.17,1.96-2.17C447.64,47.31,448.41,48.4,448.41,49.48z"/>
		<path d="M477.21,69.76c0,7.81-6.41,11.74-11.38,11.74c-6.83,0-11.48-5.17-11.48-10.81c0-8.38,7.03-11.84,11.38-11.84
			C472.25,58.84,477.21,63.76,477.21,69.76z M457.62,68.98c0,6.62,3.46,11.32,8.95,11.32c4.34,0,7.5-2.79,7.5-9.77
			c0-5.02-3.05-10.45-8.79-10.45C460.51,60.09,457.62,63.81,457.62,68.98z"/>
	</g>
</g>
</svg>
